{
.appVersion = "1230";
DisplayStrings = (
"¿",
"/facsimile",
"/Softsign-cy"
);
copyright = "Copyright © 2019 by Abbie Gonzalez. All rights reserved.";
date = "2019-07-31 02:23:48 +0000";
designer = "Abbie Gonzalez";
designerURL = "https://abbiecod.es";
familyName = OpenDyslexic;
fontMaster = (
{
alignmentZones = (
"{800, 16}",
"{700, 16}",
"{500, 16}",
"{0, -16}",
"{-200, -16}"
);
ascender = 800;
capHeight = 700;
customParameters = (
{
name = "Color Palettes";
value = (
(
"10,0,148,255",
"0,121,0,255",
"255,0,0,255",
"255,255,1,255"
)
);
}
);
descender = -200;
guideLines = (
{
position = "{249, 144}";
},
{
angle = -18.2659;
position = "{167, 549}";
},
{
angle = -9.1002;
position = "{311, 295}";
}
);
iconName = SemiLight_SemiExtended;
id = "BA196CD0-EE58-4274-B8DF-4393D3617A29";
userData = {
GSCornerRadius = 10;
GSOffsetHorizontal = 12;
GSOffsetMakeStroke = 1;
GSOffsetPosition = 0.1;
GSOffsetProportional = 1;
GSOffsetVertical = -10;
};
visible = 1;
xHeight = 500;
},
{
alignmentZones = (
"{800, 16}",
"{700, 16}",
"{500, 16}",
"{0, -16}",
"{-200, -16}"
);
ascender = 800;
capHeight = 700;
customParameters = (
{
name = "Color Palettes";
value = (
(
"10,0,148,255",
"0,121,0,255",
"255,0,0,255",
"255,255,1,255"
)
);
}
);
descender = -200;
guideLines = (
{
position = "{249, 144}";
},
{
angle = -18.2659;
position = "{161, 549}";
},
{
angle = -9.1002;
position = "{311, 295}";
}
);
id = "BBDB329E-CE83-4304-A6B1-53EA5ACC004E";
userData = {
GSCornerRadius = 10;
GSOffsetAutoStroke = 1;
GSOffsetHorizontal = 15;
GSOffsetKeepCompatible = 1;
GSOffsetPosition = 0.1;
GSOffsetProportional = 1;
GSOffsetVertical = -26;
};
weight = Bold;
weightValue = 700;
xHeight = 500;
}
);
glyphs = (
{
color = 6;
glyphname = A;
lastChange = "2019-09-02 02:30:47 +0000";
layers = (
{
anchors = (
{
name = abovecomb;
position = "{416, 766}";
},
{
name = bottom;
position = "{414, 0}";
},
{
name = dotbelow;
position = "{424, 6}";
},
{
name = dotbelowcomb;
position = "{421, 7}";
},
{
name = greekcap;
position = "{206, 603}";
},
{
name = ogonek;
position = "{643, 0}";
},
{
name = polyomicron;
position = "{215, 605}";
},
{
name = top;
position = "{415, 759}";
}
);
layerId = "BA196CD0-EE58-4274-B8DF-4393D3617A29";
paths = (
{
closed = 1;
nodes = (
"280 235 LINE",
"413 668 LINE",
"549 235 LINE"
);
},
{
closed = 1;
nodes = (
"214 0 LINE",
"251 119 LINE",
"579 119 LINE",
"607 0 LINE",
"748 0 LINE",
"461 729 LINE",
"368 729 LINE",
"80 0 LINE"
);
}
);
width = 828;
},
{
anchors = (
{
name = abovecomb;
position = "{416, 781}";
},
{
name = bottom;
position = "{414, 0}";
},
{
name = dotbelow;
position = "{424, 6}";
},
{
name = dotbelowcomb;
position = "{421, 7}";
},
{
name = greekcap;
position = "{206, 603}";
},
{
name = ogonek;
position = "{643, 0}";
},
{
name = polyomicron;
position = "{215, 605}";
},
{
name = top;
position = "{415, 778}";
}
);
layerId = "BBDB329E-CE83-4304-A6B1-53EA5ACC004E";
paths = (
{
closed = 1;
nodes = (
"317 262 LINE",
"413 577 LINE",
"512 262 LINE"
);
},
{
closed = 1;
nodes = (
"234 -27 LINE",
"271 92 LINE",
"558 92 LINE",
"586 -27 LINE",
"788 -27 LINE",
"479 756 LINE",
"350 756 LINE",
"40 -27 LINE"
);
}
);
width = 828;
}
);
unicode = 0041;
},
{
glyphname = "Alpha-latin";
lastChange = "2019-09-02 02:16:03 +0000";
layers = (
{
anchors = (
{
name = bottom;
position = "{350, 0}";
},
{
name = ogonek;
position = "{511, 29}";
},
{
name = top;
position = "{339, 577}";
}
);
layerId = "BA196CD0-EE58-4274-B8DF-4393D3617A29";
paths = (
{
closed = 1;
nodes = (
"455 655 OFFCURVE",
"415 677 OFFCURVE",
"362 677 CURVE SMOOTH",
"352 677 OFFCURVE",
"341 676 OFFCURVE",
"329 674 CURVE SMOOTH",
"232 660 OFFCURVE",
"106 548 OFFCURVE",
"57 387 CURVE SMOOTH",
"36 318 OFFCURVE",
"27 261 OFFCURVE",
"27 214 CURVE SMOOTH",
"27 13 OFFCURVE",
"191 -14 OFFCURVE",
"318 -14 CURVE SMOOTH",
"398 -14 OFFCURVE",
"470 17 OFFCURVE",
"508 82 CURVE",
"508 0 LINE",
"616 0 LINE",
"616 75 OFFCURVE",
"596 60 OFFCURVE",
"596 329 CURVE SMOOTH",
"596 605 OFFCURVE",
"629 600 OFFCURVE",
"629 673 CURVE",
"534 673 LINE",
"510 602 LINE"
);
},
{
closed = 1;
nodes = (
"154 485 OFFCURVE",
"267 600 OFFCURVE",
"328 610 CURVE SMOOTH",
"338 612 OFFCURVE",
"349 613 OFFCURVE",
"362 613 CURVE SMOOTH",
"421 613 OFFCURVE",
"497 581 OFFCURVE",
"497 396 CURVE SMOOTH",
"497 368 OFFCURVE",
"495 335 OFFCURVE",
"491 299 CURVE SMOOTH",
"477 173 OFFCURVE",
"487 138 OFFCURVE",
"306 138 CURVE SMOOTH",
"182 138 OFFCURVE",
"103 205 OFFCURVE",
"103 296 CURVE SMOOTH",
"103 314 OFFCURVE",
"106 333 OFFCURVE",
"112 352 CURVE"
);
}
);
width = 656;
},
{
anchors = (
{
name = bottom;
position = "{350, 0}";
},
{
name = ogonek;
position = "{511, 29}";
},
{
name = top;
position = "{339, 577}";
}
);
layerId = "BBDB329E-CE83-4304-A6B1-53EA5ACC004E";
paths = (
{
closed = 1;
nodes = (
"451 688 OFFCURVE",
"410 704 OFFCURVE",
"362 704 CURVE SMOOTH",
"350 704 OFFCURVE",
"338 703 OFFCURVE",
"325 701 CURVE SMOOTH",
"205 683 OFFCURVE",
"79 551 OFFCURVE",
"31 395 CURVE SMOOTH",
"10 327 OFFCURVE",
"0 266 OFFCURVE",
"0 214 CURVE SMOOTH",
"0 43 OFFCURVE",
"108 -41 OFFCURVE",
"318 -41 CURVE SMOOTH",
"382 -41 OFFCURVE",
"439 -23 OFFCURVE",
"481 11 CURVE",
"481 -27 LINE",
"642 -27 LINE",
"649 54 OFFCURVE",
"623 95 OFFCURVE",
"623 329 CURVE SMOOTH",
"623 602 OFFCURVE",
"664 605 OFFCURVE",
"655 700 CURVE",
"515 700 LINE",
"498 649 LINE"
);
},
{
closed = 1;
nodes = (
"171 451 OFFCURVE",
"273 574 OFFCURVE",
"333 583 CURVE",
"341 585 OFFCURVE",
"350 586 OFFCURVE",
"362 586 CURVE SMOOTH",
"434 586 OFFCURVE",
"470 525 OFFCURVE",
"470 396 CURVE SMOOTH",
"470 368 OFFCURVE",
"468 336 OFFCURVE",
"464 302 CURVE SMOOTH",
"450 171 OFFCURVE",
"451 165 OFFCURVE",
"306 165 CURVE SMOOTH",
"200 165 OFFCURVE",
"130 218 OFFCURVE",
"130 296 CURVE SMOOTH",
"130 311 OFFCURVE",
"133 328 OFFCURVE",
"138 344 CURVE SMOOTH"
);
}
);
width = 656;
}
);
unicode = 2C6D;
},
{
color = 6;
glyphname = B;
lastChange = "2019-09-02 02:16:03 +0000";
layers = (
{
anchors = (
{
name = bottom;
position = "{344, 0}";
},
{
name = top;
position = "{344, 700}";
},
{
name = top_hook;
position = "{-59, 470}";
}
);
layerId = "BA196CD0-EE58-4274-B8DF-4393D3617A29";
paths = (
{
closed = 1;
nodes = (
"390 348 OFFCURVE",
"430 338 OFFCURVE",
"455 316 CURVE SMOOTH",
"481 293 OFFCURVE",
"498 268 OFFCURVE",
"498 248 CURVE SMOOTH",
"498 160 OFFCURVE",
"443 145 OFFCURVE",
"337 145 CURVE SMOOTH",
"179 145 LINE",
"179 348 LINE",
"337 348 LINE SMOOTH"
);
},
{
closed = 1;
nodes = (
"421 663 OFFCURVE",
"468 612 OFFCURVE",
"468 538 CURVE SMOOTH",
"468 464 OFFCURVE",
"421 428 OFFCURVE",
"325 428 CURVE SMOOTH",
"179 428 LINE",
"179 663 LINE",
"325 663 LINE SMOOTH"
);
},
{
closed = 1;
nodes = (
"342 0 LINE SMOOTH",
"506 0 OFFCURVE",
"607 0 OFFCURVE",
"607 204 CURVE SMOOTH",
"607 303 OFFCURVE",
"549 372 OFFCURVE",
"420 393 CURVE",
"500 406 OFFCURVE",
"543 459 OFFCURVE",
"543 549 CURVE SMOOTH",
"543 664 OFFCURVE",
"458 729 OFFCURVE",
"308 729 CURVE SMOOTH",
"80 729 LINE",
"80 0 LINE"
);
}
);
width = 687;
},
{
anchors = (
{
name = bottom;
position = "{344, 0}";
},
{
name = top;
position = "{344, 700}";
},
{
name = top_hook;
position = "{-59, 470}";
}
);
layerId = "BBDB329E-CE83-4304-A6B1-53EA5ACC004E";
paths = (
{
closed = 1;
nodes = (
"386 321 OFFCURVE",
"418 313 OFFCURVE",
"437 296 CURVE SMOOTH",
"459 277 OFFCURVE",
"471 258 OFFCURVE",
"471 248 CURVE SMOOTH",
"471 188 OFFCURVE",
"445 172 OFFCURVE",
"337 172 CURVE SMOOTH",
"206 172 LINE",
"206 321 LINE",
"337 321 LINE SMOOTH"
);
},
{
closed = 1;
nodes = (
"401 636 OFFCURVE",
"441 601 OFFCURVE",
"441 538 CURVE SMOOTH",
"441 481 OFFCURVE",
"407 455 OFFCURVE",
"325 455 CURVE SMOOTH",
"206 455 LINE",
"206 636 LINE",
"325 636 LINE SMOOTH"
);
},
{
closed = 1;
nodes = (
"342 -27 LINE SMOOTH",
"506 -27 OFFCURVE",
"634 -27 OFFCURVE",
"634 204 CURVE SMOOTH",
"634 296 OFFCURVE",
"589 363 OFFCURVE",
"504 398 CURVE",
"547 429 OFFCURVE",
"570 481 OFFCURVE",
"570 549 CURVE SMOOTH",
"570 680 OFFCURVE",
"472 756 OFFCURVE",
"308 756 CURVE SMOOTH",
"53 756 LINE",
"53 -27 LINE"
);
}
);
width = 687;
}
);
unicode = 0042;
},
{
color = 6;
glyphname = C;
lastChange = "2019-09-02 02:30:26 +0000";
layers = (
{
anchors = (
{
name = bottom;
position = "{389, 0}";
},
{
name = top;
position = "{389, 729}";
},
{
name = top_hook;
position = "{616, 682}";
}
);
layerId = "BA196CD0-EE58-4274-B8DF-4393D3617A29";
paths = (
{
closed = 1;
nodes = (
"548 744 OFFCURVE",
"524 746 OFFCURVE",
"436 746 CURVE SMOOTH",
"215 746 OFFCURVE",
"80 602 OFFCURVE",
"80 368 CURVE SMOOTH",
"80 0 OFFCURVE",
"115 -13 OFFCURVE",
"305 -13 CURVE SMOOTH",
"389 -13 OFFCURVE",
"419 -13 OFFCURVE",
"616 -13 CURVE",
"616 159 LINE",
"567 144 OFFCURVE",
"527 139 OFFCURVE",
"442 139 CURVE SMOOTH",
"276 139 OFFCURVE",
"166 197 OFFCURVE",
"166 368 CURVE SMOOTH",
"166 561 OFFCURVE",
"276 672 OFFCURVE",
"442 672 CURVE SMOOTH",
"527 672 OFFCURVE",
"527 672 OFFCURVE",
"623 656 CURVE",
"637 732 LINE"
);
}
);
width = 717;
},
{
anchors = (
{
name = bottom;
position = "{389, 0}";
},
{
name = top;
position = "{389, 748}";
},
{
name = top_hook;
position = "{616, 682}";
}
);
layerId = "BBDB329E-CE83-4304-A6B1-53EA5ACC004E";
paths = (
{
closed = 1;
nodes = (
"555 770 OFFCURVE",
"534 773 OFFCURVE",
"436 773 CURVE SMOOTH",
"200 773 OFFCURVE",
"53 617 OFFCURVE",
"53 368 CURVE SMOOTH",
"53 9 OFFCURVE",
"81 -40 OFFCURVE",
"305 -40 CURVE SMOOTH",
"392 -40 OFFCURVE",
"422 -40 OFFCURVE",
"643 -40 CURVE",
"643 197 LINE",
"576 173 OFFCURVE",
"541 166 OFFCURVE",
"442 166 CURVE SMOOTH",
"270 166 OFFCURVE",
"193 229 OFFCURVE",
"193 368 CURVE SMOOTH",
"193 541 OFFCURVE",
"287 645 OFFCURVE",
"442 645 CURVE SMOOTH",
"536 645 OFFCURVE",
"528 644 OFFCURVE",
"645 625 CURVE",
"669 755 LINE"
);
}
);
width = 717;
}
);
unicode = 0043;
},
{
color = 6;
glyphname = D;
lastChange = "2019-09-02 02:31:03 +0000";
layers = (
{
anchors = (
{
name = bottom;
position = "{387, 0}";
},
{
name = dash;
position = "{201, 378}";
},
{
name = hook_top;
position = "{68, 669}";
},
{
name = top;
position = "{361, 729}";
}
);
layerId = "BA196CD0-EE58-4274-B8DF-4393D3617A29";
paths = (
{
closed = 1;
nodes = (
"504 659 OFFCURVE",
"613 573 OFFCURVE",
"613 393 CURVE SMOOTH",
"613 271 OFFCURVE",
"555 190 OFFCURVE",
"303 190 CURVE SMOOTH",
"184 190 LINE",
"184 659 LINE",
"303 659 LINE SMOOTH"
);
},
{
closed = 1;
nodes = (
"283 0 LINE SMOOTH",
"565 0 OFFCURVE",
"693 0 OFFCURVE",
"693 365 CURVE SMOOTH",
"693 615 OFFCURVE",
"566 729 OFFCURVE",
"283 729 CURVE SMOOTH",
"80 729 LINE",
"80 0 LINE"
);
}
);
width = 773;
},
{
anchors = (
{
name = bottom;
position = "{387, 0}";
},
{
name = dash;
position = "{201, 378}";
},
{
name = hook_top;
position = "{68, 669}";
},
{
name = top;
position = "{354, 766}";
}
);
layerId = "BBDB329E-CE83-4304-A6B1-53EA5ACC004E";
paths = (
{
closed = 1;
nodes = (
"494 632 OFFCURVE",
"586 553 OFFCURVE",
"586 393 CURVE SMOOTH",
"586 266 OFFCURVE",
"510 217 OFFCURVE",
"303 217 CURVE SMOOTH",
"211 217 LINE",
"211 632 LINE",
"303 632 LINE SMOOTH"
);
},
{
closed = 1;
nodes = (
"283 -27 LINE SMOOTH",
"565 -27 OFFCURVE",
"720 -27 OFFCURVE",
"720 365 CURVE SMOOTH",
"720 631 OFFCURVE",
"580 756 OFFCURVE",
"283 756 CURVE SMOOTH",
"53 756 LINE",
"53 -27 LINE"
);
}
);
width = 773;
}
);
unicode = 0044;
},
{
color = 6;
glyphname = E;
lastChange = "2019-09-02 02:16:03 +0000";
layers = (
{
anchors = (
{
name = bottom;
position = "{331, 0}";
},
{
name = ogonek;
position = "{342, 9}";
},
{
name = top;
position = "{332, 766}";
},
{
name = topleft;
position = "{25, 700}";
}
);
layerId = "BA196CD0-EE58-4274-B8DF-4393D3617A29";
paths = (
{
closed = 1;
nodes = (
"563 0 LINE",
"530 151 LINE",
"197 151 LINE",
"197 331 LINE",
"442 347 LINE",
"442 430 LINE",
"197 419 LINE",
"197 637 LINE",
"527 656 LINE",
"548 729 LINE",
"104 715 LINE",
"80 0 LINE"
);
}
);
width = 643;
},
{
anchors = (
{
name = bottom;
position = "{331, 0}";
},
{
name = ogonek;
position = "{342, 9}";
},
{
name = top;
position = "{332, 766}";
},
{
name = topleft;
position = "{25, 700}";
}
);
layerId = "BBDB329E-CE83-4304-A6B1-53EA5ACC004E";
paths = (
{
closed = 1;
nodes = (
"597 -27 LINE",
"552 178 LINE",
"224 178 LINE",
"224 306 LINE",
"469 322 LINE",
"469 458 LINE",
"224 447 LINE",
"224 612 LINE",
"548 630 LINE",
"584 757 LINE",
"78 741 LINE",
"52 -27 LINE"
);
}
);
width = 643;
}
);
unicode = 0045;
},
{
color = 6;
glyphname = F;
lastChange = "2019-09-02 02:16:03 +0000";
layers = (
{
anchors = (
{
name = bottom;
position = "{292, 0}";
},
{
name = bottom_hook;
position = "{114, -38}";
},
{
name = top;
position = "{292, 700}";
}
);
layerId = "BA196CD0-EE58-4274-B8DF-4393D3617A29";
paths = (
{
closed = 1;
nodes = (
"211 0 LINE",
"194 348 LINE",
"457 366 LINE",
"457 468 LINE",
"189 450 LINE",
"213 646 LINE",
"503 663 LINE",
"503 729 LINE",
"119 717 LINE",
"80 0 LINE"
);
}
);
width = 583;
},
{
anchors = (
{
name = bottom;
position = "{292, 0}";
},
{
name = bottom_hook;
position = "{114, -38}";
},
{
name = top;
position = "{292, 700}";
}
);
layerId = "BBDB329E-CE83-4304-A6B1-53EA5ACC004E";
paths = (
{
closed = 1;
nodes = (
"239 -27 LINE",
"222 323 LINE",
"484 341 LINE",
"484 497 LINE",
"220 479 LINE",
"237 620 LINE",
"530 638 LINE",
"530 757 LINE",
"93 743 LINE",
"51 -27 LINE"
);
}
);
width = 583;
}
);
unicode = 0046;
},
{
color = 6;
glyphname = G;
lastChange = "2019-09-02 02:31:34 +0000";
layers = (
{
anchors = (
{
name = bottom;
position = "{411, 0}";
},
{
name = top;
position = "{441, 716}";
},
{
name = top_hook;
position = "{616, 700}";
}
);
layerId = "BA196CD0-EE58-4274-B8DF-4393D3617A29";
paths = (
{
closed = 1;
nodes = (
"581 157 OFFCURVE",
"522 145 OFFCURVE",
"452 145 CURVE SMOOTH",
"274 145 OFFCURVE",
"191 194 OFFCURVE",
"184 374 CURVE",
"184 654 OFFCURVE",
"274 665 OFFCURVE",
"452 665 CURVE SMOOTH",
"501 665 OFFCURVE",
"578 661 OFFCURVE",
"654 644 CURVE",
"643 722 LINE",
"619 726 OFFCURVE",
"539 736 OFFCURVE",
"444 736 CURVE SMOOTH",
"216 736 OFFCURVE",
"80 685 OFFCURVE",
"80 364 CURVE SMOOTH",
"80 126 OFFCURVE",
"216 -14 OFFCURVE",
"444 -14 CURVE SMOOTH",
"548 -14 OFFCURVE",
"620 -14 OFFCURVE",
"702 40 CURVE",
"691 246 LINE",
"759 245 LINE",
"742 341 LINE",
"460 373 LINE",
"470 279 LINE",
"605 261 LINE",
"605 182 LINE"
);
}
);
width = 839;
},
{
anchors = (
{
name = bottom;
position = "{411, -20}";
},
{
name = top;
position = "{441, 746}";
},
{
name = top_hook;
position = "{616, 700}";
}
);
layerId = "BBDB329E-CE83-4304-A6B1-53EA5ACC004E";
paths = (
{
closed = 1;
nodes = (
"556 181 OFFCURVE",
"511 172 OFFCURVE",
"452 172 CURVE SMOOTH",
"276 172 OFFCURVE",
"217 221 OFFCURVE",
"211 375 CURVE",
"211 630 OFFCURVE",
"276 638 OFFCURVE",
"452 638 CURVE SMOOTH",
"535 638 OFFCURVE",
"622 627 OFFCURVE",
"686 608 CURVE",
"667 745 LINE",
"623 753 OFFCURVE",
"541 763 OFFCURVE",
"444 763 CURVE SMOOTH",
"156 763 OFFCURVE",
"53 659 OFFCURVE",
"53 364 CURVE SMOOTH",
"53 112 OFFCURVE",
"200 -41 OFFCURVE",
"444 -41 CURVE SMOOTH",
"553 -41 OFFCURVE",
"636 -41 OFFCURVE",
"730 26 CURVE",
"720 219 LINE",
"791 218 LINE",
"765 366 LINE",
"430 404 LINE",
"445 255 LINE",
"578 237 LINE",
"578 195 LINE"
);
}
);
width = 839;
}
);
unicode = 0047;
},
{
color = 6;
glyphname = H;
lastChange = "2019-09-02 02:16:03 +0000";
layers = (
{
anchors = (
{
name = bottom;
position = "{386, 0}";
},
{
name = caccent;
position = "{715, 153}";
},
{
name = center;
position = "{383, 365}";
},
{
name = eng;
position = "{622, 52}";
},
{
name = gram;
position = "{723, 323}";
},
{
name = greek_top;
position = "{46, 654}";
},
{
name = mark;
position = "{775, 682}";
},
{
name = top;
position = "{391, 810}";
},
{
name = top_hook;
position = "{-29, 473}";
},
{
name = topleft;
position = "{25, 700}";
}
);
layerId = "BA196CD0-EE58-4274-B8DF-4393D3617A29";
paths = (
{
closed = 1;
nodes = (
"80 0 LINE",
"232 0 LINE",
"204 729 LINE",
"100 729 LINE"
);
},
{
closed = 1;
nodes = (
"532 0 LINE",
"691 0 LINE",
"660 729 LINE",
"556 729 LINE"
);
},
{
closed = 1;
nodes = (
"181 187 LINE",
"575 187 LINE",
"582 332 LINE",
"181 332 LINE"
);
}
);
width = 771;
},
{
anchors = (
{
name = bottom;
position = "{386, 0}";
},
{
name = caccent;
position = "{715, 153}";
},
{
name = center;
position = "{383, 365}";
},
{
name = eng;
position = "{622, 52}";
},
{
name = gram;
position = "{723, 323}";
},
{
name = greek_top;
position = "{46, 654}";
},
{
name = mark;
position = "{775, 682}";
},
{
name = top;
position = "{391, 810}";
},
{
name = top_hook;
position = "{-29, 473}";
},
{
name = topleft;
position = "{25, 700}";
}
);
layerId = "BBDB329E-CE83-4304-A6B1-53EA5ACC004E";
paths = (
{
closed = 1;
nodes = (
"52 -27 LINE",
"260 -27 LINE",
"230 756 LINE",
"74 756 LINE"
);
},
{
closed = 1;
nodes = (
"504 -27 LINE",
"719 -27 LINE",
"686 756 LINE",
"530 756 LINE"
);
},
{
closed = 1;
nodes = (
"154 160 LINE",
"601 160 LINE",
"610 359 LINE",
"154 359 LINE"
);
}
);
width = 771;
}
);
unicode = 0048;
},
{
color = 6;
glyphname = I;
lastChange = "2019-09-02 02:34:25 +0000";
layers = (
{
anchors = (
{
name = bottom;
position = "{155, 4}";
},
{
name = ogonek;
position = "{131, 0}";
},
{
name = top;
position = "{144, 779}";
},
{
name = topleft;
position = "{25, 700}";
}
);
layerId = "BA196CD0-EE58-4274-B8DF-4393D3617A29";
paths = (
{
closed = 1;
nodes = (
"220 0 LINE",
"194 243 OFFCURVE",
"184 492 OFFCURVE",
"194 729 CURVE",
"85 729 LINE",
"95 632 OFFCURVE",
"111 292 OFFCURVE",
"80 0 CURVE"
);
}
);
width = 300;
},
{
anchors = (
{
name = bottom;
position = "{155, -50}";
},
{
name = ogonex;
position = "{143, 16}";
},
{
name = top;
position = "{144, 818}";
},
{
name = topleft;
position = "{25, 700}";
}
);
layerId = "BBDB329E-CE83-4304-A6B1-53EA5ACC004E";
paths = (
{
closed = 1;
nodes = (
"250 -27 LINE",
"220 243 OFFCURVE",
"210 510 OFFCURVE",
"222 756 CURVE",
"55 756 LINE",
"69 626 OFFCURVE",
"85 269 OFFCURVE",
"50 -27 CURVE"
);
}
);
width = 300;
}
);
unicode = 0049;
},
{
color = 6;
glyphname = J;
lastChange = "2019-09-02 02:38:03 +0000";
layers = (
{
anchors = (
{
name = bottom;
position = "{241, 0}";
},
{
name = top;
position = "{282, 729}";
}
);
layerId = "BA196CD0-EE58-4274-B8DF-4393D3617A29";
paths = (
{
closed = 1;
nodes = (
"286 727 LINE",
"401 727 LINE",
"367 31 LINE SMOOTH",
"358 -145 OFFCURVE",
"302 -209 OFFCURVE",
"146 -211 CURVE",
"80 -205 LINE",
"87 -44 LINE",
"137 -55 LINE SMOOTH",
"222 -74 OFFCURVE",
"261 -16 OFFCURVE",
"263 37 CURVE SMOOTH"
);
}
);
width = 481;
},
{
anchors = (
{
name = bottom;
position = "{241, 0}";
},
{
name = top;
position = "{282, 729}";
}
);
layerId = "BBDB329E-CE83-4304-A6B1-53EA5ACC004E";
paths = (
{
closed = 1;
nodes = (
"231 -14 OFFCURVE",
"176 -28 OFFCURVE",
"120 -14 CURVE SMOOTH",
"-27 23 LINE",
"-66 -192 LINE",
"207 -200 LINE SMOOTH",
"286 -202 OFFCURVE",
"373 -161 OFFCURVE",
"394 29 CURVE SMOOTH",
"471 719 LINE",
"301 719 LINE",
"236 38 LINE SMOOTH"
);
}
);
width = 481;
}
);
unicode = 004A;
},
{
color = 6;
glyphname = K;
lastChange = "2019-09-02 02:16:03 +0000";
layers = (
{
anchors = (
{
name = bottom;
position = "{312, 0}";
},
{
name = top;
position = "{370, 729}";
},
{
name = top_hook;
position = "{587, 515}";
}
);
layerId = "BA196CD0-EE58-4274-B8DF-4393D3617A29";
paths = (
{
closed = 1;
nodes = (
"208 0 LINE",
"220 289 LINE",
"417 0 LINE",
"650 0 LINE",
"312 327 LINE",
"555 729 LINE",
"428 729 LINE",
"220 359 LINE",
"233 729 LINE",
"145 729 LINE",
"80 0 LINE"
);
}
);
width = 730;
},
{
anchors = (
{
name = bottom;
position = "{312, 0}";
},
{
name = top;
position = "{370, 729}";
},
{
name = top_hook;
position = "{587, 515}";
}
);
layerId = "BBDB329E-CE83-4304-A6B1-53EA5ACC004E";
paths = (
{
closed = 1;
nodes = (
"234 -27 LINE",
"244 206 LINE",
"403 -27 LINE",
"717 -27 LINE",
"346 331 LINE",
"603 756 LINE",
"412 756 LINE",
"251 469 LINE",
"261 756 LINE",
"120 756 LINE",
"50 -27 LINE"
);
}
);
width = 730;
}
);
unicode = 004B;
},
{
color = 6;
glyphname = L;
lastChange = "2019-09-02 02:16:03 +0000";
layers = (
{
anchors = (
{
name = "_ circumflexbelowcomb";
position = "{320, -26}";
},
{
name = bottom;
position = "{317, 5}";
},
{
name = center;
position = "{315, 350}";
},
{
name = right;
position = "{322, 644}";
},
{
name = top;
position = "{143, 729}";
},
{
name = topright;
position = "{604, 700}";
}
);
layerId = "BA196CD0-EE58-4274-B8DF-4393D3617A29";
paths = (
{
closed = 1;
nodes = (
"549 0 LINE",
"539 151 LINE",
"184 145 LINE",
"184 729 LINE",
"106 729 LINE",
"80 0 LINE"
);
}
);
width = 629;
},
{
anchors = (
{
name = "_ circumflexbelowcomb";
position = "{320, -26}";
},
{
name = bottom;
position = "{317, 5}";
},
{
name = center;
position = "{315, 350}";
},
{
name = right;
position = "{322, 644}";
},
{
name = top;
position = "{143, 729}";
},
{
name = topright;
position = "{604, 700}";
}
);
layerId = "BBDB329E-CE83-4304-A6B1-53EA5ACC004E";
paths = (
{
closed = 1;
nodes = (
"578 -27 LINE",
"564 178 LINE",
"211 172 LINE",
"211 756 LINE",
"80 756 LINE",
"52 -27 LINE"
);
}
);
width = 629;
}
);
unicode = 004C;
},
{
color = 6;
glyphname = M;
lastChange = "2019-09-02 02:16:03 +0000";
layers = (
{
anchors = (
{
name = _top;
position = "{408, 663}";
},
{
name = bottom;
position = "{437, 0}";
},
{
name = hookbelow;
position = "{801, 157}";
},
{
name = top;
position = "{437, 700}";
}
);
layerId = "BA196CD0-EE58-4274-B8DF-4393D3617A29";
paths = (
{
closed = 1;
nodes = (
"223 0 LINE",
"177 671 LINE",
"385 63 LINE",
"494 63 LINE",
"683 671 LINE",
"633 0 LINE",
"794 0 LINE",
"763 729 LINE",
"626 729 LINE",
"442 289 LINE",
"253 729 LINE",
"106 729 LINE",
"80 0 LINE"
);
}
);
width = 874;
},
{
anchors = (
{
name = _top;
position = "{408, 663}";
},
{
name = bottom;
position = "{437, 0}";
},
{
name = hookbelow;
position = "{801, 157}";
},
{
name = top;
position = "{437, 700}";
}
);
layerId = "BBDB329E-CE83-4304-A6B1-53EA5ACC004E";
paths = (
{
closed = 1;
nodes = (
"252 -27 LINE",
"204 673 LINE",
"151 662 LINE",
"366 36 LINE",
"514 36 LINE",
"709 663 LINE",
"656 673 LINE",
"604 -27 LINE",
"822 -27 LINE",
"789 756 LINE",
"608 756 LINE",
"442 358 LINE",
"271 756 LINE",
"80 756 LINE",
"52 -27 LINE"
);
}
);
width = 874;
}
);
unicode = 004D;
},
{
color = 6;
glyphname = N;
lastChange = "2019-09-02 02:16:03 +0000";
layers = (
{
anchors = (
{
name = _;
position = "{415, 0}";
},
{
name = bottom;
position = "{379, 0}";
},
{
name = eng;
position = "{564, 12}";
},
{
name = top;
position = "{415, 729}";
}
);
layerId = "BA196CD0-EE58-4274-B8DF-4393D3617A29";
paths = (
{
closed = 1;
nodes = (
"241 0 LINE",
"221 616 LINE",
"476 0 LINE",
"637 0 LINE",
"677 727 LINE",
"586 727 LINE",
"537 139 LINE",
"261 700 LINE",
"138 700 LINE",
"80 0 LINE"
);
}
);
width = 757;
},
{
anchors = (
{
name = _;
position = "{415, 0}";
},
{
name = bottom;
position = "{379, 0}";
},
{
name = eng;
position = "{564, 12}";
},
{
name = top;
position = "{415, 729}";
}
);
layerId = "BBDB329E-CE83-4304-A6B1-53EA5ACC004E";
paths = (
{
closed = 1;
nodes = (
"269 -27 LINE",
"248 617 LINE",
"196 606 LINE",
"458 -27 LINE",
"663 -27 LINE",
"706 754 LINE",
"561 754 LINE",
"518 238 LINE",
"278 727 LINE",
"113 727 LINE",
"51 -27 LINE"
);
}
);
width = 757;
}
);
unicode = 004E;
},
{
color = 6;
glyphname = O;
lastChange = "2019-09-02 02:16:03 +0000";
layers = (
{
anchors = (
{
name = abovecomb;
position = "{413, 811}";
},
{
name = bottom;
position = "{418, -54}";
},
{
name = center;
position = "{418, 387}";
},
{
name = horn;
position = "{641, 639}";
},
{
name = ogonek;
position = "{748, 10}";
},
{
name = polyomicron;
position = "{114, 672}";
},
{
name = top;
position = "{414, 815}";
},
{
name = topleft;
position = "{25, 700}";
},
{
name = topright;
position = "{810, 700}";
}
);
layerId = "BA196CD0-EE58-4274-B8DF-4393D3617A29";
paths = (
{
closed = 1;
nodes = (
"561 672 OFFCURVE",
"651 548 OFFCURVE",
"651 364 CURVE SMOOTH",
"651 213 OFFCURVE",
"561 173 OFFCURVE",
"418 173 CURVE SMOOTH",
"275 173 OFFCURVE",
"184 213 OFFCURVE",
"184 364 CURVE SMOOTH",
"184 548 OFFCURVE",
"275 672 OFFCURVE",
"418 672 CURVE SMOOTH"
);
},
{
closed = 1;
nodes = (
"213 742 OFFCURVE",
"80 594 OFFCURVE",
"80 364 CURVE SMOOTH",
"80 54 OFFCURVE",
"185 -12 OFFCURVE",
"418 -14 CURVE SMOOTH",
"672 -16 OFFCURVE",
"748 54 OFFCURVE",
"755 364 CURVE SMOOTH",
"760 594 OFFCURVE",
"623 742 OFFCURVE",
"418 742 CURVE SMOOTH"
);
}
);
width = 835;
},
{
anchors = (
{
name = abovecomb;
position = "{413, 811}";
},
{
name = bottom;
position = "{418, -54}";
},
{
name = center;
position = "{418, 387}";
},
{
name = horn;
position = "{641, 639}";
},
{
name = ogonek;
position = "{748, 10}";
},
{
name = polyomicron;
position = "{114, 672}";
},
{
name = top;
position = "{414, 815}";
},
{
name = topleft;
position = "{25, 700}";
},
{
name = topright;
position = "{810, 700}";
}
);
layerId = "BBDB329E-CE83-4304-A6B1-53EA5ACC004E";
paths = (
{
closed = 1;
nodes = (
"543 645 OFFCURVE",
"624 536 OFFCURVE",
"624 364 CURVE SMOOTH",
"624 245 OFFCURVE",
"568 200 OFFCURVE",
"418 200 CURVE SMOOTH",
"268 200 OFFCURVE",
"211 246 OFFCURVE",
"211 364 CURVE SMOOTH",
"211 536 OFFCURVE",
"293 645 OFFCURVE",
"418 645 CURVE SMOOTH"
);
},
{
closed = 1;
nodes = (
"197 769 OFFCURVE",
"53 608 OFFCURVE",
"53 364 CURVE SMOOTH",
"53 64 OFFCURVE",
"146 -39 OFFCURVE",
"418 -41 CURVE SMOOTH",
"695 -43 OFFCURVE",
"775 47 OFFCURVE",
"782 363 CURVE SMOOTH",
"787 606 OFFCURVE",
"640 769 OFFCURVE",
"418 769 CURVE SMOOTH"
);
}
);
width = 835;
}
);
unicode = 004F;
},
{
color = 6;
glyphname = P;
lastChange = "2019-09-02 02:16:03 +0000";
layers = (
{
anchors = (
{
name = bottom;
position = "{323, 0}";
},
{
name = top;
position = "{323, 700}";
},
{
name = top_hook;
position = "{-36, 455}";
}
);
layerId = "BA196CD0-EE58-4274-B8DF-4393D3617A29";
paths = (
{
closed = 1;
nodes = (
"441 651 OFFCURVE",
"480 584 OFFCURVE",
"480 549 CURVE SMOOTH",
"480 441 OFFCURVE",
"435 423 OFFCURVE",
"337 419 CURVE SMOOTH",
"203 413 LINE",
"203 651 LINE",
"311 651 LINE SMOOTH"
);
},
{
closed = 1;
nodes = (
"228 0 LINE",
"208 274 LINE",
"327 280 LINE SMOOTH",
"491 288 OFFCURVE",
"566 361 OFFCURVE",
"566 505 CURVE SMOOTH",
"566 601 OFFCURVE",
"491 716 OFFCURVE",
"307 716 CURVE SMOOTH",
"121 716 LINE",
"80 0 LINE"
);
}
);
width = 646;
},
{
anchors = (
{
name = bottom;
position = "{323, 0}";
},
{
name = top;
position = "{323, 700}";
},
{
name = top_hook;
position = "{-36, 455}";
}
);
layerId = "BBDB329E-CE83-4304-A6B1-53EA5ACC004E";
paths = (
{
closed = 1;
nodes = (
"392 624 OFFCURVE",
"453 590 OFFCURVE",
"453 549 CURVE SMOOTH",
"453 467 OFFCURVE",
"433 450 OFFCURVE",
"336 446 CURVE SMOOTH",
"230 441 LINE",
"230 624 LINE",
"311 624 LINE SMOOTH"
);
},
{
closed = 1;
nodes = (
"257 -27 LINE",
"237 248 LINE",
"328 253 LINE SMOOTH",
"505 262 OFFCURVE",
"593 345 OFFCURVE",
"593 505 CURVE SMOOTH",
"593 644 OFFCURVE",
"475 743 OFFCURVE",
"307 743 CURVE SMOOTH",
"96 743 LINE",
"51 -27 LINE"
);
}
);
width = 646;
}
);
unicode = 0050;
},
{
glyphname = Thorn;
lastChange = "2019-09-02 02:16:03 +0000";
layers = (
{
layerId = "BA196CD0-EE58-4274-B8DF-4393D3617A29";
paths = (
{
closed = 1;
nodes = (
"80 0 LINE",
"168 0 LINE",
"168 700 LINE",
"80 700 LINE"
);
},
{
closed = 1;
nodes = (
"301 144 OFFCURVE",
"480 245 OFFCURVE",
"480 371 CURVE SMOOTH",
"480 496 OFFCURVE",
"300 597 OFFCURVE",
"156 597 CURVE",
"92 459 OFFCURVE",
"90 282 OFFCURVE",
"156 144 CURVE"
);
},
{
closed = 1;
nodes = (
"155 231 OFFCURVE",
"107 329 OFFCURVE",
"107 375 CURVE SMOOTH",
"107 421 OFFCURVE",
"150 520 OFFCURVE",
"203 520 CURVE SMOOTH",
"255 520 OFFCURVE",
"409 421 OFFCURVE",
"409 375 CURVE SMOOTH",
"409 329 OFFCURVE",
"260 231 OFFCURVE",
"208 231 CURVE SMOOTH"
);
}
);
width = 560;
},
{
layerId = "BBDB329E-CE83-4304-A6B1-53EA5ACC004E";
paths = (
{
closed = 1;
nodes = (
"53 -27 LINE",
"195 -27 LINE",
"195 727 LINE",
"53 727 LINE"
);
},
{
closed = 1;
nodes = (
"156 117 LINE",
"334 117 OFFCURVE",
"507 240 OFFCURVE",
"507 371 CURVE SMOOTH",
"507 501 OFFCURVE",
"333 624 OFFCURVE",
"156 624 CURVE",
"132 608 LINE",
"63 461 OFFCURVE",
"63 275 OFFCURVE",
"132 132 CURVE"
);
},
{
closed = 1;
nodes = (
"180 258 OFFCURVE",
"134 331 OFFCURVE",
"134 375 CURVE SMOOTH",
"134 421 OFFCURVE",
"176 493 OFFCURVE",
"203 493 CURVE SMOOTH",
"244 493 OFFCURVE",
"382 400 OFFCURVE",
"382 375 CURVE SMOOTH",
"382 350 OFFCURVE",
"249 258 OFFCURVE",
"208 258 CURVE SMOOTH"
);
}
);
width = 560;
}
);
unicode = 00DE;
},
{
color = 6;
glyphname = Q;
lastChange = "2019-09-02 02:16:03 +0000";
layers = (
{
anchors = (
{
name = bottom;
position = "{435, 0}";
},
{
name = top;
position = "{435, 700}";
}
);
layerId = "BA196CD0-EE58-4274-B8DF-4393D3617A29";
paths = (
{
closed = 1;
nodes = (
"561 662 OFFCURVE",
"648 548 OFFCURVE",
"648 364 CURVE SMOOTH",
"648 288 OFFCURVE",
"619 185 OFFCURVE",
"589 185 CURVE SMOOTH",
"549 185 OFFCURVE",
"494 206 OFFCURVE",
"441 234 CURVE",
"408 158 LINE",
"355 156 LINE SMOOTH",
"299 154 OFFCURVE",
"187 153 OFFCURVE",
"187 364 CURVE SMOOTH",
"187 519 OFFCURVE",
"275 662 OFFCURVE",
"418 662 CURVE SMOOTH"
);
},
{
closed = 1;
nodes = (
"692 106 OFFCURVE",
"752 194 OFFCURVE",
"752 364 CURVE SMOOTH",
"752 594 OFFCURVE",
"623 742 OFFCURVE",
"418 742 CURVE SMOOTH",
"213 742 OFFCURVE",
"80 565 OFFCURVE",
"80 364 CURVE SMOOTH",
"80 40 OFFCURVE",
"215 -14 OFFCURVE",
"413 -14 CURVE SMOOTH",
"424 -14 OFFCURVE",
"433 -14 OFFCURVE",
"454 -12 CURVE",
"557 -129 LINE",
"789 -129 LINE",
"634 42 LINE"
);
}
);
width = 869;
},
{
anchors = (
{
name = bottom;
position = "{435, 0}";
},
{
name = top;
position = "{435, 700}";
}
);
layerId = "BBDB329E-CE83-4304-A6B1-53EA5ACC004E";
paths = (
{
closed = 1;
nodes = (
"544 635 OFFCURVE",
"621 535 OFFCURVE",
"621 364 CURVE SMOOTH",
"621 314 OFFCURVE",
"594 212 OFFCURVE",
"589 212 CURVE SMOOTH",
"553 212 OFFCURVE",
"496 233 OFFCURVE",
"428 272 CURVE",
"390 184 LINE",
"354 183 LINE SMOOTH",
"298 181 OFFCURVE",
"214 180 OFFCURVE",
"214 364 CURVE SMOOTH",
"214 519 OFFCURVE",
"301 635 OFFCURVE",
"418 635 CURVE SMOOTH"
);
},
{
closed = 1;
nodes = (
"746 134 OFFCURVE",
"779 232 OFFCURVE",
"779 364 CURVE SMOOTH",
"779 610 OFFCURVE",
"637 769 OFFCURVE",
"418 769 CURVE SMOOTH",
"210 769 OFFCURVE",
"53 593 OFFCURVE",
"53 364 CURVE SMOOTH",
"53 72 OFFCURVE",
"154 -41 OFFCURVE",
"413 -41 CURVE SMOOTH",
"421 -41 OFFCURVE",
"429 -41 OFFCURVE",
"443 -40 CURVE",
"545 -156 LINE",
"850 -156 LINE",
"670 42 LINE"
);
}
);
width = 869;
}
);
unicode = 0051;
},
{
color = 6;
glyphname = R;
lastChange = "2019-09-02 02:16:03 +0000";
layers = (
{
anchors = (
{
name = bottom;
position = "{320, 0}";
},
{
name = bottom_hook;
position = "{125, -20}";
},
{
name = top;
position = "{320, 729}";
}
);
layerId = "BA196CD0-EE58-4274-B8DF-4393D3617A29";
paths = (
{
closed = 1;
nodes = (
"494 373 OFFCURVE",
"536 423 OFFCURVE",
"536 519 CURVE SMOOTH",
"536 660 OFFCURVE",
"450 729 OFFCURVE",
"303 729 CURVE SMOOTH",
"125 729 LINE",
"80 0 LINE",
"237 0 LINE",
"220 282 LINE",
"272 291 LINE SMOOTH",
"332 301 OFFCURVE",
"439 294 OFFCURVE",
"434 187 CURVE SMOOTH",
"425 0 LINE",
"605 0 LINE",
"548 199 LINE SMOOTH",
"526 277 OFFCURVE",
"468 340 OFFCURVE",
"426 362 CURVE"
);
},
{
closed = 1;
nodes = (
"388 677 OFFCURVE",
"466 644 OFFCURVE",
"466 519 CURVE SMOOTH",
"466 456 OFFCURVE",
"388 405 OFFCURVE",
"313 405 CURVE SMOOTH",
"189 405 LINE",
"189 677 LINE",
"313 677 LINE SMOOTH"
);
}
);
width = 685;
},
{
anchors = (
{
name = bottom;
position = "{320, 0}";
},
{
name = bottom_hook;
position = "{125, -20}";
},
{
name = top;
position = "{320, 729}";
}
);
layerId = "BBDB329E-CE83-4304-A6B1-53EA5ACC004E";
paths = (
{
closed = 1;
nodes = (
"535 382 OFFCURVE",
"563 439 OFFCURVE",
"563 519 CURVE SMOOTH",
"563 671 OFFCURVE",
"469 756 OFFCURVE",
"303 756 CURVE SMOOTH",
"100 756 LINE",
"51 -27 LINE",
"266 -27 LINE",
"248 260 LINE",
"277 264 LINE SMOOTH",
"360 278 OFFCURVE",
"410 250 OFFCURVE",
"407 188 CURVE SMOOTH",
"397 -27 LINE",
"641 -27 LINE",
"574 206 LINE SMOOTH",
"559 260 OFFCURVE",
"524 316 OFFCURVE",
"483 353 CURVE"
);
},
{
closed = 1;
nodes = (
"397 650 OFFCURVE",
"439 607 OFFCURVE",
"439 519 CURVE SMOOTH",
"439 476 OFFCURVE",
"378 432 OFFCURVE",
"313 432 CURVE SMOOTH",
"216 432 LINE",
"216 650 LINE",
"313 650 LINE SMOOTH"
);
}
);
width = 685;
}
);
unicode = 0052;
},
{
color = 6;
glyphname = S;
lastChange = "2019-09-02 02:39:39 +0000";
layers = (
{
anchors = (
{
name = bottom;
position = "{375, 13}";
},
{
name = top;
position = "{375, 729}";
}
);
layerId = "BA196CD0-EE58-4274-B8DF-4393D3617A29";
paths = (
{
closed = 1;
nodes = (
"493 737 OFFCURVE",
"451 742 OFFCURVE",
"383 742 CURVE SMOOTH",
"223 742 OFFCURVE",
"127 663 OFFCURVE",
"127 534 CURVE SMOOTH",
"127 423 OFFCURVE",
"189 364 OFFCURVE",
"336 335 CURVE SMOOTH",
"396 323 LINE SMOOTH",
"496 303 OFFCURVE",
"565 268 OFFCURVE",
"562 208 CURVE SMOOTH",
"557 110 OFFCURVE",
"493 100 OFFCURVE",
"393 100 CURVE SMOOTH",
"338 100 OFFCURVE",
"240 138 OFFCURVE",
"202 167 CURVE",
"80 85 LINE",
"144 -14 OFFCURVE",
"232 -14 OFFCURVE",
"361 -14 CURVE SMOOTH",
"596 -14 OFFCURVE",
"680 -14 OFFCURVE",
"680 201 CURVE SMOOTH",
"680 320 OFFCURVE",
"575 387 OFFCURVE",
"425 417 CURVE SMOOTH",
"366 429 LINE SMOOTH",
"279 447 OFFCURVE",
"201 485 OFFCURVE",
"201 549 CURVE SMOOTH",
"201 626 OFFCURVE",
"287 662 OFFCURVE",
"394 662 CURVE SMOOTH",
"464 662 OFFCURVE",
"477 659 OFFCURVE",
"526 646 CURVE",
"567 720 LINE"
);
}
);
width = 760;
},
{
anchors = (
{
name = bottom;
position = "{375, 13}";
},
{
name = top;
position = "{375, 759}";
}
);
layerId = "BBDB329E-CE83-4304-A6B1-53EA5ACC004E";
paths = (
{
closed = 1;
nodes = (
"509 762 OFFCURVE",
"463 769 OFFCURVE",
"383 769 CURVE SMOOTH",
"209 769 OFFCURVE",
"100 679 OFFCURVE",
"100 534 CURVE SMOOTH",
"100 409 OFFCURVE",
"172 340 OFFCURVE",
"331 309 CURVE SMOOTH",
"391 297 LINE SMOOTH",
"490 277 OFFCURVE",
"537 246 OFFCURVE",
"535 209 CURVE SMOOTH",
"532 143 OFFCURVE",
"504 127 OFFCURVE",
"393 127 CURVE SMOOTH",
"341 127 OFFCURVE",
"228 170 OFFCURVE",
"205 201 CURVE",
"44 93 LINE",
"116 -41 OFFCURVE",
"224 -41 OFFCURVE",
"361 -41 CURVE SMOOTH",
"596 -41 OFFCURVE",
"707 -41 OFFCURVE",
"707 201 CURVE SMOOTH",
"707 324 OFFCURVE",
"610 408 OFFCURVE",
"430 443 CURVE SMOOTH",
"371 455 LINE SMOOTH",
"279 475 OFFCURVE",
"228 509 OFFCURVE",
"228 549 CURVE SMOOTH",
"228 601 OFFCURVE",
"289 635 OFFCURVE",
"394 635 CURVE SMOOTH",
"469 635 OFFCURVE",
"472 632 OFFCURVE",
"539 615 CURVE",
"608 738 LINE"
);
}
);
width = 760;
}
);
unicode = 0053;
},
{
glyphname = Saltillo;
lastChange = "2019-09-02 02:16:03 +0000";
layers = (
{
layerId = "BA196CD0-EE58-4274-B8DF-4393D3617A29";
paths = (
{
closed = 1;
nodes = (
"262 120 LINE",
"365 120 LINE",
"416 763 LINE",
"184 763 LINE"
);
}
);
width = 600;
},
{
layerId = "BBDB329E-CE83-4304-A6B1-53EA5ACC004E";
paths = (
{
closed = 1;
nodes = (
"238 93 LINE",
"390 93 LINE",
"445 790 LINE",
"154 790 LINE"
);
}
);
width = 600;
}
);
unicode = A78B;
},
{
color = 6;
glyphname = T;
lastChange = "2019-09-02 02:41:58 +0000";
layers = (
{
anchors = (
{
name = bottom;
position = "{388, 0}";
},
{
name = bottom_hook;
position = "{417, -29}";
},
{
name = center;
position = "{388, 365}";
},
{
name = hook_top;
position = "{107, 691}";
},
{
name = top;
position = "{388, 729}";
}
);
layerId = "BA196CD0-EE58-4274-B8DF-4393D3617A29";
paths = (
{
closed = 1;
nodes = (
"339 656 LINE",
"320 0 LINE",
"458 0 LINE",
"438 656 LINE",
"697 646 LINE",
"697 729 LINE",
"80 729 LINE",
"80 646 LINE"
);
}
);
width = 777;
},
{
anchors = (
{
name = bottom;
position = "{388, -30}";
},
{
name = bottom_hook;
position = "{417, -29}";
},
{
name = center;
position = "{388, 365}";
},
{
name = hook_top;
position = "{133, 691}";
},
{
name = top;
position = "{388, 763}";
}
);
layerId = "BBDB329E-CE83-4304-A6B1-53EA5ACC004E";
paths = (
{
closed = 1;
nodes = (
"311 628 LINE",
"292 -27 LINE",
"486 -27 LINE",
"466 628 LINE",
"724 618 LINE",
"724 756 LINE",
"53 756 LINE",
"53 618 LINE"
);
}
);
width = 777;
}
);
unicode = 0054;
},
{
color = 6;
glyphname = U;
lastChange = "2019-09-02 02:47:13 +0000";
layers = (
{
anchors = (
{
name = bottom;
position = "{378, 0}";
},
{
name = horn;
position = "{688, 672}";
},
{
name = ogonek;
position = "{526, 35}";
},
{
name = top;
position = "{380, 809}";
},
{
name = top_hook;
position = "{621, 663}";
},
{
name = topright;
position = "{731, 700}";
}
);
layerId = "BA196CD0-EE58-4274-B8DF-4393D3617A29";
paths = (
{
closed = 1;
nodes = (
"106 -14 OFFCURVE",
"191 -14 OFFCURVE",
"376 -14 CURVE SMOOTH",
"559 -14 OFFCURVE",
"640 -14 OFFCURVE",
"654 274 CURVE SMOOTH",
"676 729 LINE",
"546 729 LINE",
"560 354 LINE SMOOTH",
"568 142 OFFCURVE",
"502 142 OFFCURVE",
"376 142 CURVE SMOOTH",
"249 142 OFFCURVE",
"182 142 OFFCURVE",
"190 354 CURVE SMOOTH",
"204 729 LINE",
"80 729 LINE",
"96 274 LINE SMOOTH"
);
}
);
width = 756;
},
{
anchors = (
{
name = bottom;
position = "{376, -41}";
},
{
name = horn;
position = "{688, 672}";
},
{
name = ogonek;
position = "{526, 35}";
},
{
name = top;
position = "{380, 858}";
},
{
name = top_hook;
position = "{601, 685}";
},
{
name = topright;
position = "{731, 700}";
}
);
layerId = "BBDB329E-CE83-4304-A6B1-53EA5ACC004E";
paths = (
{
closed = 1;
nodes = (
"80 -41 OFFCURVE",
"191 -41 OFFCURVE",
"376 -41 CURVE SMOOTH",
"559 -41 OFFCURVE",
"666 -41 OFFCURVE",
"681 273 CURVE SMOOTH",
"704 756 LINE",
"518 756 LINE",
"533 353 LINE SMOOTH",
"540 169 OFFCURVE",
"502 169 OFFCURVE",
"376 169 CURVE SMOOTH",
"249 169 OFFCURVE",
"210 169 OFFCURVE",
"217 353 CURVE SMOOTH",
"232 756 LINE",
"52 756 LINE",
"69 273 LINE SMOOTH"
);
}
);
width = 756;
}
);
unicode = 0055;
},
{
color = 6;
glyphname = V;
lastChange = "2019-09-02 02:47:31 +0000";
layers = (
{
anchors = (
{
name = bottom;
position = "{414, 0}";
},
{
name = top;
position = "{414, 700}";
},
{
name = top_hook;
position = "{677, 622}";
}
);
layerId = "BA196CD0-EE58-4274-B8DF-4393D3617A29";
paths = (
{
closed = 1;
nodes = (
"748 729 LINE",
"646 729 LINE",
"428 214 LINE",
"381 214 LINE",
"183 729 LINE",
"80 729 LINE",
"307 0 LINE",
"511 0 LINE"
);
}
);
width = 828;
},
{
anchors = (
{
name = bottom;
position = "{414, 0}";
},
{
name = top;
position = "{414, 752}";
},
{
name = top_hook;
position = "{677, 622}";
}
);
layerId = "BBDB329E-CE83-4304-A6B1-53EA5ACC004E";
paths = (
{
closed = 1;
nodes = (
"785 756 LINE",
"628 756 LINE",
"410 241 LINE",
"400 241 LINE",
"202 756 LINE",
"43 756 LINE",
"287 -27 LINE",
"531 -27 LINE"
);
}
);
width = 828;
}
);
unicode = 0056;
},
{
glyphname = Gammaafrican;
lastChange = "2019-09-02 02:16:03 +0000";
layers = (
{
layerId = "BA196CD0-EE58-4274-B8DF-4393D3617A29";
paths = (
{
closed = 1;
nodes = (
"265 749 CURVE SMOOTH",
"253 771 OFFCURVE",
"249 775 OFFCURVE",
"232 800 CURVE",
"73 800 LINE",
"86 780 OFFCURVE",
"111 738 OFFCURVE",
"119 726 CURVE SMOOTH",
"547 16 OFFCURVE",
"624 -78 OFFCURVE",
"457 -73 CURVE SMOOTH",
"245 -67 OFFCURVE",
"350 98 OFFCURVE",
"806 713 CURVE SMOOTH",
"813 723 OFFCURVE",
"862 783 OFFCURVE",
"875 800 CURVE",
"691 800 LINE",
"679 783 OFFCURVE",
"681 789 OFFCURVE",
"671 772 CURVE SMOOTH",
"256 93 OFFCURVE",
"-67 -194 OFFCURVE",
"461 -200 CURVE SMOOTH",
"898 -205 OFFCURVE",
"643 27 OFFCURVE"
);
}
);
width = 948;
},
{
layerId = "BBDB329E-CE83-4304-A6B1-53EA5ACC004E";
paths = (
{
closed = 1;
nodes = (
"949 -233 OFFCURVE",
"655 62 OFFCURVE",
"289 762 CURVE SMOOTH",
"273 791 OFFCURVE",
"268 794 OFFCURVE",
"246 827 CURVE",
"23 827 LINE",
"63 767 OFFCURVE",
"87 725 OFFCURVE",
"96 712 CURVE",
"529 -6 OFFCURVE",
"572 -49 OFFCURVE",
"458 -46 CURVE SMOOTH",
"305 -42 OFFCURVE",
"348 49 OFFCURVE",
"828 697 CURVE",
"823 690 OFFCURVE",
"846 716 OFFCURVE",
"939 827 CURVE",
"677 827 LINE",
"657 797 OFFCURVE",
"660 806 OFFCURVE",
"648 786 CURVE SMOOTH",
"245 127 OFFCURVE",
"-119 -220 OFFCURVE",
"461 -227 CURVE SMOOTH"
);
}
);
width = 948;
}
);
unicode = 0194;
},
{
color = 6;
glyphname = W;
lastChange = "2019-09-02 02:16:03 +0000";
layers = (
{
anchors = (
{
name = bottom;
position = "{542, 0}";
},
{
name = top;
position = "{539, 729}";
},
{
name = top_hook;
position = "{1066, 500}";
}
);
layerId = "BA196CD0-EE58-4274-B8DF-4393D3617A29";
paths = (
{
closed = 1;
nodes = (
"397 0 LINE",
"542 394 LINE",
"676 0 LINE",
"820 0 LINE",
"1003 729 LINE",
"908 729 LINE",
"740 196 LINE",
"582 543 LINE",
"496 543 LINE",
"323 206 LINE",
"175 729 LINE",
"80 729 LINE",
"243 0 LINE"
);
}
);
width = 1083;
},
{
anchors = (
{
name = bottom;
position = "{542, 0}";
},
{
name = top;
position = "{539, 729}";
},
{
name = top_hook;
position = "{1066, 500}";
}
);
layerId = "BBDB329E-CE83-4304-A6B1-53EA5ACC004E";
paths = (
{
closed = 1;
nodes = (
"416 -27 LINE",
"541 313 LINE",
"657 -27 LINE",
"841 -27 LINE",
"1038 756 LINE",
"888 756 LINE",
"735 271 LINE",
"599 570 LINE",
"480 570 LINE",
"330 279 LINE",
"195 756 LINE",
"46 756 LINE",
"221 -27 LINE"
);
}
);
width = 1083;
}
);
unicode = 0057;
},
{
color = 6;
glyphname = X;
lastChange = "2019-09-02 02:16:03 +0000";
layers = (
{
anchors = (
{
name = bottom;
position = "{395, 0}";
},
{
name = bottom_hook;
position = "{618, 21}";
},
{
name = top;
position = "{395, 700}";
}
);
layerId = "BA196CD0-EE58-4274-B8DF-4393D3617A29";
paths = (
{
closed = 1;
nodes = (
"550 0 LINE",
"709 0 LINE",
"207 729 LINE",
"118 729 LINE"
);
},
{
closed = 1;
nodes = (
"80 2 LINE",
"241 0 LINE",
"685 730 LINE",
"597 730 LINE"
);
}
);
width = 789;
},
{
anchors = (
{
name = bottom;
position = "{395, 0}";
},
{
name = bottom_hook;
position = "{618, 21}";
},
{
name = top;
position = "{395, 700}";
}
);
layerId = "BBDB329E-CE83-4304-A6B1-53EA5ACC004E";
paths = (
{
closed = 1;
nodes = (
"535 -27 LINE",
"760 -27 LINE",
"221 756 LINE",
"71 756 LINE"
);
},
{
closed = 1;
nodes = (
"28 -24 LINE",
"256 -27 LINE",
"733 757 LINE",
"583 757 LINE"
);
}
);
width = 789;
}
);
unicode = 0058;
},
{
color = 6;
glyphname = Y;
lastChange = "2019-09-02 02:43:21 +0000";
layers = (
{
anchors = (
{
name = bottom;
position = "{382, 0}";
},
{
name = top;
position = "{382, 785}";
},
{
name = top_hook;
position = "{735, 500}";
},
{
name = topleft;
position = "{25, 700}";
}
);
layerId = "BA196CD0-EE58-4274-B8DF-4393D3617A29";
paths = (
{
closed = 1;
nodes = (
"314 0 LINE",
"447 0 LINE",
"447 250 LINE",
"684 729 LINE",
"578 729 LINE",
"383 356 LINE",
"186 729 LINE",
"80 729 LINE",
"314 250 LINE"
);
}
);
width = 764;
},
{
anchors = (
{
name = bottom;
position = "{382, 0}";
},
{
name = top;
position = "{375, 829}";
},
{
name = top_hook;
position = "{735, 500}";
},
{
name = topleft;
position = "{25, 700}";
}
);
layerId = "BBDB329E-CE83-4304-A6B1-53EA5ACC004E";
paths = (
{
closed = 1;
nodes = (
"287 -27 LINE",
"474 -27 LINE",
"474 244 LINE",
"727 756 LINE",
"562 756 LINE",
"383 414 LINE",
"202 756 LINE",
"37 756 LINE",
"287 244 LINE"
);
}
);
width = 764;
}
);
unicode = 0059;
},
{
color = 6;
glyphname = Z;
lastChange = "2019-09-02 02:21:58 +0000";
layers = (
{
anchors = (
{
name = bottom;
position = "{403, 0}";
},
{
name = center;
position = "{403, 350}";
},
{
name = top;
position = "{400, 729}";
}
);
layerId = "BA196CD0-EE58-4274-B8DF-4393D3617A29";
paths = (
{
closed = 1;
nodes = (
"152 681 LINE",
"725 681 LINE",
"725 606 LINE",
"203 146 LINE",
"656 146 LINE",
"703 6 LINE",
"80 0 LINE",
"80 139 LINE",
"602 598 LINE",
"197 604 LINE"
);
}
);
width = 805;
},
{
anchors = (
{
name = bottom;
position = "{403, 0}";
},
{
name = center;
position = "{403, 350}";
},
{
name = top;
position = "{400, 729}";
}
);
layerId = "BBDB329E-CE83-4304-A6B1-53EA5ACC004E";
paths = (
{
closed = 1;
nodes = (
"531 572 LINE",
"53 151 LINE",
"53 -28 LINE",
"741 -20 LINE",
"676 173 LINE",
"275 173 LINE",
"752 594 LINE",
"752 708 LINE",
"103 708 LINE",
"182 577 LINE"
);
}
);
width = 805;
}
);
unicode = 005A;
},
{
glyphname = Gsmallhook;
lastChange = "2019-09-02 02:16:03 +0000";
layers = (
{
anchors = (
{
name = _top_hook;
position = "{846, 66}";
},
{
name = center;
position = "{850, 299}";
}
);
components = (
{
name = Gsmall;
transform = "{1, 0, 0, 1, 158, 0}";
}
);
layerId = "BA196CD0-EE58-4274-B8DF-4393D3617A29";
paths = (
{
closed = 1;
nodes = (
"528 683 OFFCURVE",
"504 677 OFFCURVE",
"500 565 CURVE SMOOTH",
"498 515 OFFCURVE",
"498 531 OFFCURVE",
"498 461 CURVE",
"583 461 LINE",
"583 492 OFFCURVE",
"583 517 OFFCURVE",
"583 546 CURVE SMOOTH",
"583 594 OFFCURVE",
"586 597 OFFCURVE",
"654 597 CURVE",
"654 682 LINE"
);
}
);
width = 883;
},
{
anchors = (
{
name = _top_hook;
position = "{846, 66}";
},
{
name = center;
position = "{850, 299}";
}
);
components = (
{
name = Gsmall;
transform = "{1, 0, 0, 1, 158, 0}";
}
);
layerId = "BBDB329E-CE83-4304-A6B1-53EA5ACC004E";
paths = (
{
closed = 1;
nodes = (
"510 712 OFFCURVE",
"478 696 OFFCURVE",
"473 566 CURVE SMOOTH",
"471 511 OFFCURVE",
"471 536 OFFCURVE",
"471 434 CURVE",
"610 434 LINE",
"610 479 OFFCURVE",
"610 508 OFFCURVE",
"610 546 CURVE SMOOTH",
"610 582 OFFCURVE",
"598 567 OFFCURVE",
"681 571 CURVE",
"681 709 LINE"
);
}
);
width = 883;
}
);
unicode = 029B;
},
{
color = 7;
glyphname = a;
lastChange = "2019-09-02 02:45:26 +0000";
layers = (
{
anchors = (
{
name = abovecomb;
position = "{314, 580}";
},
{
name = bottom;
position = "{313, 0}";
},
{
name = dotbelow;
position = "{310, -8}";
},
{
name = ogonek;
position = "{538, 50}";
},
{
name = top;
position = "{317, 581}";
}
);
background = {
components = (
{
alignment = -1;
name = "";
transform = "{1, 0, 0, 1, 49, 150}";
},
{
alignment = -1;
name = "";
transform = "{1, 0, 0, 1, 49, 200}";
},
{
alignment = -1;
name = "";
transform = "{1, 0, 0, 1, 99, 50}";
},
{
alignment = -1;
name = "";
transform = "{1, 0, 0, 1, 99, 100}";
},
{
alignment = -1;
name = "";
transform = "{1, 0, 0, 1, 99, 150}";
},
{
alignment = -1;
name = "";
transform = "{1, 0, 0, 1, 99, 200}";
},
{
alignment = -1;
name = "";
transform = "{1, 0, 0, 1, 99, 250}";
},
{
alignment = -1;
name = "";
transform = "{1, 0, 0, 1, 99, 300}";
},
{
alignment = -1;
name = "";
transform = "{1, 0, 0, 1, 99, 350}";
},
{
alignment = -1;
name = "";
transform = "{1, 0, 0, 1, 149, 0}";
},
{
alignment = -1;
name = "";
transform = "{1, 0, 0, 1, 149, 50}";
},
{
alignment = -1;
name = "";
transform = "{1, 0, 0, 1, 149, 100}";
},
{
alignment = -1;
name = "";
transform = "{1, 0, 0, 1, 149, 400}";
},
{
alignment = -1;
name = "";
transform = "{1, 0, 0, 1, 199, 0}";
},
{
alignment = -1;
name = "";
transform = "{1, 0, 0, 1, 199, 50}";
},
{
alignment = -1;
name = "";
transform = "{1, 0, 0, 1, 199, 100}";
},
{
alignment = -1;
name = "";
transform = "{1, 0, 0, 1, 199, 450}";
},
{
alignment = -1;
name = "";
transform = "{1, 0, 0, 1, 249, 0}";
},
{
alignment = -1;
name = "";
transform = "{1, 0, 0, 1, 249, 50}";
},
{
alignment = -1;
name = "";
transform = "{1, 0, 0, 1, 249, 100}";
},
{
alignment = -1;
name = "";
transform = "{1, 0, 0, 1, 249, 450}";
},
{
alignment = -1;
name = "";
transform = "{1, 0, 0, 1, 299, 0}";
},
{
alignment = -1;
name = "";
transform = "{1, 0, 0, 1, 299, 50}";
},
{
alignment = -1;
name = "";
transform = "{1, 0, 0, 1, 299, 100}";
},
{
alignment = -1;
name = "";
transform = "{1, 0, 0, 1, 299, 450}";
},
{
alignment = -1;
name = "";
transform = "{1, 0, 0, 1, 349, 0}";
},
{
alignment = -1;
name = "";
transform = "{1, 0, 0, 1, 349, 50}";
},
{
alignment = -1;
name = "";
transform = "{1, 0, 0, 1, 349, 100}";
},
{
alignment = -1;
name = "";
transform = "{1, 0, 0, 1, 349, 450}";
},
{
alignment = -1;
name = "";
transform = "{1, 0, 0, 1, 399, 0}";
},
{
alignment = -1;
name = "";
transform = "{1, 0, 0, 1, 399, 50}";
},
{
alignment = -1;
name = "";
transform = "{1, 0, 0, 1, 399, 100}";
},
{
alignment = -1;
name = "";
transform = "{1, 0, 0, 1, 399, 450}";
},
{
alignment = -1;
name = "";
transform = "{1, 0, 0, 1, 449, 50}";
},
{
alignment = -1;
name = "";
transform = "{1, 0, 0, 1, 449, 100}";
},
{
alignment = -1;
name = "";
transform = "{1, 0, 0, 1, 449, 150}";
},
{
alignment = -1;
name = "";
transform = "{1, 0, 0, 1, 449, 200}";
},
{
alignment = -1;
name = "";
transform = "{1, 0, 0, 1, 449, 250}";
},
{
alignment = -1;
name = "";
transform = "{1, 0, 0, 1, 449, 300}";
},
{
alignment = -1;
name = "";
transform = "{1, 0, 0, 1, 449, 350}";
},
{
alignment = -1;
name = "";
transform = "{1, 0, 0, 1, 449, 400}";
},
{
alignment = -1;
name = "";
transform = "{1, 0, 0, 1, 449, 450}";
},
{
alignment = -1;
name = "";
transform = "{1, 0, 0, 1, 449, 500}";
},
{
alignment = -1;
name = "";
transform = "{1, 0, 0, 1, 499, 0}";
},
{
alignment = -1;
name = "";
transform = "{1, 0, 0, 1, 499, 50}";
},
{
alignment = -1;
name = "";
transform = "{1, 0, 0, 1, 499, 100}";
},
{
alignment = -1;
name = "";
transform = "{1, 0, 0, 1, 499, 150}";
},
{
alignment = -1;
name = "";
transform = "{1, 0, 0, 1, 499, 200}";
},
{
alignment = -1;
name = "";
transform = "{1, 0, 0, 1, 499, 250}";
},
{
alignment = -1;
name = "";
transform = "{1, 0, 0, 1, 499, 300}";
},
{
alignment = -1;
name = "";
transform = "{1, 0, 0, 1, 499, 350}";
}
);
paths = (
{
closed = 1;
nodes = (
"458 525 LINE",
"509 525 LINE",
"576 0 LINE",
"486 0 LINE",
"486 82 LINE",
"448 17 OFFCURVE",
"376 -14 OFFCURVE",
"296 -14 CURVE SMOOTH",
"134 -14 OFFCURVE",
"34 105 OFFCURVE",
"79 273 CURVE SMOOTH",
"118 419 OFFCURVE",
"205 525 OFFCURVE",
"296 525 CURVE SMOOTH",
"367 525 OFFCURVE",
"434 504 OFFCURVE",
"470 446 CURVE"
);
},
{
closed = 1;
nodes = (
"111 175 OFFCURVE",
"134 136 OFFCURVE",
"284 138 CURVE SMOOTH",
"465 140 OFFCURVE",
"469 170 OFFCURVE",
"469 299 CURVE SMOOTH",
"469 448 OFFCURVE",
"362 476 OFFCURVE",
"295 476 CURVE",
"234 476 OFFCURVE",
"175 434 OFFCURVE",
"141 296 CURVE SMOOTH"
);
}
);
};
layerId = "BA196CD0-EE58-4274-B8DF-4393D3617A29";
paths = (
{
closed = 1;
nodes = (
"434 504 OFFCURVE",
"367 525 OFFCURVE",
"296 525 CURVE SMOOTH",
"205 525 OFFCURVE",
"116 404 OFFCURVE",
"86 251 CURVE SMOOTH",
"57 101 OFFCURVE",
"139 -14 OFFCURVE",
"296 -14 CURVE SMOOTH",
"376 -14 OFFCURVE",
"448 17 OFFCURVE",
"486 82 CURVE",
"486 0 LINE",
"576 0 LINE",
"509 525 LINE",
"458 525 LINE",
"470 446 LINE"
);
},
{
closed = 1;
nodes = (
"189 434 OFFCURVE",
"234 476 OFFCURVE",
"295 476 CURVE",
"362 476 OFFCURVE",
"469 448 OFFCURVE",
"469 299 CURVE SMOOTH",
"469 170 OFFCURVE",
"465 138 OFFCURVE",
"284 138 CURVE SMOOTH",
"136 138 OFFCURVE",
"125 175 OFFCURVE",
"155 296 CURVE SMOOTH"
);
}
);
width = 656;
},
{
anchors = (
{
name = abovecomb;
position = "{314, 599}";
},
{
name = bottom;
position = "{313, 20}";
},
{
name = dotbelow;
position = "{295, -76}";
},
{
name = ogonek;
position = "{557, 0}";
},
{
name = top;
position = "{317, 597}";
}
);
background = {
components = (
{
alignment = -1;
name = "";
transform = "{1, 0, 0, 1, 49, 150}";
},
{
alignment = -1;
name = "";
transform = "{1, 0, 0, 1, 49, 200}";
},
{
alignment = -1;
name = "";
transform = "{1, 0, 0, 1, 99, 50}";
},
{
alignment = -1;
name = "";
transform = "{1, 0, 0, 1, 99, 100}";
},
{
alignment = -1;
name = "";
transform = "{1, 0, 0, 1, 99, 150}";
},
{
alignment = -1;
name = "";
transform = "{1, 0, 0, 1, 99, 200}";
},
{
alignment = -1;
name = "";
transform = "{1, 0, 0, 1, 99, 250}";
},
{
alignment = -1;
name = "";
transform = "{1, 0, 0, 1, 99, 300}";
},
{
alignment = -1;
name = "";
transform = "{1, 0, 0, 1, 99, 350}";
},
{
alignment = -1;
name = "";
transform = "{1, 0, 0, 1, 149, 0}";
},
{
alignment = -1;
name = "";
transform = "{1, 0, 0, 1, 149, 50}";
},
{
alignment = -1;
name = "";
transform = "{1, 0, 0, 1, 149, 100}";
},
{
alignment = -1;
name = "";
transform = "{1, 0, 0, 1, 149, 400}";
},
{
alignment = -1;
name = "";
transform = "{1, 0, 0, 1, 199, 0}";
},
{
alignment = -1;
name = "";
transform = "{1, 0, 0, 1, 199, 50}";
},
{
alignment = -1;
name = "";
transform = "{1, 0, 0, 1, 199, 100}";
},
{
alignment = -1;
name = "";
transform = "{1, 0, 0, 1, 199, 450}";
},
{
alignment = -1;
name = "";
transform = "{1, 0, 0, 1, 249, 0}";
},
{
alignment = -1;
name = "";
transform = "{1, 0, 0, 1, 249, 50}";
},
{
alignment = -1;
name = "";
transform = "{1, 0, 0, 1, 249, 100}";
},
{
alignment = -1;
name = "";
transform = "{1, 0, 0, 1, 249, 450}";
},
{
alignment = -1;
name = "";
transform = "{1, 0, 0, 1, 299, 0}";
},
{
alignment = -1;
name = "";
transform = "{1, 0, 0, 1, 299, 50}";
},
{
alignment = -1;
name = "";
transform = "{1, 0, 0, 1, 299, 100}";
},
{
alignment = -1;
name = "";
transform = "{1, 0, 0, 1, 299, 450}";
},
{
alignment = -1;
name = "";
transform = "{1, 0, 0, 1, 349, 0}";
},
{
alignment = -1;
name = "";
transform = "{1, 0, 0, 1, 349, 50}";
},
{
alignment = -1;
name = "";
transform = "{1, 0, 0, 1, 349, 100}";
},
{
alignment = -1;
name = "";
transform = "{1, 0, 0, 1, 349, 450}";
},
{
alignment = -1;
name = "";
transform = "{1, 0, 0, 1, 399, 0}";
},
{
alignment = -1;
name = "";
transform = "{1, 0, 0, 1, 399, 50}";
},
{
alignment = -1;
name = "";
transform = "{1, 0, 0, 1, 399, 100}";
},
{
alignment = -1;
name = "";
transform = "{1, 0, 0, 1, 399, 450}";
},
{
alignment = -1;
name = "";
transform = "{1, 0, 0, 1, 449, 50}";
},
{
alignment = -1;
name = "";
transform = "{1, 0, 0, 1, 449, 100}";
},
{
alignment = -1;
name = "";
transform = "{1, 0, 0, 1, 449, 150}";
},
{
alignment = -1;
name = "";
transform = "{1, 0, 0, 1, 449, 200}";
},
{
alignment = -1;
name = "";
transform = "{1, 0, 0, 1, 449, 250}";
},
{
alignment = -1;
name = "";
transform = "{1, 0, 0, 1, 449, 300}";
},
{
alignment = -1;
name = "";
transform = "{1, 0, 0, 1, 449, 350}";
},
{
alignment = -1;
name = "";
transform = "{1, 0, 0, 1, 449, 400}";
},
{
alignment = -1;
name = "";
transform = "{1, 0, 0, 1, 449, 450}";
},
{
alignment = -1;
name = "";
transform = "{1, 0, 0, 1, 449, 500}";
},
{
alignment = -1;
name = "";
transform = "{1, 0, 0, 1, 499, 0}";
},
{
alignment = -1;
name = "";
transform = "{1, 0, 0, 1, 499, 50}";
},
{
alignment = -1;
name = "";
transform = "{1, 0, 0, 1, 499, 100}";
},
{
alignment = -1;
name = "";
transform = "{1, 0, 0, 1, 499, 150}";
},
{
alignment = -1;
name = "";
transform = "{1, 0, 0, 1, 499, 200}";
},
{
alignment = -1;
name = "";
transform = "{1, 0, 0, 1, 499, 250}";
},
{
alignment = -1;
name = "";
transform = "{1, 0, 0, 1, 499, 300}";
},
{
alignment = -1;
name = "";
transform = "{1, 0, 0, 1, 499, 350}";
}
);
paths = (
{
closed = 1;
nodes = (
"458 525 LINE",
"509 525 LINE",
"576 0 LINE",
"486 0 LINE",
"486 82 LINE",
"448 17 OFFCURVE",
"376 -14 OFFCURVE",
"296 -14 CURVE SMOOTH",
"134 -14 OFFCURVE",
"34 105 OFFCURVE",
"79 273 CURVE SMOOTH",
"118 419 OFFCURVE",
"205 525 OFFCURVE",
"296 525 CURVE SMOOTH",
"367 525 OFFCURVE",
"434 504 OFFCURVE",
"470 446 CURVE"
);
},
{
closed = 1;
nodes = (
"111 175 OFFCURVE",
"134 136 OFFCURVE",
"284 138 CURVE SMOOTH",
"465 140 OFFCURVE",
"469 170 OFFCURVE",
"469 299 CURVE SMOOTH",
"469 448 OFFCURVE",
"362 476 OFFCURVE",
"295 476 CURVE",
"234 476 OFFCURVE",
"175 434 OFFCURVE",
"141 296 CURVE SMOOTH"
);
}
);
};
layerId = "BBDB329E-CE83-4304-A6B1-53EA5ACC004E";
paths = (
{
closed = 1;
nodes = (
"395 541 OFFCURVE",
"349 552 OFFCURVE",
"296 552 CURVE SMOOTH",
"192 552 OFFCURVE",
"93 426 OFFCURVE",
"59 256 CURVE SMOOTH",
"26 85 OFFCURVE",
"126 -41 OFFCURVE",
"296 -41 CURVE SMOOTH",
"360 -41 OFFCURVE",
"417 -23 OFFCURVE",
"459 11 CURVE",
"459 -27 LINE",
"607 -27 LINE",
"533 552 LINE",
"427 552 LINE",
"431 520 LINE"
);
},
{
closed = 1;
nodes = (
"210 405 OFFCURVE",
"243 449 OFFCURVE",
"295 449 CURVE SMOOTH",
"390 449 OFFCURVE",
"442 396 OFFCURVE",
"442 299 CURVE SMOOTH",
"442 173 OFFCURVE",
"435 165 OFFCURVE",
"284 165 CURVE SMOOTH",
"163 165 OFFCURVE",
"154 178 OFFCURVE",
"181 290 CURVE SMOOTH"
);
}
);
width = 656;
}
);
leftKerningGroup = Round;
unicode = 0061;
},
{
color = 7;
glyphname = b;
lastChange = "2019-09-02 02:16:03 +0000";
layers = (
{
anchors = (
{
name = _hook_top;
position = "{130, 778}";
},
{
name = bottom;
position = "{327, -37}";
},
{
name = top;
position = "{327, 800}";
},
{
name = top_hook;
position = "{128, 717}";
}
);
hints = (
{
place = "{99, 65}";
type = Stem;
}
);
layerId = "BA196CD0-EE58-4274-B8DF-4393D3617A29";
paths = (
{
closed = 1;
nodes = (
"502 193 OFFCURVE",
"449 152 OFFCURVE",
"369 146 CURVE",
"239 146 OFFCURVE",
"217 187 OFFCURVE",
"217 289 CURVE SMOOTH",
"217 395 OFFCURVE",
"274 468 OFFCURVE",
"369 468 CURVE SMOOTH",
"465 468 OFFCURVE",
"515 392 OFFCURVE",
"515 293 CURVE"
);
},
{
closed = 1;
nodes = (
"162 27 OFFCURVE",
"205 -14 OFFCURVE",
"348 -14 CURVE SMOOTH",
"481 -14 OFFCURVE",
"573 101 OFFCURVE",
"573 273 CURVE SMOOTH",
"573 417 OFFCURVE",
"481 532 OFFCURVE",
"348 532 CURVE SMOOTH",
"240 532 OFFCURVE",
"174 399 OFFCURVE",
"174 474 CURVE SMOOTH",
"174 793 LINE",
"80 793 LINE",
"110 430 OFFCURVE",
"115 144 OFFCURVE",
"136 99 CURVE"
);
}
);
width = 653;
},
{
anchors = (
{
name = _hook_top;
position = "{130, 778}";
},
{
name = bottom;
position = "{327, -37}";
},
{
name = top;
position = "{327, 800}";
},
{
name = top_hook;
position = "{128, 717}";
}
);
hints = (
{
place = "{99, 65}";
type = Stem;
}
);
layerId = "BBDB329E-CE83-4304-A6B1-53EA5ACC004E";
paths = (
{
closed = 1;
nodes = (
"477 216 OFFCURVE",
"441 179 OFFCURVE",
"368 173 CURVE",
"264 173 OFFCURVE",
"244 193 OFFCURVE",
"244 289 CURVE SMOOTH",
"244 383 OFFCURVE",
"292 441 OFFCURVE",
"369 441 CURVE SMOOTH",
"442 441 OFFCURVE",
"487 386 OFFCURVE",
"488 295 CURVE"
);
},
{
closed = 1;
nodes = (
"145 -6 OFFCURVE",
"211 -41 OFFCURVE",
"348 -41 CURVE SMOOTH",
"497 -41 OFFCURVE",
"600 88 OFFCURVE",
"600 273 CURVE SMOOTH",
"600 436 OFFCURVE",
"492 559 OFFCURVE",
"348 559 CURVE SMOOTH",
"275 559 OFFCURVE",
"201 509 OFFCURVE",
"201 474 CURVE",
"201 820 LINE",
"51 820 LINE",
"83 447 OFFCURVE",
"87 145 OFFCURVE",
"111 89 CURVE"
);
}
);
width = 653;
}
);
rightKerningGroup = RoundRight;
unicode = 0062;
},
{
color = 7;
glyphname = c;
lastChange = "2019-09-02 02:16:03 +0000";
layers = (
{
anchors = (
{
name = bottom;
position = "{317, 0}";
},
{
name = top;
position = "{317, 547}";
},
{
name = top_hook;
position = "{398, 533}";
}
);
layerId = "BA196CD0-EE58-4274-B8DF-4393D3617A29";
paths = (
{
closed = 1;
nodes = (
"423 555 OFFCURVE",
"386 560 OFFCURVE",
"359 560 CURVE SMOOTH",
"189 560 OFFCURVE",
"80 451 OFFCURVE",
"80 273 CURVE SMOOTH",
"80 97 OFFCURVE",
"142 0 OFFCURVE",
"349 -14 CURVE SMOOTH",
"410 -18 OFFCURVE",
"463 -2 OFFCURVE",
"513 21 CURVE",
"410 135 LINE",
"305 73 OFFCURVE",
"190 143 OFFCURVE",
"180 273 CURVE",
"180 406 OFFCURVE",
"222 489 OFFCURVE",
"339 489 CURVE SMOOTH",
"367 489 OFFCURVE",
"412 487 OFFCURVE",
"444 477 CURVE",
"444 548 LINE"
);
}
);
width = 593;
},
{
anchors = (
{
name = bottom;
position = "{317, 0}";
},
{
name = top;
position = "{317, 547}";
},
{
name = top_hook;
position = "{398, 533}";
}
);
layerId = "BBDB329E-CE83-4304-A6B1-53EA5ACC004E";
paths = (
{
closed = 1;
nodes = (
"464 576 OFFCURVE",
"402 587 OFFCURVE",
"359 587 CURVE SMOOTH",
"173 587 OFFCURVE",
"53 464 OFFCURVE",
"53 273 CURVE SMOOTH",
"53 67 OFFCURVE",
"141 -27 OFFCURVE",
"347 -41 CURVE SMOOTH",
"414 -45 OFFCURVE",
"481 -28 OFFCURVE",
"557 13 CURVE",
"414 171 LINE",
"322 99 OFFCURVE",
"217 157 OFFCURVE",
"207 274 CURVE",
"207 405 OFFCURVE",
"248 462 OFFCURVE",
"339 462 CURVE SMOOTH",
"378 462 OFFCURVE",
"413 458 OFFCURVE",
"471 440 CURVE",
"471 563 LINE"
);
}
);
width = 593;
}
);
leftKerningGroup = Round;
unicode = 0063;
},
{
glyphname = ccurl;
lastChange = "2019-09-02 02:16:03 +0000";
layers = (
{
anchors = (
{
name = _curl;
position = "{152, 459}";
},
{
name = bottom;
position = "{317, 0}";
},
{
name = top;
position = "{317, 540}";
}
);
layerId = "BA196CD0-EE58-4274-B8DF-4393D3617A29";
paths = (
{
closed = 1;
nodes = (
"423 555 OFFCURVE",
"386 560 OFFCURVE",
"359 560 CURVE SMOOTH",
"189 560 OFFCURVE",
"80 451 OFFCURVE",
"80 273 CURVE SMOOTH",
"80 97 OFFCURVE",
"143 -14 OFFCURVE",
"349 -14 CURVE SMOOTH",
"474 -14 OFFCURVE",
"606 83 OFFCURVE",
"606 183 CURVE SMOOTH",
"606 223 OFFCURVE",
"585 263 OFFCURVE",
"535 298 CURVE SMOOTH",
"499 323 OFFCURVE",
"464 334 OFFCURVE",
"433 334 CURVE SMOOTH",
"358 334 OFFCURVE",
"306 269 OFFCURVE",
"306 176 CURVE SMOOTH",
"306 40 OFFCURVE",
"306 -79 OFFCURVE",
"306 -200 CURVE",
"416 -200 LINE",
"416 -137 OFFCURVE",
"412 -75 OFFCURVE",
"408 -10 CURVE SMOOTH",
"405 42 OFFCURVE",
"400 95 OFFCURVE",
"400 152 CURVE SMOOTH",
"400 213 OFFCURVE",
"421 239 OFFCURVE",
"448 239 CURVE SMOOTH",
"462 239 OFFCURVE",
"478 232 OFFCURVE",
"494 220 CURVE SMOOTH",
"502 214 OFFCURVE",
"505 206 OFFCURVE",
"505 197 CURVE SMOOTH",
"505 158 OFFCURVE",
"436 97 OFFCURVE",
"324 97 CURVE SMOOTH",
"213 97 OFFCURVE",
"181 203 OFFCURVE",
"180 273 CURVE",
"180 406 OFFCURVE",
"222 489 OFFCURVE",
"339 489 CURVE SMOOTH",
"367 489 OFFCURVE",
"412 487 OFFCURVE",
"444 477 CURVE",
"444 548 LINE"
);
}
);
width = 686;
},
{
anchors = (
{
name = _curl;
position = "{152, 459}";
},
{
name = bottom;
position = "{317, 0}";
},
{
name = top;
position = "{317, 540}";
}
);
layerId = "BBDB329E-CE83-4304-A6B1-53EA5ACC004E";
paths = (
{
closed = 1;
nodes = (
"464 576 OFFCURVE",
"402 587 OFFCURVE",
"359 587 CURVE SMOOTH",
"173 587 OFFCURVE",
"53 464 OFFCURVE",
"53 273 CURVE SMOOTH",
"53 60 OFFCURVE",
"147 -41 OFFCURVE",
"349 -41 CURVE SMOOTH",
"491 -41 OFFCURVE",
"633 69 OFFCURVE",
"633 183 CURVE SMOOTH",
"633 235 OFFCURVE",
"604 283 OFFCURVE",
"550 320 CURVE SMOOTH",
"513 346 OFFCURVE",
"471 361 OFFCURVE",
"433 361 CURVE SMOOTH",
"343 361 OFFCURVE",
"279 284 OFFCURVE",
"279 176 CURVE SMOOTH",
"279 30 OFFCURVE",
"279 -97 OFFCURVE",
"279 -227 CURVE",
"443 -227 LINE",
"444 -154 OFFCURVE",
"440 -82 OFFCURVE",
"435 -8 CURVE SMOOTH",
"432 43 OFFCURVE",
"427 96 OFFCURVE",
"427 152 CURVE SMOOTH",
"427 192 OFFCURVE",
"437 212 OFFCURVE",
"448 212 CURVE SMOOTH",
"456 212 OFFCURVE",
"465 208 OFFCURVE",
"478 198 CURVE",
"480 197 OFFCURVE",
"478 202 OFFCURVE",
"478 197 CURVE SMOOTH",
"478 165 OFFCURVE",
"399 124 OFFCURVE",
"324 124 CURVE SMOOTH",
"253 124 OFFCURVE",
"208 182 OFFCURVE",
"207 273 CURVE",
"207 405 OFFCURVE",
"248 462 OFFCURVE",
"339 462 CURVE SMOOTH",
"378 462 OFFCURVE",
"413 458 OFFCURVE",
"471 440 CURVE",
"471 563 LINE"
);
}
);
width = 686;
}
);
unicode = 0255;
},
{
color = 7;
glyphname = d;
lastChange = "2019-09-02 02:16:03 +0000";
layers = (
{
anchors = (
{
name = bottom;
position = "{298, -42}";
},
{
name = bottom_hook;
position = "{518, 27}";
},
{
name = center;
position = "{375, 273}";
},
{
name = circumflexbelow;
position = "{304, -54}";
},
{
name = croat;
position = "{534, 624}";
},
{
name = dotbelow;
position = "{298, -51}";
},
{
name = ezh;
position = "{540, 601}";
},
{
name = right;
position = "{631, 674}";
},
{
name = right_el;
position = "{679, 526}";
},
{
name = top;
position = "{304, 560}";
},
{
name = top_hook;
position = "{525, 700}";
},
{
name = topright;
position = "{641, 500}";
}
);
layerId = "BA196CD0-EE58-4274-B8DF-4393D3617A29";
paths = (
{
closed = 1;
nodes = (
"442 505 OFFCURVE",
"384 536 OFFCURVE",
"304 536 CURVE SMOOTH",
"172 536 OFFCURVE",
"80 421 OFFCURVE",
"80 273 CURVE SMOOTH",
"80 101 OFFCURVE",
"147 -19 OFFCURVE",
"304 -14 CURVE SMOOTH",
"384 -11 OFFCURVE",
"442 17 OFFCURVE",
"479 82 CURVE",
"479 0 LINE",
"574 -2 LINE",
"562 235 LINE",
"586 800 LINE",
"496 800 LINE",
"479 440 LINE"
);
},
{
closed = 1;
nodes = (
"145 391 OFFCURVE",
"202 471 OFFCURVE",
"298 471 CURVE SMOOTH",
"393 471 OFFCURVE",
"439 398 OFFCURVE",
"439 290 CURVE SMOOTH",
"439 169 OFFCURVE",
"390 149 OFFCURVE",
"295 149 CURVE SMOOTH",
"200 149 OFFCURVE",
"145 188 OFFCURVE",
"145 283 CURVE SMOOTH"
);
}
);
width = 666;
},
{
anchors = (
{
name = bottom;
position = "{298, -42}";
},
{
name = bottom_hook;
position = "{518, 27}";
},
{
name = center;
position = "{375, 273}";
},
{
name = circumflexbelow;
position = "{304, -54}";
},
{
name = croat;
position = "{534, 624}";
},
{
name = dotbelow;
position = "{298, -51}";
},
{
name = ezh;
position = "{540, 601}";
},
{
name = right;
position = "{631, 674}";
},
{
name = right_el;
position = "{679, 526}";
},
{
name = top;
position = "{304, 560}";
},
{
name = top_hook;
position = "{525, 700}";
},
{
name = topright;
position = "{641, 500}";
}
);
layerId = "BBDB329E-CE83-4304-A6B1-53EA5ACC004E";
paths = (
{
closed = 1;
nodes = (
"416 546 OFFCURVE",
"365 563 OFFCURVE",
"304 563 CURVE SMOOTH",
"160 563 OFFCURVE",
"53 439 OFFCURVE",
"53 273 CURVE SMOOTH",
"53 69 OFFCURVE",
"144 -46 OFFCURVE",
"305 -41 CURVE SMOOTH",
"366 -39 OFFCURVE",
"414 -23 OFFCURVE",
"452 8 CURVE",
"452 -26 LINE",
"602 -30 LINE",
"589 235 LINE",
"614 827 LINE",
"470 827 LINE",
"455 512 LINE"
);
},
{
closed = 1;
nodes = (
"172 382 OFFCURVE",
"222 444 OFFCURVE",
"298 444 CURVE SMOOTH",
"372 444 OFFCURVE",
"412 391 OFFCURVE",
"412 290 CURVE SMOOTH",
"412 197 OFFCURVE",
"389 176 OFFCURVE",
"295 176 CURVE SMOOTH",
"209 176 OFFCURVE",
"172 209 OFFCURVE",
"172 283 CURVE SMOOTH"
);
}
);
width = 666;
}
);
leftKerningGroup = Round;
unicode = 0064;
},
{
glyphname = dzaltone;
lastChange = "2019-09-02 02:16:03 +0000";
layers = (
{
components = (
{
name = d;
},
{
name = z;
transform = "{1, 0, 0, 1, 496, -13}";
}
);
layerId = "BA196CD0-EE58-4274-B8DF-4393D3617A29";
paths = (
{
closed = 1;
nodes = (
"519 469 LINE",
"723 469 LINE",
"723 536 LINE",
"519 536 LINE"
);
}
);
width = 1167;
},
{
components = (
{
name = d;
},
{
name = z;
transform = "{1, 0, 0, 1, 496, -13}";
}
);
layerId = "BBDB329E-CE83-4304-A6B1-53EA5ACC004E";
paths = (
{
closed = 1;
nodes = (
"492 442 LINE",
"750 442 LINE",
"750 563 LINE",
"492 563 LINE"
);
}
);
width = 1167;
}
);
unicode = 02A3;
},
{
glyphname = dzcurl;
lastChange = "2019-09-02 02:16:03 +0000";
layers = (
{
components = (
{
name = d;
},
{
name = zcurl;
transform = "{1, 0, 0, 1, 503, -1}";
}
);
layerId = "BA196CD0-EE58-4274-B8DF-4393D3617A29";
paths = (
{
closed = 1;
nodes = (
"521 481 LINE",
"730 481 LINE",
"730 548 LINE",
"521 548 LINE"
);
}
);
width = 1229;
},
{
components = (
{
name = d;
},
{
name = zcurl;
transform = "{1, 0, 0, 1, 503, -1}";
}
);
layerId = "BBDB329E-CE83-4304-A6B1-53EA5ACC004E";
paths = (
{
closed = 1;
nodes = (
"494 454 LINE",
"757 454 LINE",
"757 575 LINE",
"494 575 LINE"
);
}
);
width = 1229;
}
);
unicode = 02A5;
},
{
color = 7;
glyphname = e;
lastChange = "2019-09-02 02:16:03 +0000";
layers = (
{
anchors = (
{
name = _hook;
position = "{353, 539}";
},
{
name = bottom;
position = "{336, 0}";
},
{
name = center;
position = "{117, 267}";
},
{
name = dotbelow;
position = "{350, -22}";
},
{
name = ogonek;
position = "{434, -7}";
},
{
name = righthook;
position = "{575, 274}";
},
{
name = top;
position = "{336, 599}";
}
);
layerId = "BA196CD0-EE58-4274-B8DF-4393D3617A29";
paths = (
{
closed = 1;
nodes = (
"461 551 OFFCURVE",
"349 560 CURVE",
"184 560 OFFCURVE",
"87 447 OFFCURVE",
"80 268 CURVE",
"80 95 OFFCURVE",
"190 -14 OFFCURVE",
"364 -14 CURVE SMOOTH",
"435 -14 OFFCURVE",
"500 0 OFFCURVE",
"565 28 CURVE",
"565 152 LINE",
"488 119 OFFCURVE",
"441 122 OFFCURVE",
"367 119 CURVE SMOOTH",
"226 114 OFFCURVE",
"161 192 OFFCURVE",
"161 287 CURVE",
"574 315 LINE",
"542 496 OFFCURVE"
);
},
{
closed = 1;
nodes = (
"184 440 OFFCURVE",
"249 513 OFFCURVE",
"349 513 CURVE SMOOTH",
"438 513 OFFCURVE",
"494 446 OFFCURVE",
"504 385 CURVE",
"184 374 LINE"
);
}
);
width = 654;
},
{
anchors = (
{
name = _hook;
position = "{353, 539}";
},
{
name = bottom;
position = "{336, 0}";
},
{
name = center;
position = "{117, 267}";
},
{
name = dotbelow;
position = "{350, -22}";
},
{
name = ogonek;
position = "{434, -7}";
},
{
name = righthook;
position = "{575, 274}";
},
{
name = top;
position = "{336, 599}";
}
);
layerId = "BBDB329E-CE83-4304-A6B1-53EA5ACC004E";
paths = (
{
closed = 1;
nodes = (
"578 483 OFFCURVE",
"501 575 OFFCURVE",
"351 587 CURVE",
"349 587 LINE SMOOTH",
"173 587 OFFCURVE",
"61 466 OFFCURVE",
"53 269 CURVE",
"53 268 LINE SMOOTH",
"53 80 OFFCURVE",
"175 -41 OFFCURVE",
"364 -41 CURVE SMOOTH",
"443 -41 OFFCURVE",
"517 -24 OFFCURVE",
"592 11 CURVE",
"592 195 LINE",
"496 145 OFFCURVE",
"454 150 OFFCURVE",
"366 146 CURVE SMOOTH",
"265 142 OFFCURVE",
"201 186 OFFCURVE",
"190 262 CURVE",
"605 290 LINE"
);
},
{
closed = 1;
nodes = (
"232 449 OFFCURVE",
"286 486 OFFCURVE",
"349 486 CURVE SMOOTH",
"402 486 OFFCURVE",
"448 455 OFFCURVE",
"468 411 CURVE",
"216 402 LINE"
);
}
);
width = 654;
}
);
leftKerningGroup = Round;
unicode = 0065;
},
{
glyphname = eopen;
lastChange = "2019-09-02 02:21:16 +0000";
layers = (
{
anchors = (
{
name = top;
position = "{253, 520}";
}
);
layerId = "BA196CD0-EE58-4274-B8DF-4393D3617A29";
paths = (
{
closed = 1;
nodes = (
"118 286 OFFCURVE",
"91 318 OFFCURVE",
"91 372 CURVE SMOOTH",
"91 451 OFFCURVE",
"154 500 OFFCURVE",
"256 500 CURVE SMOOTH",
"296 500 OFFCURVE",
"383 476 OFFCURVE",
"383 388 CURVE",
"338 379 LINE",
"339 438 OFFCURVE",
"299 456 OFFCURVE",
"263 456 CURVE SMOOTH",
"195 456 OFFCURVE",
"139 431 OFFCURVE",
"139 377 CURVE SMOOTH",
"139 314 OFFCURVE",
"186 295 OFFCURVE",
"252 295 CURVE",
"275 295 LINE",
"287 242 LINE",
"265 242 LINE SMOOTH",
"191 243 OFFCURVE",
"152 210 OFFCURVE",
"152 165 CURVE",
"152 120 OFFCURVE",
"178 80 OFFCURVE",
"246 79 CURVE SMOOTH",
"295 78 OFFCURVE",
"346 79 OFFCURVE",
"320 182 CURVE",
"400 189 LINE",
"458 17 OFFCURVE",
"295 -12 OFFCURVE",
"253 -12 CURVE SMOOTH",
"161 -12 OFFCURVE",
"80 40 OFFCURVE",
"80 147 CURVE SMOOTH",
"80 210 OFFCURVE",
"103 252 OFFCURVE",
"182 263 CURVE"
);
}
);
width = 492;
},
{
anchors = (
{
name = top;
position = "{253, 520}";
}
);
layerId = "BBDB329E-CE83-4304-A6B1-53EA5ACC004E";
paths = (
{
closed = 1;
nodes = (
"89 249 OFFCURVE",
"66 210 OFFCURVE",
"66 147 CURVE SMOOTH",
"66 43 OFFCURVE",
"140 -26 OFFCURVE",
"253 -26 CURVE SMOOTH",
"297 -26 OFFCURVE",
"484 7 OFFCURVE",
"410 204 CURVE",
"302 195 LINE",
"331 93 OFFCURVE",
"298 92 OFFCURVE",
"246 93 CURVE SMOOTH",
"195 94 OFFCURVE",
"166 120 OFFCURVE",
"166 165 CURVE SMOOTH",
"166 204 OFFCURVE",
"203 228 OFFCURVE",
"265 228 CURVE SMOOTH",
"305 228 LINE",
"287 309 LINE",
"252 309 LINE SMOOTH",
"183 309 OFFCURVE",
"153 330 OFFCURVE",
"153 377 CURVE SMOOTH",
"153 417 OFFCURVE",
"194 442 OFFCURVE",
"263 442 CURVE SMOOTH",
"308 442 OFFCURVE",
"330 413 OFFCURVE",
"322 361 CURVE",
"397 376 LINE",
"405 485 OFFCURVE",
"300 514 OFFCURVE",
"256 514 CURVE SMOOTH",
"146 514 OFFCURVE",
"77 459 OFFCURVE",
"77 372 CURVE SMOOTH",
"77 325 OFFCURVE",
"96 291 OFFCURVE",
"138 267 CURVE"
);
}
);
width = 492;
}
);
unicode = 025B;
},
{
glyphname = eopenreversedclosed;
lastChange = "2019-09-02 02:48:41 +0000";
layers = (
{
layerId = "BA196CD0-EE58-4274-B8DF-4393D3617A29";
paths = (
{
closed = 1;
nodes = (
"80 119 OFFCURVE",
"149 -4 OFFCURVE",
"327 -12 CURVE SMOOTH",
"419 -16 OFFCURVE",
"500 40 OFFCURVE",
"500 147 CURVE SMOOTH",
"500 210 OFFCURVE",
"477 252 OFFCURVE",
"398 263 CURVE",
"485 290 OFFCURVE",
"489 318 OFFCURVE",
"489 372 CURVE SMOOTH",
"489 451 OFFCURVE",
"426 500 OFFCURVE",
"324 500 CURVE SMOOTH",
"126 500 OFFCURVE",
"80 369 OFFCURVE",
"80 249 CURVE SMOOTH"
);
},
{
closed = 1;
nodes = (
"142 346 OFFCURVE",
"191 456 OFFCURVE",
"317 456 CURVE SMOOTH",
"385 456 OFFCURVE",
"441 431 OFFCURVE",
"441 377 CURVE SMOOTH",
"441 314 OFFCURVE",
"394 295 OFFCURVE",
"328 295 CURVE SMOOTH",
"305 295 LINE",
"293 242 LINE",
"315 242 LINE SMOOTH",
"389 243 OFFCURVE",
"428 210 OFFCURVE",
"428 165 CURVE SMOOTH",
"428 120 OFFCURVE",
"402 79 OFFCURVE",
"334 79 CURVE SMOOTH",
"184 79 OFFCURVE",
"142 194 OFFCURVE",
"142 252 CURVE SMOOTH"
);
}
);
width = 580;
},
{
layerId = "BBDB329E-CE83-4304-A6B1-53EA5ACC004E";
paths = (
{
closed = 1;
nodes = (
"53 79 OFFCURVE",
"157 -31 OFFCURVE",
"326 -39 CURVE SMOOTH",
"443 -44 OFFCURVE",
"527 33 OFFCURVE",
"527 147 CURVE SMOOTH",
"527 203 OFFCURVE",
"509 243 OFFCURVE",
"472 266 CURVE",
"505 289 OFFCURVE",
"516 319 OFFCURVE",
"516 372 CURVE SMOOTH",
"516 467 OFFCURVE",
"440 527 OFFCURVE",
"324 527 CURVE SMOOTH",
"149 527 OFFCURVE",
"53 428 OFFCURVE",
"53 249 CURVE SMOOTH"
);
},
{
closed = 1;
nodes = (
"169 358 OFFCURVE",
"227 429 OFFCURVE",
"317 429 CURVE SMOOTH",
"379 429 OFFCURVE",
"414 408 OFFCURVE",
"414 377 CURVE SMOOTH",
"414 338 OFFCURVE",
"390 322 OFFCURVE",
"328 322 CURVE SMOOTH",
"283 322 LINE",
"259 215 LINE",
"315 215 LINE SMOOTH",
"370 216 OFFCURVE",
"401 196 OFFCURVE",
"401 165 CURVE SMOOTH",
"401 127 OFFCURVE",
"379 106 OFFCURVE",
"334 106 CURVE SMOOTH",
"238 106 OFFCURVE",
"169 168 OFFCURVE",
"169 252 CURVE SMOOTH"
);
}
);
width = 580;
}
);
unicode = 025E;
},
{
glyphname = esh;
lastChange = "2019-09-02 02:16:03 +0000";
layers = (
{
layerId = "BA196CD0-EE58-4274-B8DF-4393D3617A29";
paths = (
{
closed = 1;
nodes = (
"749 754 OFFCURVE",
"717 760 OFFCURVE",
"682 760 CURVE SMOOTH",
"584 760 OFFCURVE",
"514 694 OFFCURVE",
"494 575 CURVE SMOOTH",
"455 344 LINE",
"417 83 LINE",
"395 -25 OFFCURVE",
"363 -65 OFFCURVE",
"300 -65 CURVE SMOOTH",
"269 -65 OFFCURVE",
"238 -54 OFFCURVE",
"205 -33 CURVE",
"80 -98 LINE",
"129 -180 OFFCURVE",
"238 -208 OFFCURVE",
"275 -208 CURVE SMOOTH",
"389 -208 OFFCURVE",
"472 -216 OFFCURVE",
"516 107 CURVE SMOOTH",
"548 344 LINE",
"585 576 LINE SMOOTH",
"599 662 OFFCURVE",
"637 700 OFFCURVE",
"700 700 CURVE SMOOTH",
"729 700 OFFCURVE",
"754 691 OFFCURVE",
"779 672 CURVE",
"779 742 LINE"
);
}
);
width = 859;
},
{
layerId = "BBDB329E-CE83-4304-A6B1-53EA5ACC004E";
paths = (
{
closed = 1;
nodes = (
"768 778 OFFCURVE",
"727 787 OFFCURVE",
"682 787 CURVE SMOOTH",
"569 787 OFFCURVE",
"489 710 OFFCURVE",
"467 579 CURVE SMOOTH",
"428 348 LINE",
"390 88 LINE",
"371 -8 OFFCURVE",
"347 -38 OFFCURVE",
"300 -38 CURVE SMOOTH",
"271 -38 OFFCURVE",
"243 -27 OFFCURVE",
"207 -2 CURVE",
"44 -86 LINE",
"89 -198 OFFCURVE",
"231 -235 OFFCURVE",
"275 -235 CURVE SMOOTH",
"388 -235 OFFCURVE",
"495 -245 OFFCURVE",
"543 103 CURVE SMOOTH",
"575 340 LINE",
"612 572 LINE SMOOTH",
"623 643 OFFCURVE",
"650 673 OFFCURVE",
"700 673 CURVE SMOOTH",
"738 673 OFFCURVE",
"761 657 OFFCURVE",
"806 611 CURVE",
"806 760 LINE"
);
}
);
width = 859;
}
);
unicode = 0283;
},
{
glyphname = ezh;
lastChange = "2019-09-02 02:16:03 +0000";
layers = (
{
anchors = (
{
name = _ezh;
position = "{95, 623}";
},
{
name = bottom;
position = "{348, 0}";
},
{
name = top;
position = "{337, 693}";
}
);
layerId = "BA196CD0-EE58-4274-B8DF-4393D3617A29";
paths = (
{
closed = 1;
nodes = (
"461 406 OFFCURVE",
"486 427 OFFCURVE",
"576 527 CURVE",
"568 598 OFFCURVE",
"570 598 OFFCURVE",
"558 667 CURVE",
"478 671 OFFCURVE",
"181 667 OFFCURVE",
"83 667 CURVE",
"83 573 LINE",
"230 572 OFFCURVE",
"365 572 OFFCURVE",
"478 573 CURVE",
"384 468 OFFCURVE",
"329 430 OFFCURVE",
"217 325 CURVE",
"217 232 LINE",
"357 245 OFFCURVE",
"471 205 OFFCURVE",
"478 126 CURVE",
"481 -23 OFFCURVE",
"348 -111 OFFCURVE",
"207 27 CURVE",
"80 -77 LINE",
"207 -202 OFFCURVE",
"332 -200 OFFCURVE",
"365 -200 CURVE SMOOTH",
"579 -200 OFFCURVE",
"617 -57 OFFCURVE",
"603 107 CURVE SMOOTH",
"595 203 OFFCURVE",
"489 305 OFFCURVE",
"369 314 CURVE"
);
}
);
width = 686;
},
{
anchors = (
{
name = _ezh;
position = "{95, 623}";
},
{
name = bottom;
position = "{348, 0}";
},
{
name = top;
position = "{337, 693}";
}
);
layerId = "BBDB329E-CE83-4304-A6B1-53EA5ACC004E";
paths = (
{
closed = 1;
nodes = (
"489 395 OFFCURVE",
"519 423 OFFCURVE",
"596 509 CURVE",
"603 530 LINE",
"598 572 OFFCURVE",
"597 602 OFFCURVE",
"585 672 CURVE",
"559 694 LINE",
"468 699 OFFCURVE",
"100 693 OFFCURVE",
"56 694 CURVE",
"56 546 LINE",
"186 545 OFFCURVE",
"309 545 OFFCURVE",
"416 546 CURVE",
"344 472 OFFCURVE",
"290 431 OFFCURVE",
"190 337 CURVE",
"190 202 LINE",
"334 222 OFFCURVE",
"445 186 OFFCURVE",
"451 124 CURVE",
"453 -26 OFFCURVE",
"323 -65 OFFCURVE",
"209 64 CURVE",
"40 -75 LINE",
"182 -229 OFFCURVE",
"331 -227 OFFCURVE",
"365 -227 CURVE SMOOTH",
"561 -227 OFFCURVE",
"649 -114 OFFCURVE",
"630 109 CURVE SMOOTH",
"622 207 OFFCURVE",
"531 301 OFFCURVE",
"425 331 CURVE"
);
}
);
width = 686;
}
);
unicode = 0292;
},
{
color = 7;
glyphname = f;
lastChange = "2019-09-02 02:16:03 +0000";
layers = (
{
anchors = (
{
name = bottom;
position = "{242, 0}";
},
{
name = center;
position = "{212, 265}";
},
{
name = top;
position = "{242, 800}";
}
);
layerId = "BA196CD0-EE58-4274-B8DF-4393D3617A29";
paths = (
{
closed = 1;
nodes = (
"212 795 OFFCURVE",
"161 761 OFFCURVE",
"161 547 CURVE",
"80 547 LINE",
"80 458 LINE",
"161 458 LINE",
"146 0 LINE",
"276 0 LINE",
"261 458 LINE",
"404 458 LINE",
"404 547 LINE",
"249 545 LINE",
"240 584 OFFCURVE",
"225 720 OFFCURVE",
"314 720 CURVE",
"395 720 LINE",
"395 795 LINE",
"315 795 LINE"
);
}
);
width = 484;
},
{
anchors = (
{
name = bottom;
position = "{242, 0}";
},
{
name = center;
position = "{212, 265}";
},
{
name = top;
position = "{242, 800}";
}
);
layerId = "BBDB329E-CE83-4304-A6B1-53EA5ACC004E";
paths = (
{
closed = 1;
nodes = (
"185 822 OFFCURVE",
"138 758 OFFCURVE",
"134 574 CURVE",
"53 574 LINE",
"53 431 LINE",
"133 431 LINE",
"118 -27 LINE",
"304 -27 LINE",
"289 431 LINE",
"431 431 LINE",
"431 574 LINE",
"271 572 LINE",
"265 618 OFFCURVE",
"264 693 OFFCURVE",
"314 693 CURVE SMOOTH",
"422 693 LINE",
"422 822 LINE",
"315 822 LINE SMOOTH"
);
}
);
width = 484;
}
);
unicode = 0066;
},
{
color = 7;
glyphname = g;
lastChange = "2019-09-02 02:49:16 +0000";
layers = (
{
anchors = (
{
name = bottom;
position = "{301, -261}";
},
{
name = comma;
position = "{307, -262}";
},
{
name = top;
position = "{340, 547}";
},
{
name = top_hook;
position = "{528, 353}";
}
);
layerId = "BA196CD0-EE58-4274-B8DF-4393D3617A29";
paths = (
{
closed = 1;
nodes = (
"440 156 OFFCURVE",
"377 146 OFFCURVE",
"280 146 CURVE SMOOTH",
"184 146 OFFCURVE",
"147 156 OFFCURVE",
"134 285 CURVE",
"134 416 OFFCURVE",
"191 490 OFFCURVE",
"287 490 CURVE SMOOTH",
"383 490 OFFCURVE",
"440 416 OFFCURVE",
"440 285 CURVE SMOOTH"
);
},
{
closed = 1;
nodes = (
"489 547 LINE",
"468 477 LINE",
"413 518 OFFCURVE",
"384 560 OFFCURVE",
"304 560 CURVE SMOOTH",
"170 560 OFFCURVE",
"80 449 OFFCURVE",
"80 280 CURVE SMOOTH",
"80 111 OFFCURVE",
"170 0 OFFCURVE",
"304 0 CURVE SMOOTH",
"384 0 OFFCURVE",
"444 37 OFFCURVE",
"474 82 CURVE",
"474 52 LINE",
"461 -13 OFFCURVE",
"411 -124 OFFCURVE",
"293 -124 CURVE SMOOTH",
"240 -124 OFFCURVE",
"189 -111 OFFCURVE",
"136 -82 CURVE",
"99 -214 LINE",
"161 -245 OFFCURVE",
"238 -261 OFFCURVE",
"301 -261 CURVE SMOOTH",
"472 -261 OFFCURVE",
"548 -152 OFFCURVE",
"558 69 CURVE SMOOTH",
"579 547 LINE"
);
}
);
width = 659;
},
{
anchors = (
{
name = bottom;
position = "{301, -261}";
},
{
name = comma;
position = "{307, -262}";
},
{
name = top;
position = "{340, 596}";
},
{
name = top_hook;
position = "{528, 353}";
}
);
layerId = "BBDB329E-CE83-4304-A6B1-53EA5ACC004E";
paths = (
{
closed = 1;
nodes = (
"413 192 OFFCURVE",
"389 173 OFFCURVE",
"280 173 CURVE SMOOTH",
"186 173 OFFCURVE",
"171 185 OFFCURVE",
"161 286 CURVE",
"161 401 OFFCURVE",
"207 463 OFFCURVE",
"287 463 CURVE SMOOTH",
"368 463 OFFCURVE",
"413 400 OFFCURVE",
"413 285 CURVE SMOOTH"
);
},
{
closed = 1;
nodes = (
"469 574 LINE",
"454 523 LINE",
"416 556 OFFCURVE",
"379 587 OFFCURVE",
"304 587 CURVE SMOOTH",
"154 587 OFFCURVE",
"53 463 OFFCURVE",
"53 280 CURVE SMOOTH",
"53 97 OFFCURVE",
"154 -27 OFFCURVE",
"304 -27 CURVE SMOOTH",
"384 -27 OFFCURVE",
"458 9 OFFCURVE",
"447 -7 CURVE",
"447 55 LINE",
"428 -37 OFFCURVE",
"368 -97 OFFCURVE",
"293 -97 CURVE SMOOTH",
"233 -97 OFFCURVE",
"179 -79 OFFCURVE",
"120 -41 CURVE",
"67 -227 LINE",
"131 -265 OFFCURVE",
"222 -288 OFFCURVE",
"301 -288 CURVE SMOOTH",
"483 -288 OFFCURVE",
"574 -173 OFFCURVE",
"585 68 CURVE SMOOTH",
"607 574 LINE"
);
}
);
width = 659;
}
);
unicode = 0067;
},
{
glyphname = "gamma-latin";
lastChange = "2019-09-02 02:16:03 +0000";
layers = (
{
layerId = "BA196CD0-EE58-4274-B8DF-4393D3617A29";
paths = (
{
closed = 1;
nodes = (
"182 481 CURVE SMOOTH",
"170 493 OFFCURVE",
"165 500 OFFCURVE",
"153 515 CURVE",
"80 455 LINE",
"90 443 OFFCURVE",
"89 442 OFFCURVE",
"97 435 CURVE SMOOTH",
"510 41 OFFCURVE",
"472 -103 OFFCURVE",
"348 -100 CURVE SMOOTH",
"191 -96 OFFCURVE",
"224 74 OFFCURVE",
"607 427 CURVE SMOOTH",
"614 433 OFFCURVE",
"617 439 OFFCURVE",
"624 448 CURVE",
"549 515 LINE",
"540 505 OFFCURVE",
"534 495 OFFCURVE",
"525 485 CURVE SMOOTH",
"172 94 OFFCURVE",
"-41 -193 OFFCURVE",
"351 -197 CURVE SMOOTH",
"676 -200 OFFCURVE",
"573 88 OFFCURVE"
);
}
);
width = 704;
},
{
layerId = "BBDB329E-CE83-4304-A6B1-53EA5ACC004E";
paths = (
{
closed = 1;
nodes = (
"694 -227 OFFCURVE",
"632 67 OFFCURVE",
"201 500 CURVE SMOOTH",
"187 514 OFFCURVE",
"184 520 OFFCURVE",
"157 553 CURVE",
"42 459 LINE",
"54 444 OFFCURVE",
"70 423 OFFCURVE",
"79 415 CURVE",
"376 131 OFFCURVE",
"483 -76 OFFCURVE",
"349 -73 CURVE SMOOTH",
"209 -69 OFFCURVE",
"310 117 OFFCURVE",
"625 407 CURVE",
"632 413 OFFCURVE",
"640 424 OFFCURVE",
"661 451 CURVE",
"549 552 LINE",
"524 532 OFFCURVE",
"517 516 OFFCURVE",
"505 503 CURVE SMOOTH",
"151 111 OFFCURVE",
"-94 -219 OFFCURVE",
"351 -224 CURVE SMOOTH"
);
}
);
width = 704;
}
);
unicode = 0263;
},
{
glyphname = glottalstop;
lastChange = "2019-09-02 02:16:03 +0000";
layers = (
{
layerId = "BA196CD0-EE58-4274-B8DF-4393D3617A29";
paths = (
{
closed = 1;
nodes = (
"213 43 OFFCURVE",
"258 54 OFFCURVE",
"258 61 CURVE",
"258 91 OFFCURVE",
"259 285 OFFCURVE",
"259 325 CURVE SMOOTH",
"259 365 OFFCURVE",
"404 373 OFFCURVE",
"398 528 CURVE SMOOTH",
"395 600 OFFCURVE",
"367 660 OFFCURVE",
"284 679 CURVE SMOOTH",
"220 694 OFFCURVE",
"80 669 OFFCURVE",
"80 553 CURVE",
"116 553 OFFCURVE",
"129 553 OFFCURVE",
"162 553 CURVE",
"162 620 OFFCURVE",
"205 630 OFFCURVE",
"272 616 CURVE SMOOTH",
"317 607 OFFCURVE",
"337 570 OFFCURVE",
"337 517 CURVE SMOOTH",
"337 446 OFFCURVE",
"231 429 OFFCURVE",
"202 384 CURVE SMOOTH",
"176 343 OFFCURVE",
"173 329 OFFCURVE",
"173 272 CURVE SMOOTH",
"173 227 OFFCURVE",
"172 66 OFFCURVE",
"172 32 CURVE"
);
}
);
width = 478;
},
{
layerId = "BBDB329E-CE83-4304-A6B1-53EA5ACC004E";
paths = (
{
closed = 1;
nodes = (
"179 6 LINE",
"228 19 OFFCURVE",
"285 28 OFFCURVE",
"285 61 CURVE SMOOTH",
"285 91 OFFCURVE",
"286 285 OFFCURVE",
"286 325 CURVE SMOOTH",
"286 332 OFFCURVE",
"431 369 OFFCURVE",
"425 529 CURVE SMOOTH",
"421 625 OFFCURVE",
"375 686 OFFCURVE",
"290 705 CURVE SMOOTH",
"221 722 OFFCURVE",
"53 692 OFFCURVE",
"53 553 CURVE",
"80 526 LINE",
"126 526 OFFCURVE",
"134 526 OFFCURVE",
"191 526 CURVE",
"184 588 OFFCURVE",
"193 605 OFFCURVE",
"267 590 CURVE SMOOTH",
"295 584 OFFCURVE",
"310 561 OFFCURVE",
"310 517 CURVE SMOOTH",
"310 464 OFFCURVE",
"217 457 OFFCURVE",
"179 399 CURVE SMOOTH",
"151 354 OFFCURVE",
"146 334 OFFCURVE",
"146 272 CURVE SMOOTH",
"146 227 OFFCURVE",
"145 66 OFFCURVE",
"145 32 CURVE"
);
}
);
width = 478;
}
);
unicode = 0294;
},
{
glyphname = glottalstopsmall;
lastChange = "2019-09-02 02:16:03 +0000";
layers = (
{
layerId = "BA196CD0-EE58-4274-B8DF-4393D3617A29";
paths = (
{
closed = 1;
nodes = (
"276 220 OFFCURVE",
"324 220 CURVE",
"327 258 OFFCURVE",
"320 300 OFFCURVE",
"320 340 CURVE SMOOTH",
"320 380 OFFCURVE",
"465 388 OFFCURVE",
"459 543 CURVE SMOOTH",
"456 615 OFFCURVE",
"428 675 OFFCURVE",
"345 694 CURVE SMOOTH",
"281 709 OFFCURVE",
"141 684 OFFCURVE",
"141 568 CURVE",
"177 568 OFFCURVE",
"190 568 OFFCURVE",
"223 568 CURVE",
"223 635 OFFCURVE",
"266 644 OFFCURVE",
"333 631 CURVE SMOOTH",
"378 622 OFFCURVE",
"398 585 OFFCURVE",
"398 532 CURVE SMOOTH",
"398 461 OFFCURVE",
"292 444 OFFCURVE",
"263 399 CURVE SMOOTH",
"237 358 OFFCURVE",
"227 277 OFFCURVE",
"227 220 CURVE",
"256 220 OFFCURVE"
);
}
);
width = 600;
},
{
layerId = "BBDB329E-CE83-4304-A6B1-53EA5ACC004E";
paths = (
{
closed = 1;
nodes = (
"255 193 OFFCURVE",
"265 193 OFFCURVE",
"347 193 CURVE",
"357 240 OFFCURVE",
"347 294 OFFCURVE",
"347 340 CURVE SMOOTH",
"347 347 OFFCURVE",
"492 384 OFFCURVE",
"486 544 CURVE SMOOTH",
"482 640 OFFCURVE",
"436 701 OFFCURVE",
"351 720 CURVE SMOOTH",
"282 737 OFFCURVE",
"114 707 OFFCURVE",
"114 568 CURVE",
"141 541 LINE",
"187 541 OFFCURVE",
"195 541 OFFCURVE",
"252 541 CURVE",
"246 603 OFFCURVE",
"253 619 OFFCURVE",
"328 605 CURVE SMOOTH",
"356 599 OFFCURVE",
"371 576 OFFCURVE",
"371 532 CURVE SMOOTH",
"371 479 OFFCURVE",
"278 472 OFFCURVE",
"240 414 CURVE SMOOTH",
"213 371 OFFCURVE",
"196 279 OFFCURVE",
"201 193 CURVE"
);
}
);
width = 600;
}
);
unicode = 0242;
},
{
color = 7;
glyphname = h;
lastChange = "2019-09-02 02:16:03 +0000";
layers = (
{
anchors = (
{
name = bottom;
position = "{338, 0}";
},
{
name = bottom_hook;
position = "{518, 0}";
},
{
name = center;
position = "{302, 273}";
},
{
name = top;
position = "{302, 547}";
},
{
name = top_hook;
position = "{181, 482}";
}
);
layerId = "BA196CD0-EE58-4274-B8DF-4393D3617A29";
paths = (
{
closed = 1;
nodes = (
"563 522 OFFCURVE",
"510 548 OFFCURVE",
"384 548 CURVE SMOOTH",
"308 548 OFFCURVE",
"276 532 OFFCURVE",
"208 469 CURVE",
"228 800 LINE",
"138 800 LINE",
"80 0 LINE",
"228 0 LINE",
"174 385 OFFCURVE",
"205 476 OFFCURVE",
"364 476 CURVE SMOOTH",
"520 476 OFFCURVE",
"532 365 OFFCURVE",
"458 0 CURVE",
"596 0 LINE",
"575 330 LINE SMOOTH"
);
}
);
width = 676;
},
{
anchors = (
{
name = bottom;
position = "{338, 0}";
},
{
name = bottom_hook;
position = "{518, 0}";
},
{
name = center;
position = "{302, 273}";
},
{
name = top;
position = "{302, 547}";
},
{
name = top_hook;
position = "{181, 482}";
}
);
layerId = "BBDB329E-CE83-4304-A6B1-53EA5ACC004E";
paths = (
{
closed = 1;
nodes = (
"590 520 OFFCURVE",
"541 575 OFFCURVE",
"384 575 CURVE SMOOTH",
"323 575 OFFCURVE",
"285 565 OFFCURVE",
"239 530 CURVE",
"257 827 LINE",
"113 827 LINE",
"51 -27 LINE",
"259 -27 LINE",
"202 366 OFFCURVE",
"223 449 OFFCURVE",
"364 449 CURVE SMOOTH",
"493 449 OFFCURVE",
"506 363 OFFCURVE",
"425 -27 CURVE",
"625 -27 LINE",
"602 332 LINE SMOOTH"
);
}
);
width = 676;
}
);
unicode = 0068;
},
{
color = 7;
glyphname = i;
lastChange = "2019-09-02 02:16:03 +0000";
layers = (
{
anchors = (
{
name = bottom;
position = "{141, 0}";
},
{
name = center;
position = "{155, 285}";
}
);
layerId = "BA196CD0-EE58-4274-B8DF-4393D3617A29";
paths = (
{
closed = 1;
nodes = (
"202 0 LINE",
"172 192 OFFCURVE",
"172 341 OFFCURVE",
"179 506 CURVE",
"99 506 LINE",
"99 285 OFFCURVE",
"93 192 OFFCURVE",
"80 0 CURVE"
);
},
{
closed = 1;
nodes = (
"184 646 LINE",
"179 760 LINE",
"99 760 LINE",
"94 646 LINE"
);
}
);
width = 282;
},
{
anchors = (
{
name = bottom;
position = "{141, 0}";
},
{
name = center;
position = "{155, 285}";
}
);
layerId = "BBDB329E-CE83-4304-A6B1-53EA5ACC004E";
paths = (
{
closed = 1;
nodes = (
"234 -27 LINE",
"197 189 OFFCURVE",
"199 348 OFFCURVE",
"207 533 CURVE",
"72 533 LINE",
"72 282 OFFCURVE",
"66 193 OFFCURVE",
"51 -27 CURVE"
);
},
{
closed = 1;
nodes = (
"212 619 LINE",
"205 787 LINE",
"73 787 LINE",
"66 619 LINE"
);
}
);
width = 282;
}
);
unicode = 0069;
},
{
glyphname = idotless;
lastChange = "2019-09-02 02:49:40 +0000";
layers = (
{
anchors = (
{
name = bottom;
position = "{141, 0}";
},
{
name = ogonek;
position = "{141, 0}";
},
{
name = top;
position = "{137, 566}";
}
);
layerId = "BA196CD0-EE58-4274-B8DF-4393D3617A29";
paths = (
{
closed = 1;
nodes = (
"202 0 LINE",
"172 192 OFFCURVE",
"172 341 OFFCURVE",
"179 506 CURVE",
"99 506 LINE",
"99 285 OFFCURVE",
"93 192 OFFCURVE",
"80 0 CURVE"
);
}
);
width = 282;
},
{
anchors = (
{
name = bottom;
position = "{141, 0}";
},
{
name = ogonek;
position = "{141, 0}";
},
{
name = top;
position = "{137, 651}";
}
);
layerId = "BBDB329E-CE83-4304-A6B1-53EA5ACC004E";
paths = (
{
closed = 1;
nodes = (
"234 -27 LINE",
"197 189 OFFCURVE",
"199 348 OFFCURVE",
"207 533 CURVE",
"72 533 LINE",
"72 282 OFFCURVE",
"66 193 OFFCURVE",
"51 -27 CURVE"
);
}
);
width = 282;
}
);
unicode = 0131;
},
{
glyphname = "iota-latin";
lastChange = "2019-09-02 02:16:03 +0000";
layers = (
{
anchors = (
{
name = bottom;
position = "{101, 0}";
},
{
name = ogonek;
position = "{101, 0}";
},
{
name = top;
position = "{97, 517}";
}
);
layerId = "BA196CD0-EE58-4274-B8DF-4393D3617A29";
paths = (
{
closed = 1;
nodes = (
"228 67 LINE",
"192 67 OFFCURVE",
"186 56 OFFCURVE",
"138 79 CURVE",
"140 172 OFFCURVE",
"135 412 OFFCURVE",
"139 506 CURVE",
"59 506 LINE",
"59 389 OFFCURVE",
"76 263 OFFCURVE",
"54 44 CURVE",
"78 0 OFFCURVE",
"68 0 OFFCURVE",
"221 0 CURVE"
);
}
);
width = 282;
},
{
anchors = (
{
name = bottom;
position = "{101, 0}";
},
{
name = ogonek;
position = "{101, 0}";
},
{
name = top;
position = "{97, 517}";
}
);
layerId = "BBDB329E-CE83-4304-A6B1-53EA5ACC004E";
paths = (
{
closed = 1;
nodes = (
"258 94 LINE",
"166 96 OFFCURVE",
"182 87 OFFCURVE",
"165 96 CURVE",
"167 213 OFFCURVE",
"161 479 OFFCURVE",
"168 533 CURVE",
"32 533 LINE",
"29 406 OFFCURVE",
"51 280 OFFCURVE",
"27 47 CURVE",
"30 31 LINE",
"71 -43 OFFCURVE",
"108 -25 OFFCURVE",
"245 -27 CURVE"
);
}
);
width = 282;
}
);
unicode = 0269;
},
{
glyphname = jdotless;
lastChange = "2019-09-02 02:16:03 +0000";
layers = (
{
layerId = "BA196CD0-EE58-4274-B8DF-4393D3617A29";
paths = (
{
closed = 1;
nodes = (
"162 -132 OFFCURVE",
"157 -131 OFFCURVE",
"107 -111 CURVE",
"85 -223 LINE",
"128 -225 OFFCURVE",
"241 -231 OFFCURVE",
"269 -200 CURVE SMOOTH",
"294 -173 OFFCURVE",
"299 -121 OFFCURVE",
"306 -14 CURVE SMOOTH",
"341 520 LINE",
"256 520 LINE",
"245 118 OFFCURVE",
"243 -27 OFFCURVE",
"204 -78 CURVE SMOOTH"
);
}
);
width = 426;
},
{
layerId = "BBDB329E-CE83-4304-A6B1-53EA5ACC004E";
paths = (
{
closed = 1;
nodes = (
"148 -107 OFFCURVE",
"164 -103 OFFCURVE",
"87 -74 CURVE",
"53 -248 LINE",
"186 -256 OFFCURVE",
"259 -251 OFFCURVE",
"289 -218 CURVE SMOOTH",
"316 -189 OFFCURVE",
"324 -149 OFFCURVE",
"333 -16 CURVE SMOOTH",
"370 547 LINE",
"230 547 LINE",
"218 124 OFFCURVE",
"217 -17 OFFCURVE",
"183 -62 CURVE SMOOTH"
);
}
);
width = 426;
}
);
unicode = 0237;
},
{
glyphname = jcrossedtail;
lastChange = "2019-09-02 02:16:03 +0000";
layers = (
{
anchors = (
{
name = _curl;
position = "{715, 459}";
},
{
name = bottom;
position = "{880, 0}";
},
{
name = top;
position = "{880, 540}";
}
);
components = (
{
name = jdotless;
transform = "{1, 0, 0, 1, 154, 4}";
}
);
layerId = "BA196CD0-EE58-4274-B8DF-4393D3617A29";
paths = (
{
closed = 1;
nodes = (
"477 85 OFFCURVE",
"449 74 OFFCURVE",
"385 67 CURVE",
"385 -45 OFFCURVE",
"324 -114 OFFCURVE",
"285 -114 CURVE SMOOTH",
"214 -114 OFFCURVE",
"230 -9 OFFCURVE",
"330 -9 CURVE SMOOTH",
"387 -9 OFFCURVE",
"418 -14 OFFCURVE",
"470 -17 CURVE SMOOTH",
"535 -21 OFFCURVE",
"619 -25 OFFCURVE",
"682 -25 CURVE",
"682 85 LINE",
"561 85 OFFCURVE",
"442 85 OFFCURVE",
"306 85 CURVE SMOOTH",
"213 85 OFFCURVE",
"148 33 OFFCURVE",
"148 -42 CURVE SMOOTH",
"148 -243 OFFCURVE",
"191 -224 OFFCURVE",
"299 -224 CURVE SMOOTH",
"449 -224 OFFCURVE",
"456 -215 OFFCURVE",
"474 42 CURVE SMOOTH"
);
}
);
width = 829;
},
{
anchors = (
{
name = _curl;
position = "{715, 459}";
},
{
name = bottom;
position = "{880, 0}";
},
{
name = top;
position = "{880, 540}";
}
);
components = (
{
name = jdotless;
transform = "{1, 0, 0, 1, 154, 4}";
}
);
layerId = "BBDB329E-CE83-4304-A6B1-53EA5ACC004E";
paths = (
{
closed = 1;
nodes = (
"505 104 OFFCURVE",
"473 104 OFFCURVE",
"382 94 CURVE",
"358 67 LINE",
"358 -8 OFFCURVE",
"317 -87 OFFCURVE",
"285 -87 CURVE SMOOTH",
"255 -87 OFFCURVE",
"264 -36 OFFCURVE",
"330 -36 CURVE SMOOTH",
"385 -36 OFFCURVE",
"416 -41 OFFCURVE",
"468 -44 CURVE SMOOTH",
"543 -49 OFFCURVE",
"644 -53 OFFCURVE",
"709 -52 CURVE",
"709 112 LINE",
"578 112 OFFCURVE",
"453 112 OFFCURVE",
"306 112 CURVE SMOOTH",
"198 112 OFFCURVE",
"121 48 OFFCURVE",
"121 -42 CURVE SMOOTH",
"121 -284 OFFCURVE",
"197 -251 OFFCURVE",
"299 -251 CURVE SMOOTH",
"469 -251 OFFCURVE",
"482 -227 OFFCURVE",
"501 40 CURVE SMOOTH"
);
}
);
width = 829;
}
);
unicode = 029D;
},
{
color = 7;
glyphname = k;
lastChange = "2019-09-02 02:16:03 +0000";
layers = (
{
anchors = (
{
name = bottom;
position = "{269, 0}";
},
{
name = top;
position = "{330, 800}";
},
{
name = top_hook;
position = "{159, 378}";
}
);
layerId = "BA196CD0-EE58-4274-B8DF-4393D3617A29";
paths = (
{
closed = 1;
nodes = (
"200 0 LINE",
"191 255 LINE",
"375 0 LINE",
"580 0 LINE",
"269 299 LINE",
"432 500 LINE",
"334 502 LINE",
"185 331 LINE",
"212 793 LINE",
"122 793 LINE",
"80 0 LINE"
);
}
);
width = 660;
},
{
anchors = (
{
name = bottom;
position = "{269, 0}";
},
{
name = top;
position = "{330, 800}";
},
{
name = top_hook;
position = "{159, 378}";
}
);
layerId = "BBDB329E-CE83-4304-A6B1-53EA5ACC004E";
paths = (
{
closed = 1;
nodes = (
"228 -27 LINE",
"221 167 LINE",
"361 -27 LINE",
"647 -27 LINE",
"306 301 LINE",
"488 526 LINE",
"322 529 LINE",
"217 408 LINE",
"241 820 LINE",
"96 820 LINE",
"52 -27 LINE"
);
}
);
width = 660;
}
);
unicode = 006B;
},
{
color = 7;
glyphname = l;
lastChange = "2019-09-02 02:50:15 +0000";
layers = (
{
anchors = (
{
name = bottom;
position = "{198, 0}";
},
{
name = center;
position = "{142, 400}";
},
{
name = dot;
position = "{226, 406}";
},
{
name = ezh;
position = "{145, 547}";
},
{
name = right;
position = "{274, 487}";
},
{
name = right_el;
position = "{370, 538}";
},
{
name = top;
position = "{156, 750}";
},
{
name = topright;
position = "{264, 641}";
}
);
layerId = "BA196CD0-EE58-4274-B8DF-4393D3617A29";
paths = (
{
closed = 1;
nodes = (
"310 0 LINE",
"294 111 LINE",
"175 111 LINE",
"175 124 OFFCURVE",
"180 544 OFFCURVE",
"207 784 CURVE",
"122 784 LINE",
"93 506 OFFCURVE",
"80 111 OFFCURVE",
"80 0 CURVE"
);
}
);
width = 390;
},
{
anchors = (
{
name = bottom;
position = "{165, -38}";
},
{
name = center;
position = "{142, 400}";
},
{
name = dot;
position = "{226, 406}";
},
{
name = ezh;
position = "{145, 547}";
},
{
name = right;
position = "{274, 487}";
},
{
name = right_el;
position = "{370, 538}";
},
{
name = top;
position = "{156, 750}";
},
{
name = topright;
position = "{264, 641}";
}
);
layerId = "BBDB329E-CE83-4304-A6B1-53EA5ACC004E";
paths = (
{
closed = 1;
nodes = (
"341 -27 LINE",
"317 138 LINE",
"202 138 LINE",
"204 241 OFFCURVE",
"211 610 OFFCURVE",
"237 811 CURVE",
"98 811 LINE",
"63 499 OFFCURVE",
"50 17 OFFCURVE",
"54 -27 CURVE"
);
}
);
width = 390;
}
);
unicode = 006C;
},
{
glyphname = lbelt;
lastChange = "2019-09-02 02:16:03 +0000";
layers = (
{
anchors = (
{
name = _curl;
position = "{725, 459}";
},
{
name = bottom;
position = "{890, 0}";
},
{
name = top;
position = "{890, 540}";
}
);
components = (
{
name = l;
transform = "{1, 0, 0, 1, 198, 0}";
}
);
layerId = "BA196CD0-EE58-4274-B8DF-4393D3617A29";
paths = (
{
closed = 1;
nodes = (
"592 398 LINE",
"522 398 OFFCURVE",
"462 401 OFFCURVE",
"351 401 CURVE SMOOTH",
"255 401 OFFCURVE",
"170 462 OFFCURVE",
"170 501 CURVE SMOOTH",
"170 510 OFFCURVE",
"173 518 OFFCURVE",
"181 524 CURVE SMOOTH",
"197 536 OFFCURVE",
"213 543 OFFCURVE",
"227 543 CURVE SMOOTH",
"254 543 OFFCURVE",
"291 517 OFFCURVE",
"291 456 CURVE SMOOTH",
"291 399 OFFCURVE",
"286 346 OFFCURVE",
"283 294 CURVE SMOOTH",
"279 229 OFFCURVE",
"275 167 OFFCURVE",
"275 104 CURVE",
"369 104 LINE",
"369 225 OFFCURVE",
"369 344 OFFCURVE",
"369 480 CURVE SMOOTH",
"369 573 OFFCURVE",
"317 638 OFFCURVE",
"242 638 CURVE SMOOTH",
"211 638 OFFCURVE",
"168 633 OFFCURVE",
"132 608 CURVE SMOOTH",
"82 573 OFFCURVE",
"67 524 OFFCURVE",
"92 456 CURVE SMOOTH",
"145 313 OFFCURVE",
"303 292 OFFCURVE",
"592 290 CURVE"
);
}
);
width = 672;
},
{
anchors = (
{
name = _curl;
position = "{725, 459}";
},
{
name = bottom;
position = "{890, 0}";
},
{
name = top;
position = "{890, 540}";
}
);
components = (
{
name = l;
transform = "{1, 0, 0, 1, 198, 0}";
}
);
layerId = "BBDB329E-CE83-4304-A6B1-53EA5ACC004E";
paths = (
{
closed = 1;
nodes = (
"619 425 LINE",
"537 424 OFFCURVE",
"476 428 OFFCURVE",
"351 428 CURVE SMOOTH",
"285 428 OFFCURVE",
"197 473 OFFCURVE",
"197 501 CURVE SMOOTH",
"197 506 OFFCURVE",
"195 501 OFFCURVE",
"197 502 CURVE",
"210 512 OFFCURVE",
"219 516 OFFCURVE",
"227 516 CURVE SMOOTH",
"247 516 OFFCURVE",
"264 492 OFFCURVE",
"264 456 CURVE SMOOTH",
"264 400 OFFCURVE",
"259 347 OFFCURVE",
"256 296 CURVE SMOOTH",
"251 222 OFFCURVE",
"247 150 OFFCURVE",
"248 77 CURVE",
"396 77 LINE",
"396 208 OFFCURVE",
"396 333 OFFCURVE",
"396 480 CURVE SMOOTH",
"396 588 OFFCURVE",
"332 665 OFFCURVE",
"242 665 CURVE SMOOTH",
"194 665 OFFCURVE",
"149 653 OFFCURVE",
"117 630 CURVE SMOOTH",
"55 587 OFFCURVE",
"38 524 OFFCURVE",
"67 447 CURVE SMOOTH",
"127 284 OFFCURVE",
"312 264 OFFCURVE",
"619 263 CURVE"
);
}
);
width = 672;
}
);
unicode = 026C;
},
{
glyphname = lezh;
lastChange = "2019-09-02 02:16:03 +0000";
layers = (
{
components = (
{
name = l;
},
{
name = ezh;
transform = "{1, 0, 0, 1, 93, -76}";
}
);
layerId = "BA196CD0-EE58-4274-B8DF-4393D3617A29";
paths = (
{
closed = 1;
nodes = (
"289 111 LINE",
"305 0 LINE",
"170 0 LINE",
"170 111 LINE"
);
}
);
width = 779;
},
{
components = (
{
name = l;
},
{
name = ezh;
transform = "{1, 0, 0, 1, 93, -76}";
}
);
layerId = "BBDB329E-CE83-4304-A6B1-53EA5ACC004E";
paths = (
{
closed = 1;
nodes = (
"266 84 LINE",
"274 27 LINE",
"197 27 LINE",
"197 84 LINE"
);
}
);
width = 779;
}
);
unicode = 026E;
},
{
glyphname = lhookretroflex;
lastChange = "2019-09-02 02:50:58 +0000";
layers = (
{
anchors = (
{
name = bottom;
position = "{139, 0}";
},
{
name = center;
position = "{212, 400}";
},
{
name = dot;
position = "{243, 406}";
},
{
name = top;
position = "{165, 685}";
},
{
name = topright;
position = "{281, 641}";
}
);
layerId = "BA196CD0-EE58-4274-B8DF-4393D3617A29";
paths = (
{
closed = 1;
nodes = (
"362 0 LINE",
"362 -168 OFFCURVE",
"209 -163 OFFCURVE",
"210 -55 CURVE SMOOTH",
"211 150 OFFCURVE",
"207 637 OFFCURVE",
"224 784 CURVE",
"139 784 LINE",
"121 608 OFFCURVE",
"96 226 OFFCURVE",
"82 -55 CURVE SMOOTH",
"79 -122 OFFCURVE",
"73 -245 OFFCURVE",
"139 -245 CURVE SMOOTH",
"372 -245 OFFCURVE",
"464 -258 OFFCURVE",
"475 20 CURVE"
);
}
);
width = 555;
},
{
anchors = (
{
name = bottom;
position = "{139, 0}";
},
{
name = center;
position = "{212, 400}";
},
{
name = dot;
position = "{243, 406}";
},
{
name = top;
position = "{165, 685}";
},
{
name = topright;
position = "{281, 641}";
}
);
layerId = "BBDB329E-CE83-4304-A6B1-53EA5ACC004E";
paths = (
{
closed = 1;
nodes = (
"334 22 LINE",
"346 -130 OFFCURVE",
"236 -132 OFFCURVE",
"237 -55 CURVE SMOOTH",
"238 168 OFFCURVE",
"233 723 OFFCURVE",
"256 811 CURVE",
"115 811 LINE",
"97 648 OFFCURVE",
"70 241 OFFCURVE",
"55 -54 CURVE SMOOTH",
"49 -188 OFFCURVE",
"64 -272 OFFCURVE",
"139 -272 CURVE SMOOTH",
"378 -272 OFFCURVE",
"498 -290 OFFCURVE",
"503 52 CURVE"
);
}
);
width = 555;
}
);
unicode = 026D;
},
{
glyphname = lsdigraph;
lastChange = "2019-09-02 02:16:03 +0000";
layers = (
{
components = (
{
name = l;
},
{
name = s;
transform = "{1, 0, 0, 1, 229, 9}";
}
);
layerId = "BA196CD0-EE58-4274-B8DF-4393D3617A29";
paths = (
{
closed = 1;
nodes = (
"128 0 LINE",
"575 0 LINE",
"575 112 LINE",
"128 112 LINE"
);
}
);
width = 858;
},
{
components = (
{
name = l;
},
{
name = s;
transform = "{1, 0, 0, 1, 229, 9}";
}
);
layerId = "BBDB329E-CE83-4304-A6B1-53EA5ACC004E";
paths = (
{
closed = 1;
nodes = (
"101 -27 LINE",
"602 -27 LINE",
"602 139 LINE",
"101 139 LINE"
);
}
);
width = 858;
}
);
unicode = 02AA;
},
{
glyphname = lzdigraph;
lastChange = "2019-09-02 02:16:03 +0000";
layers = (
{
components = (
{
name = l;
},
{
name = z;
transform = "{1, 0, 0, 1, 187, -1}";
}
);
layerId = "BA196CD0-EE58-4274-B8DF-4393D3617A29";
paths = (
{
closed = 1;
nodes = (
"282 111 LINE",
"262 0 LINE",
"227 0 LINE",
"215 111 LINE"
);
},
{
closed = 1;
nodes = (
"139 482 LINE",
"370 482 LINE",
"370 549 LINE",
"139 549 LINE"
);
}
);
width = 858;
},
{
components = (
{
name = l;
},
{
name = z;
transform = "{1, 0, 0, 1, 187, -1}";
}
);
layerId = "BBDB329E-CE83-4304-A6B1-53EA5ACC004E";
paths = (
{
closed = 1;
nodes = (
"250 84 LINE",
"239 27 LINE",
"251 27 LINE",
"245 84 LINE"
);
},
{
closed = 1;
nodes = (
"112 455 LINE",
"397 455 LINE",
"397 576 LINE",
"112 576 LINE"
);
}
);
width = 858;
}
);
unicode = 02AB;
},
{
color = 7;
glyphname = m;
lastChange = "2019-09-02 02:16:03 +0000";
layers = (
{
anchors = (
{
name = bottom;
position = "{512, 0}";
},
{
name = center;
position = "{544, 279}";
},
{
name = eng;
position = "{882, 11}";
},
{
name = top;
position = "{574, 560}";
}
);
layerId = "BA196CD0-EE58-4274-B8DF-4393D3617A29";
paths = (
{
closed = 1;
nodes = (
"547 519 OFFCURVE",
"481 560 OFFCURVE",
"401 560 CURVE SMOOTH",
"322 560 OFFCURVE",
"266 529 OFFCURVE",
"225 462 CURVE",
"235 547 LINE",
"145 547 LINE",
"80 0 LINE",
"205 0 LINE",
"231 353 LINE",
"274 491 OFFCURVE",
"298 501 OFFCURVE",
"390 501 CURVE SMOOTH",
"467 501 OFFCURVE",
"504 416 OFFCURVE",
"504 347 CURVE",
"433 0 LINE",
"557 0 LINE",
"599 309 LINE SMOOTH",
"615 425 OFFCURVE",
"651 497 OFFCURVE",
"745 497 CURVE SMOOTH",
"821 497 OFFCURVE",
"843 447 OFFCURVE",
"843 342 CURVE",
"809 0 LINE",
"944 0 LINE",
"933 330 LINE SMOOTH",
"930 421 OFFCURVE",
"869 560 OFFCURVE",
"755 560 CURVE SMOOTH",
"671 560 OFFCURVE",
"619 522 OFFCURVE",
"574 442 CURVE"
);
}
);
width = 1024;
},
{
anchors = (
{
name = bottom;
position = "{512, 0}";
},
{
name = center;
position = "{544, 279}";
},
{
name = eng;
position = "{882, 11}";
},
{
name = top;
position = "{574, 560}";
}
);
layerId = "BBDB329E-CE83-4304-A6B1-53EA5ACC004E";
paths = (
{
closed = 1;
nodes = (
"540 554 OFFCURVE",
"477 587 OFFCURVE",
"401 587 CURVE SMOOTH",
"346 587 OFFCURVE",
"300 573 OFFCURVE",
"262 544 CURVE",
"265 574 LINE",
"121 574 LINE",
"50 -27 LINE",
"230 -27 LINE",
"258 348 LINE",
"294 465 OFFCURVE",
"306 474 OFFCURVE",
"390 474 CURVE SMOOTH",
"439 474 OFFCURVE",
"476 420 OFFCURVE",
"477 350 CURVE",
"400 -27 LINE",
"581 -27 LINE",
"626 305 LINE SMOOTH",
"642 424 OFFCURVE",
"676 470 OFFCURVE",
"745 470 CURVE SMOOTH",
"798 470 OFFCURVE",
"816 442 OFFCURVE",
"816 343 CURVE",
"779 -27 LINE",
"972 -27 LINE",
"960 331 LINE SMOOTH",
"955 469 OFFCURVE",
"863 587 OFFCURVE",
"755 587 CURVE SMOOTH",
"679 587 OFFCURVE",
"623 559 OFFCURVE",
"577 497 CURVE"
);
}
);
width = 1024;
}
);
unicode = 006D;
},
{
glyphname = mlonglegturned;
lastChange = "2019-09-02 02:16:03 +0000";
layers = (
{
components = (
{
name = mturned;
transform = "{1, 0, 0, 1, 2, 0}";
}
);
layerId = "BA196CD0-EE58-4274-B8DF-4393D3617A29";
paths = (
{
closed = 1;
nodes = (
"776 -200 LINE",
"885 -200 LINE",
"940 496 LINE",
"816 496 LINE"
);
}
);
width = 1028;
},
{
components = (
{
name = mturned;
transform = "{1, 0, 0, 1, 2, 0}";
}
);
layerId = "BBDB329E-CE83-4304-A6B1-53EA5ACC004E";
paths = (
{
closed = 1;
nodes = (
"747 -227 LINE",
"910 -227 LINE",
"969 523 LINE",
"791 523 LINE"
);
}
);
width = 1028;
}
);
unicode = 0270;
},
{
color = 7;
glyphname = n;
lastChange = "2019-09-02 02:51:16 +0000";
layers = (
{
anchors = (
{
name = bottom;
position = "{321, 0}";
},
{
name = center;
position = "{338, 269}";
},
{
name = eng;
position = "{525, 19}";
},
{
name = top;
position = "{321, 547}";
},
{
name = topright;
position = "{661, 726}";
}
);
layerId = "BA196CD0-EE58-4274-B8DF-4393D3617A29";
paths = (
{
closed = 1;
nodes = (
"555 497 OFFCURVE",
"489 555 OFFCURVE",
"364 555 CURVE SMOOTH",
"288 555 OFFCURVE",
"246 524 OFFCURVE",
"203 495 CURVE",
"186 556 LINE",
"120 556 LINE",
"80 0 LINE",
"218 0 LINE",
"194 314 LINE SMOOTH",
"186 419 OFFCURVE",
"244 482 OFFCURVE",
"354 482 CURVE SMOOTH",
"434 482 OFFCURVE",
"490 439 OFFCURVE",
"481 339 CURVE SMOOTH",
"450 0 LINE",
"589 0 LINE",
"567 323 LINE SMOOTH"
);
}
);
width = 669;
},
{
anchors = (
{
name = bottom;
position = "{321, 0}";
},
{
name = center;
position = "{338, 269}";
},
{
name = eng;
position = "{525, 19}";
},
{
name = top;
position = "{321, 653}";
},
{
name = topright;
position = "{661, 726}";
}
);
layerId = "BBDB329E-CE83-4304-A6B1-53EA5ACC004E";
paths = (
{
closed = 1;
nodes = (
"582 503 OFFCURVE",
"512 582 OFFCURVE",
"364 582 CURVE SMOOTH",
"299 582 OFFCURVE",
"255 561 OFFCURVE",
"219 538 CURVE",
"207 583 LINE",
"95 583 LINE",
"51 -27 LINE",
"247 -27 LINE",
"221 316 LINE SMOOTH",
"214 406 OFFCURVE",
"261 455 OFFCURVE",
"354 455 CURVE SMOOTH",
"427 455 OFFCURVE",
"461 417 OFFCURVE",
"454 341 CURVE SMOOTH",
"420 -27 LINE",
"618 -27 LINE",
"594 325 LINE SMOOTH"
);
}
);
width = 669;
}
);
unicode = 006E;
},
{
glyphname = nhookleft;
lastChange = "2019-09-02 02:16:03 +0000";
layers = (
{
components = (
{
name = n;
transform = "{1, 0, 0, 1, 82, 0}";
}
);
layerId = "BA196CD0-EE58-4274-B8DF-4393D3617A29";
paths = (
{
closed = 1;
nodes = (
"181 -198 OFFCURVE",
"208 -198 OFFCURVE",
"247 -198 CURVE SMOOTH",
"294 -198 OFFCURVE",
"294 -145 OFFCURVE",
"294 0 CURVE",
"157 0 LINE",
"157 -79 OFFCURVE",
"156 -90 OFFCURVE",
"80 -90 CURVE",
"80 -198 LINE"
);
}
);
width = 751;
},
{
components = (
{
name = n;
transform = "{1, 0, 0, 1, 82, 0}";
}
);
layerId = "BBDB329E-CE83-4304-A6B1-53EA5ACC004E";
paths = (
{
closed = 1;
nodes = (
"177 -225 OFFCURVE",
"205 -225 OFFCURVE",
"247 -225 CURVE SMOOTH",
"321 -225 OFFCURVE",
"321 -157 OFFCURVE",
"321 27 CURVE",
"130 27 LINE",
"129 -92 OFFCURVE",
"137 -57 OFFCURVE",
"53 -64 CURVE",
"53 -225 LINE"
);
}
);
width = 751;
}
);
unicode = 0272;
},
{
glyphname = nhookretroflex;
lastChange = "2019-09-02 02:16:03 +0000";
layers = (
{
anchors = (
{
name = _bottom_hook;
position = "{967.809, 379.718}";
}
);
components = (
{
name = n;
}
);
layerId = "BA196CD0-EE58-4274-B8DF-4393D3617A29";
paths = (
{
closed = 1;
nodes = (
"661 -87 LINE",
"585 -87 OFFCURVE",
"584 -76 OFFCURVE",
"584 3 CURVE",
"447 3 LINE",
"447 -142 OFFCURVE",
"447 -195 OFFCURVE",
"494 -195 CURVE SMOOTH",
"533 -195 OFFCURVE",
"560 -195 OFFCURVE",
"661 -195 CURVE"
);
}
);
width = 741;
},
{
anchors = (
{
name = _bottom_hook;
position = "{968, 380}";
}
);
components = (
{
name = n;
}
);
layerId = "BBDB329E-CE83-4304-A6B1-53EA5ACC004E";
paths = (
{
closed = 1;
nodes = (
"688 -61 LINE",
"604 -54 OFFCURVE",
"612 -89 OFFCURVE",
"611 30 CURVE",
"420 30 LINE",
"420 -154 OFFCURVE",
"420 -222 OFFCURVE",
"494 -222 CURVE SMOOTH",
"536 -222 OFFCURVE",
"564 -222 OFFCURVE",
"688 -222 CURVE"
);
}
);
width = 741;
}
);
unicode = 0273;
},
{
color = 7;
glyphname = o;
lastChange = "2019-09-02 02:52:17 +0000";
layers = (
{
anchors = (
{
name = _;
position = "{331, 555}";
},
{
name = bottom;
position = "{331, 0}";
},
{
name = center;
position = "{331, 250}";
},
{
name = dotbelow;
position = "{337, -35}";
},
{
name = horn;
position = "{549, 435}";
},
{
name = ogonek;
position = "{592, 10}";
},
{
name = top;
position = "{331, 599}";
},
{
name = topright;
position = "{637, 500}";
}
);
layerId = "BA196CD0-EE58-4274-B8DF-4393D3617A29";
paths = (
{
closed = 1;
nodes = (
"427 483 OFFCURVE",
"487 403 OFFCURVE",
"487 289 CURVE SMOOTH",
"487 163 OFFCURVE",
"466 141 OFFCURVE",
"331 141 CURVE SMOOTH",
"216 141 OFFCURVE",
"175 161 OFFCURVE",
"175 289 CURVE SMOOTH",
"175 405 OFFCURVE",
"235 483 OFFCURVE",
"331 483 CURVE SMOOTH"
);
},
{
closed = 1;
nodes = (
"174 549 OFFCURVE",
"80 442 OFFCURVE",
"80 273 CURVE SMOOTH",
"80 94 OFFCURVE",
"174 -14 OFFCURVE",
"331 -14 CURVE SMOOTH",
"487 -14 OFFCURVE",
"582 94 OFFCURVE",
"582 273 CURVE SMOOTH",
"582 442 OFFCURVE",
"487 549 OFFCURVE",
"331 549 CURVE SMOOTH"
);
}
);
width = 662;
},
{
anchors = (
{
name = _;
position = "{331, 645}";
},
{
name = bottom;
position = "{331, 17}";
},
{
name = center;
position = "{331, 250}";
},
{
name = dotbelow;
position = "{331, -59}";
},
{
name = horn;
position = "{549, 435}";
},
{
name = ogonek;
position = "{592, 10}";
},
{
name = top;
position = "{331, 649}";
},
{
name = topright;
position = "{637, 500}";
}
);
layerId = "BBDB329E-CE83-4304-A6B1-53EA5ACC004E";
paths = (
{
closed = 1;
nodes = (
"409 456 OFFCURVE",
"460 392 OFFCURVE",
"460 289 CURVE SMOOTH",
"460 179 OFFCURVE",
"450 168 OFFCURVE",
"331 168 CURVE SMOOTH",
"222 168 OFFCURVE",
"202 185 OFFCURVE",
"202 289 CURVE SMOOTH",
"202 393 OFFCURVE",
"252 456 OFFCURVE",
"331 456 CURVE SMOOTH"
);
},
{
closed = 1;
nodes = (
"161 576 OFFCURVE",
"53 458 OFFCURVE",
"53 273 CURVE SMOOTH",
"53 79 OFFCURVE",
"159 -41 OFFCURVE",
"331 -41 CURVE SMOOTH",
"503 -41 OFFCURVE",
"609 80 OFFCURVE",
"609 273 CURVE SMOOTH",
"609 458 OFFCURVE",
"501 576 OFFCURVE",
"331 576 CURVE SMOOTH"
);
}
);
width = 662;
}
);
leftKerningGroup = Round;
rightKerningGroup = RoundRight;
unicode = 006F;
},
{
color = 7;
glyphname = p;
lastChange = "2019-09-02 02:53:45 +0000";
layers = (
{
anchors = (
{
name = bottom;
position = "{366, 0}";
},
{
name = center;
position = "{162, -97}";
},
{
name = top;
position = "{366, 500}";
},
{
name = top_hook;
position = "{188, 202}";
}
);
hints = (
{
place = "{141, 115}";
type = Stem;
},
{
horizontal = 1;
place = "{497, 63}";
type = Stem;
},
{
horizontal = 1;
place = "{-3, 140}";
type = Stem;
},
{
place = "{562, 63}";
type = Stem;
}
);
layerId = "BA196CD0-EE58-4274-B8DF-4393D3617A29";
paths = (
{
closed = 1;
nodes = (
"289 17 OFFCURVE",
"347 -14 OFFCURVE",
"427 -14 CURVE SMOOTH",
"560 -14 OFFCURVE",
"651 101 OFFCURVE",
"651 273 CURVE SMOOTH",
"651 438 OFFCURVE",
"560 553 OFFCURVE",
"427 553 CURVE SMOOTH",
"347 553 OFFCURVE",
"289 522 OFFCURVE",
"252 457 CURVE",
"234 532 LINE",
"144 532 LINE",
"160 237 LINE",
"80 -212 LINE",
"209 -204 LINE",
"252 82 LINE"
);
},
{
closed = 1;
nodes = (
"593 156 OFFCURVE",
"540 134 OFFCURVE",
"445 134 CURVE SMOOTH",
"350 134 OFFCURVE",
"288 156 OFFCURVE",
"288 289 CURVE SMOOTH",
"288 414 OFFCURVE",
"345 493 OFFCURVE",
"440 493 CURVE SMOOTH",
"536 493 OFFCURVE",
"593 414 OFFCURVE",
"593 289 CURVE SMOOTH"
);
}
);
width = 731;
},
{
anchors = (
{
name = bottom;
position = "{366, 0}";
},
{
name = center;
position = "{140, -150}";
},
{
name = top;
position = "{383, 587}";
},
{
name = top_hook;
position = "{188, 202}";
}
);
hints = (
{
place = "{141, 115}";
type = Stem;
},
{
horizontal = 1;
place = "{497, 63}";
type = Stem;
},
{
horizontal = 1;
place = "{-3, 140}";
type = Stem;
},
{
place = "{562, 63}";
type = Stem;
}
);
layerId = "BBDB329E-CE83-4304-A6B1-53EA5ACC004E";
paths = (
{
closed = 1;
nodes = (
"309 -22 OFFCURVE",
"362 -41 OFFCURVE",
"427 -41 CURVE SMOOTH",
"576 -41 OFFCURVE",
"678 87 OFFCURVE",
"678 273 CURVE SMOOTH",
"678 453 OFFCURVE",
"575 580 OFFCURVE",
"427 580 CURVE SMOOTH",
"360 580 OFFCURVE",
"305 559 OFFCURVE",
"265 519 CURVE",
"255 559 LINE",
"115 559 LINE",
"133 239 LINE",
"47 -241 LINE",
"232 -230 LINE",
"269 16 LINE"
);
},
{
closed = 1;
nodes = (
"566 186 OFFCURVE",
"541 161 OFFCURVE",
"445 161 CURVE SMOOTH",
"345 161 OFFCURVE",
"315 189 OFFCURVE",
"315 289 CURVE SMOOTH",
"315 401 OFFCURVE",
"362 466 OFFCURVE",
"440 466 CURVE SMOOTH",
"519 466 OFFCURVE",
"566 401 OFFCURVE",
"566 289 CURVE SMOOTH"
);
}
);
width = 731;
}
);
rightKerningGroup = RoundRight;
unicode = 0070;
},
{
glyphname = thorn;
lastChange = "2019-09-02 02:16:03 +0000";
layers = (
{
layerId = "BA196CD0-EE58-4274-B8DF-4393D3617A29";
paths = (
{
closed = 1;
nodes = (
"96 -180 LINE",
"184 -180 LINE",
"168 800 LINE",
"80 800 LINE"
);
},
{
closed = 1;
nodes = (
"296 50 OFFCURVE",
"476 151 OFFCURVE",
"480 371 CURVE SMOOTH",
"483 535 OFFCURVE",
"300 636 OFFCURVE",
"156 636 CURVE",
"92 498 OFFCURVE",
"85 188 OFFCURVE",
"151 50 CURVE"
);
},
{
closed = 1;
nodes = (
"150 137 OFFCURVE",
"104 235 OFFCURVE",
"107 375 CURVE SMOOTH",
"109 460 OFFCURVE",
"150 559 OFFCURVE",
"203 559 CURVE SMOOTH",
"255 559 OFFCURVE",
"411 460 OFFCURVE",
"409 375 CURVE SMOOTH",
"406 235 OFFCURVE",
"255 137 OFFCURVE",
"203 137 CURVE SMOOTH"
);
}
);
width = 560;
},
{
layerId = "BBDB329E-CE83-4304-A6B1-53EA5ACC004E";
paths = (
{
closed = 1;
nodes = (
"69 -207 LINE",
"211 -207 LINE",
"195 827 LINE",
"53 827 LINE"
);
},
{
closed = 1;
nodes = (
"151 23 LINE",
"350 23 OFFCURVE",
"503 171 OFFCURVE",
"507 371 CURVE SMOOTH",
"510 528 OFFCURVE",
"345 663 OFFCURVE",
"156 663 CURVE",
"132 647 LINE",
"62 497 OFFCURVE",
"59 179 OFFCURVE",
"127 38 CURVE"
);
},
{
closed = 1;
nodes = (
"167 164 OFFCURVE",
"132 261 OFFCURVE",
"134 374 CURVE SMOOTH",
"136 453 OFFCURVE",
"173 532 OFFCURVE",
"203 532 CURVE SMOOTH",
"262 532 OFFCURVE",
"383 427 OFFCURVE",
"382 376 CURVE SMOOTH",
"379 250 OFFCURVE",
"247 164 OFFCURVE",
"203 164 CURVE SMOOTH"
);
}
);
width = 560;
}
);
unicode = 00FE;
},
{
color = 7;
glyphname = q;
lastChange = "2019-09-02 02:16:03 +0000";
layers = (
{
associatedMasterId = "BA196CD0-EE58-4274-B8DF-4393D3617A29";
layerId = "550EFC85-22CC-4D43-B167-1DAEAAA2FB65";
name = "Regular May 31 12, 16:28";
paths = (
{
closed = 1;
nodes = (
"157 153 OFFCURVE",
"212 136 OFFCURVE",
"308 136 CURVE SMOOTH",
"403 136 OFFCURVE",
"463 153 OFFCURVE",
"463 286 CURVE SMOOTH",
"463 418 OFFCURVE",
"405 498 OFFCURVE",
"310 498 CURVE SMOOTH",
"215 498 OFFCURVE",
"157 418 OFFCURVE",
"157 286 CURVE SMOOTH"
);
},
{
closed = 1;
nodes = (
"497 82 LINE",
"459 17 OFFCURVE",
"402 -14 OFFCURVE",
"321 -14 CURVE SMOOTH",
"189 -14 OFFCURVE",
"98 101 OFFCURVE",
"98 273 CURVE SMOOTH",
"98 445 OFFCURVE",
"189 560 OFFCURVE",
"321 560 CURVE SMOOTH",
"402 560 OFFCURVE",
"459 529 OFFCURVE",
"497 464 CURVE",
"511 547 LINE",
"598 547 LINE",
"561 -118 LINE SMOOTH",
"557 -208 LINE",
"474 -208 LINE"
);
}
);
width = 718;
},
{
anchors = (
{
name = bottom;
position = "{385, 0}";
},
{
name = bottom_hook;
position = "{555, -127}";
},
{
name = top;
position = "{385, 500}";
},
{
name = top_hook;
position = "{530, 218}";
}
);
layerId = "BA196CD0-EE58-4274-B8DF-4393D3617A29";
paths = (
{
closed = 1;
nodes = (
"140 418 OFFCURVE",
"194 492 OFFCURVE",
"290 492 CURVE SMOOTH",
"385 492 OFFCURVE",
"446 418 OFFCURVE",
"446 286 CURVE SMOOTH",
"446 153 OFFCURVE",
"385 137 OFFCURVE",
"290 137 CURVE",
"195 137 OFFCURVE",
"140 153 OFFCURVE",
"140 286 CURVE SMOOTH"
);
},
{
closed = 1;
nodes = (
"684 -140 LINE",
"690 -20 LINE",
"604 -50 LINE",
"534 -70 LINE",
"546 186 LINE",
"581 547 LINE",
"494 547 LINE",
"494 427 LINE",
"440 512 OFFCURVE",
"397 554 OFFCURVE",
"301 554 CURVE SMOOTH",
"169 554 OFFCURVE",
"80 445 OFFCURVE",
"80 273 CURVE SMOOTH",
"80 101 OFFCURVE",
"172 -14 OFFCURVE",
"304 -14 CURVE SMOOTH",
"384 -14 OFFCURVE",
"441 17 OFFCURVE",
"479 82 CURVE",
"452 -208 LINE"
);
}
);
width = 770;
},
{
associatedMasterId = "BBDB329E-CE83-4304-A6B1-53EA5ACC004E";
layerId = "5892CAD6-04FA-4732-8FAB-EB7591270E8A";
name = "Regular May 31 12, 16:28";
paths = (
{
closed = 1;
nodes = (
"157 153 OFFCURVE",
"212 136 OFFCURVE",
"308 136 CURVE SMOOTH",
"403 136 OFFCURVE",
"463 153 OFFCURVE",
"463 286 CURVE SMOOTH",
"463 418 OFFCURVE",
"405 498 OFFCURVE",
"310 498 CURVE SMOOTH",
"215 498 OFFCURVE",
"157 418 OFFCURVE",
"157 286 CURVE SMOOTH"
);
},
{
closed = 1;
nodes = (
"497 82 LINE",
"459 17 OFFCURVE",
"402 -14 OFFCURVE",
"321 -14 CURVE SMOOTH",
"189 -14 OFFCURVE",
"98 101 OFFCURVE",
"98 273 CURVE SMOOTH",
"98 445 OFFCURVE",
"189 560 OFFCURVE",
"321 560 CURVE SMOOTH",
"402 560 OFFCURVE",
"459 529 OFFCURVE",
"497 464 CURVE",
"511 547 LINE",
"598 547 LINE",
"561 -118 LINE SMOOTH",
"557 -208 LINE",
"474 -208 LINE"
);
}
);
width = 718;
},
{
anchors = (
{
name = bottom;
position = "{385, 0}";
},
{
name = bottom_hook;
position = "{555, -127}";
},
{
name = top;
position = "{385, 500}";
},
{
name = top_hook;
position = "{530, 218}";
}
);
layerId = "BBDB329E-CE83-4304-A6B1-53EA5ACC004E";
paths = (
{
closed = 1;
nodes = (
"167 404 OFFCURVE",
"210 465 OFFCURVE",
"290 465 CURVE SMOOTH",
"371 465 OFFCURVE",
"419 400 OFFCURVE",
"419 286 CURVE SMOOTH",
"419 188 OFFCURVE",
"392 164 OFFCURVE",
"290 164 CURVE SMOOTH",
"191 164 OFFCURVE",
"167 186 OFFCURVE",
"167 286 CURVE SMOOTH"
);
},
{
closed = 1;
nodes = (
"710 -161 LINE",
"719 19 LINE",
"596 -24 LINE",
"563 -34 LINE",
"573 184 LINE",
"611 574 LINE",
"467 574 LINE",
"467 509 LINE",
"420 562 OFFCURVE",
"372 581 OFFCURVE",
"301 581 CURVE SMOOTH",
"152 581 OFFCURVE",
"53 457 OFFCURVE",
"53 273 CURVE SMOOTH",
"53 88 OFFCURVE",
"155 -41 OFFCURVE",
"304 -41 CURVE SMOOTH",
"360 -41 OFFCURVE",
"407 -27 OFFCURVE",
"444 2 CURVE",
"421 -245 LINE"
);
}
);
width = 770;
}
);
leftKerningGroup = Round;
unicode = 0071;
},
{
glyphname = qhooktail;
lastChange = "2019-09-02 02:55:24 +0000";
layers = (
{
components = (
{
name = q;
transform = "{1, 0, 0, 1, -52, 0}";
},
{
name = od_bottom_wide_hook;
transform = "{0.84741, 0.53094, -0.53094, 0.84741, 537, -516}";
}
);
layerId = "BA196CD0-EE58-4274-B8DF-4393D3617A29";
paths = (
{
closed = 1;
nodes = (
"482 -70 LINE",
"552 -50 LINE",
"638 -20 LINE",
"632 -140 LINE",
"400 -208 LINE",
"416 -39 LINE",
"482 -20 LINE"
);
}
);
width = 770;
},
{
components = (
{
name = q;
transform = "{1, 0, 0, 1, -52, 0}";
},
{
name = od_bottom_wide_hook;
transform = "{0.85655, 0.51607, -0.51607, 0.85655, 520, -440}";
}
);
layerId = "BBDB329E-CE83-4304-A6B1-53EA5ACC004E";
paths = (
{
closed = 1;
nodes = (
"455 -106 LINE",
"560 -76 LINE",
"609 -59 LINE",
"606 -119 LINE",
"431 -171 LINE",
"441 -60 LINE",
"455 -56 LINE"
);
}
);
width = 770;
}
);
unicode = 024B;
},
{
color = 7;
glyphname = r;
lastChange = "2019-09-02 02:54:13 +0000";
layers = (
{
anchors = (
{
name = bottom;
position = "{172, 0}";
},
{
name = bottom_wide;
position = "{203, 0}";
},
{
name = center;
position = "{165, 274}";
},
{
name = top;
position = "{221, 547}";
}
);
layerId = "BA196CD0-EE58-4274-B8DF-4393D3617A29";
paths = (
{
closed = 1;
nodes = (
"302 543 OFFCURVE",
"274 528 OFFCURVE",
"219 486 CURVE",
"219 542 LINE",
"126 545 LINE",
"126 317 OFFCURVE",
"121 196 OFFCURVE",
"80 0 CURVE",
"251 0 LINE",
"222 164 OFFCURVE",
"219 256 OFFCURVE",
"219 314 CURVE SMOOTH",
"219 411 OFFCURVE",
"271 443 OFFCURVE",
"432 459 CURVE",
"418 549 LINE"
);
}
);
width = 512;
},
{
anchors = (
{
name = bottom;
position = "{172, -41}";
},
{
name = bottom_wide;
position = "{203, 0}";
},
{
name = center;
position = "{165, 274}";
},
{
name = top;
position = "{221, 585}";
}
);
layerId = "BBDB329E-CE83-4304-A6B1-53EA5ACC004E";
paths = (
{
closed = 1;
nodes = (
"341 573 OFFCURVE",
"295 566 OFFCURVE",
"246 537 CURVE",
"246 568 LINE",
"99 573 LINE",
"99 314 OFFCURVE",
"95 195 OFFCURVE",
"47 -27 CURVE",
"283 -27 LINE",
"249 155 OFFCURVE",
"246 253 OFFCURVE",
"246 314 CURVE SMOOTH",
"246 396 OFFCURVE",
"287 420 OFFCURVE",
"463 435 CURVE",
"441 577 LINE"
);
}
);
width = 512;
}
);
unicode = 0072;
},
{
glyphname = ramshorn;
lastChange = "2019-09-02 02:16:03 +0000";
layers = (
{
anchors = (
{
name = _curl;
position = "{209, 459}";
},
{
name = bottom;
position = "{374, 0}";
},
{
name = top;
position = "{374, 540}";
}
);
layerId = "BA196CD0-EE58-4274-B8DF-4393D3617A29";
paths = (
{
closed = 1;
nodes = (
"616 397 OFFCURVE",
"611 515 OFFCURVE",
"489 513 CURVE SMOOTH",
"362 511 OFFCURVE",
"343 427 OFFCURVE",
"288 295 CURVE SMOOTH",
"239 178 OFFCURVE",
"194 96 OFFCURVE",
"224 51 CURVE SMOOTH",
"258 0 OFFCURVE",
"282 -8 OFFCURVE",
"342 -8 CURVE SMOOTH",
"385 -8 OFFCURVE",
"437 1 OFFCURVE",
"472 51 CURVE SMOOTH",
"507 102 OFFCURVE",
"468 172 OFFCURVE",
"421 268 CURVE SMOOTH",
"361 391 OFFCURVE",
"310 511 OFFCURVE",
"223 511 CURVE SMOOTH",
"80 511 OFFCURVE",
"80 422 OFFCURVE",
"80 339 CURVE",
"142 339 LINE",
"142 422 OFFCURVE",
"150 448 OFFCURVE",
"226 448 CURVE SMOOTH",
"286 448 OFFCURVE",
"315 345 OFFCURVE",
"351 224 CURVE SMOOTH",
"383 117 OFFCURVE",
"406 57 OFFCURVE",
"342 57 CURVE SMOOTH",
"290 57 OFFCURVE",
"306 115 OFFCURVE",
"351 224 CURVE SMOOTH",
"405 354 OFFCURVE",
"430 453 OFFCURVE",
"489 453 CURVE SMOOTH",
"532 453 OFFCURVE",
"547 397 OFFCURVE",
"551 339 CURVE",
"616 339 LINE"
);
}
);
width = 696;
},
{
anchors = (
{
name = _curl;
position = "{209, 459}";
},
{
name = bottom;
position = "{374, 0}";
},
{
name = top;
position = "{374, 540}";
}
);
layerId = "BBDB329E-CE83-4304-A6B1-53EA5ACC004E";
paths = (
{
closed = 1;
nodes = (
"643 398 OFFCURVE",
"637 542 OFFCURVE",
"489 540 CURVE SMOOTH",
"340 538 OFFCURVE",
"317 435 OFFCURVE",
"263 305 CURVE SMOOTH",
"215 190 OFFCURVE",
"162 95 OFFCURVE",
"202 36 CURVE SMOOTH",
"239 -20 OFFCURVE",
"269 -35 OFFCURVE",
"342 -35 CURVE SMOOTH",
"410 -35 OFFCURVE",
"461 -12 OFFCURVE",
"494 36 CURVE SMOOTH",
"539 101 OFFCURVE",
"492 185 OFFCURVE",
"445 280 CURVE SMOOTH",
"386 402 OFFCURVE",
"328 538 OFFCURVE",
"223 538 CURVE SMOOTH",
"34 538 OFFCURVE",
"55 394 OFFCURVE",
"53 312 CURVE",
"169 312 LINE",
"169 414 OFFCURVE",
"167 421 OFFCURVE",
"226 421 CURVE SMOOTH",
"254 421 OFFCURVE",
"277 379 OFFCURVE",
"325 216 CURVE SMOOTH",
"363 89 OFFCURVE",
"364 84 OFFCURVE",
"342 84 CURVE SMOOTH",
"329 84 OFFCURVE",
"332 108 OFFCURVE",
"376 214 CURVE SMOOTH",
"430 343 OFFCURVE",
"453 426 OFFCURVE",
"489 426 CURVE SMOOTH",
"508 426 OFFCURVE",
"524 388 OFFCURVE",
"525 312 CURVE",
"643 312 LINE"
);
}
);
width = 696;
}
);
unicode = 0264;
},
{
glyphname = rfishhook;
lastChange = "2019-09-02 02:16:03 +0000";
layers = (
{
anchors = (
{
name = _top_hook;
position = "{121, 66}";
},
{
name = center;
position = "{125, 299}";
}
);
layerId = "BA196CD0-EE58-4274-B8DF-4393D3617A29";
paths = (
{
closed = 1;
nodes = (
"80 4 LINE",
"165 4 LINE",
"165 399 LINE",
"80 399 LINE"
);
},
{
closed = 1;
nodes = (
"110 567 OFFCURVE",
"86 561 OFFCURVE",
"82 449 CURVE SMOOTH",
"80 399 OFFCURVE",
"80 415 OFFCURVE",
"80 345 CURVE",
"165 345 LINE",
"165 376 OFFCURVE",
"165 401 OFFCURVE",
"165 430 CURVE SMOOTH",
"165 478 OFFCURVE",
"168 481 OFFCURVE",
"236 481 CURVE",
"236 566 LINE"
);
}
);
width = 316;
},
{
anchors = (
{
name = _top_hook;
position = "{121, 66}";
},
{
name = center;
position = "{125, 299}";
}
);
layerId = "BBDB329E-CE83-4304-A6B1-53EA5ACC004E";
paths = (
{
closed = 1;
nodes = (
"53 -23 LINE",
"192 -23 LINE",
"192 426 LINE",
"53 426 LINE"
);
},
{
closed = 1;
nodes = (
"92 596 OFFCURVE",
"60 580 OFFCURVE",
"55 450 CURVE SMOOTH",
"53 395 OFFCURVE",
"53 420 OFFCURVE",
"53 318 CURVE",
"192 318 LINE",
"192 365 OFFCURVE",
"192 393 OFFCURVE",
"192 430 CURVE SMOOTH",
"192 466 OFFCURVE",
"180 451 OFFCURVE",
"263 455 CURVE",
"263 593 LINE"
);
}
);
width = 316;
}
);
unicode = 027E;
},
{
glyphname = rlonglegturned;
lastChange = "2019-09-02 02:16:03 +0000";
layers = (
{
components = (
{
name = rturned;
transform = "{1, 0, 0, 1, 5, 0}";
}
);
layerId = "BA196CD0-EE58-4274-B8DF-4393D3617A29";
paths = (
{
closed = 1;
nodes = (
"261 500 LINE",
"429 500 LINE",
"454 800 LINE",
"229 800 LINE"
);
}
);
width = 539;
},
{
components = (
{
name = rturned;
transform = "{1, 0, 0, 1, 5, 0}";
}
);
layerId = "BBDB329E-CE83-4304-A6B1-53EA5ACC004E";
paths = (
{
closed = 1;
nodes = (
"237 473 LINE",
"454 473 LINE",
"483 827 LINE",
"199 827 LINE"
);
}
);
width = 539;
}
);
unicode = 027A;
},
{
color = 7;
glyphname = s;
lastChange = "2019-09-02 02:56:21 +0000";
layers = (
{
anchors = (
{
name = _right_el;
position = "{141, 529}";
},
{
name = bottom;
position = "{319, 12}";
},
{
name = bottom_hook;
position = "{130, -98}";
},
{
name = center;
position = "{314, 269}";
},
{
name = top;
position = "{328, 547}";
}
);
layerId = "BA196CD0-EE58-4274-B8DF-4393D3617A29";
paths = (
{
closed = 1;
nodes = (
"434 558 OFFCURVE",
"399 564 OFFCURVE",
"332 564 CURVE SMOOTH",
"159 564 OFFCURVE",
"124 479 OFFCURVE",
"124 376 CURVE SMOOTH",
"124 284 OFFCURVE",
"245 251 OFFCURVE",
"291 235 CURVE SMOOTH",
"363 210 OFFCURVE",
"432 229 OFFCURVE",
"432 177 CURVE SMOOTH",
"432 135 OFFCURVE",
"386 127 OFFCURVE",
"321 127 CURVE SMOOTH",
"260 127 OFFCURVE",
"236 135 OFFCURVE",
"178 157 CURVE",
"80 49 LINE",
"166 8 OFFCURVE",
"251 -14 OFFCURVE",
"319 -14 CURVE SMOOTH",
"471 -14 OFFCURVE",
"549 -11 OFFCURVE",
"549 157 CURVE SMOOTH",
"549 235 OFFCURVE",
"463 270 OFFCURVE",
"353 292 CURVE SMOOTH",
"256 311 OFFCURVE",
"187 331 OFFCURVE",
"181 400 CURVE SMOOTH",
"177 447 OFFCURVE",
"214 497 OFFCURVE",
"343 497 CURVE SMOOTH",
"401 497 OFFCURVE",
"401 497 OFFCURVE",
"463 489 CURVE",
"484 549 LINE"
);
}
);
width = 629;
},
{
anchors = (
{
name = _right_el;
position = "{141, 529}";
},
{
name = bottom;
position = "{319, -53}";
},
{
name = bottom_hook;
position = "{130, -98}";
},
{
name = center;
position = "{314, 269}";
},
{
name = top;
position = "{332, 591}";
}
);
layerId = "BBDB329E-CE83-4304-A6B1-53EA5ACC004E";
paths = (
{
closed = 1;
nodes = (
"452 582 OFFCURVE",
"415 591 OFFCURVE",
"332 591 CURVE SMOOTH",
"172 591 OFFCURVE",
"97 523 OFFCURVE",
"97 376 CURVE SMOOTH",
"97 263 OFFCURVE",
"237 225 OFFCURVE",
"282 209 CURVE SMOOTH",
"366 180 OFFCURVE",
"405 199 OFFCURVE",
"405 177 CURVE SMOOTH",
"405 162 OFFCURVE",
"385 154 OFFCURVE",
"321 154 CURVE SMOOTH",
"259 154 OFFCURVE",
"242 162 OFFCURVE",
"170 189 CURVE",
"36 41 LINE",
"135 -11 OFFCURVE",
"238 -41 OFFCURVE",
"319 -41 CURVE SMOOTH",
"472 -41 OFFCURVE",
"576 -37 OFFCURVE",
"576 157 CURVE SMOOTH",
"576 239 OFFCURVE",
"506 289 OFFCURVE",
"358 318 CURVE SMOOTH",
"245 341 OFFCURVE",
"212 360 OFFCURVE",
"208 402 CURVE SMOOTH",
"204 444 OFFCURVE",
"252 470 OFFCURVE",
"343 470 CURVE SMOOTH",
"409 470 OFFCURVE",
"401 470 OFFCURVE",
"481 459 CURVE",
"520 570 LINE"
);
}
);
width = 629;
}
);
unicode = 0073;
},
{
glyphname = saltillo;
lastChange = "2019-09-02 02:16:03 +0000";
layers = (
{
layerId = "BA196CD0-EE58-4274-B8DF-4393D3617A29";
paths = (
{
closed = 1;
nodes = (
"276 336 LINE",
"323 336 LINE",
"361 758 LINE",
"240 758 LINE"
);
}
);
width = 600;
},
{
layerId = "BBDB329E-CE83-4304-A6B1-53EA5ACC004E";
paths = (
{
closed = 1;
nodes = (
"251 309 LINE",
"348 309 LINE",
"391 785 LINE",
"211 785 LINE"
);
}
);
width = 600;
}
);
unicode = A78C;
},
{
glyphname = germandbls;
lastChange = "2019-09-02 02:16:03 +0000";
layers = (
{
layerId = "BA196CD0-EE58-4274-B8DF-4393D3617A29";
paths = (
{
closed = 1;
nodes = (
"215 0 LINE",
"191 553 LINE",
"204 665 OFFCURVE",
"246 705 OFFCURVE",
"330 705 CURVE SMOOTH",
"404 705 OFFCURVE",
"437 699 OFFCURVE",
"488 580 CURVE",
"357 561 OFFCURVE",
"328 502 OFFCURVE",
"328 420 CURVE SMOOTH",
"328 366 OFFCURVE",
"363 319 OFFCURVE",
"393 281 CURVE",
"433 254 LINE",
"465 234 OFFCURVE",
"487 217 OFFCURVE",
"497 203 CURVE SMOOTH",
"506 189 OFFCURVE",
"511 176 OFFCURVE",
"511 162 CURVE SMOOTH",
"511 122 OFFCURVE",
"471 100 OFFCURVE",
"395 100 CURVE SMOOTH",
"353 100 OFFCURVE",
"309 109 OFFCURVE",
"256 129 CURVE",
"256 10 LINE",
"304 -6 OFFCURVE",
"348 -14 OFFCURVE",
"390 -14 CURVE SMOOTH",
"527 -14 OFFCURVE",
"602 47 OFFCURVE",
"602 159 CURVE SMOOTH",
"602 224 OFFCURVE",
"582 260 OFFCURVE",
"475 329 CURVE SMOOTH",
"447 347 LINE SMOOTH",
"404 375 OFFCURVE",
"387 399 OFFCURVE",
"387 430 CURVE SMOOTH",
"387 493 OFFCURVE",
"444 532 OFFCURVE",
"542 537 CURVE",
"542 683 OFFCURVE",
"468 760 OFFCURVE",
"332 760 CURVE SMOOTH",
"190 760 OFFCURVE",
"109 686 OFFCURVE",
"109 555 CURVE",
"80 0 LINE"
);
}
);
width = 682;
},
{
layerId = "BBDB329E-CE83-4304-A6B1-53EA5ACC004E";
paths = (
{
closed = 1;
nodes = (
"243 -27 LINE",
"218 552 LINE",
"229 646 OFFCURVE",
"259 678 OFFCURVE",
"330 678 CURVE SMOOTH",
"396 678 OFFCURVE",
"417 668 OFFCURVE",
"449 600 CURVE",
"347 577 OFFCURVE",
"301 521 OFFCURVE",
"301 420 CURVE SMOOTH",
"301 355 OFFCURVE",
"344 299 OFFCURVE",
"374 261 CURVE",
"418 231 LINE",
"449 212 OFFCURVE",
"467 198 OFFCURVE",
"475 188 CURVE",
"482 177 OFFCURVE",
"484 170 OFFCURVE",
"484 162 CURVE SMOOTH",
"484 141 OFFCURVE",
"457 127 OFFCURVE",
"395 127 CURVE SMOOTH",
"347 127 OFFCURVE",
"296 140 OFFCURVE",
"229 169 CURVE",
"229 -9 LINE",
"287 -31 OFFCURVE",
"340 -41 OFFCURVE",
"390 -41 CURVE SMOOTH",
"542 -41 OFFCURVE",
"629 32 OFFCURVE",
"629 159 CURVE SMOOTH",
"629 239 OFFCURVE",
"597 282 OFFCURVE",
"490 352 CURVE SMOOTH",
"462 370 LINE SMOOTH",
"426 393 OFFCURVE",
"414 409 OFFCURVE",
"414 430 CURVE SMOOTH",
"414 476 OFFCURVE",
"459 506 OFFCURVE",
"543 510 CURVE",
"569 537 LINE",
"569 697 OFFCURVE",
"484 787 OFFCURVE",
"332 787 CURVE SMOOTH",
"175 787 OFFCURVE",
"82 701 OFFCURVE",
"82 556 CURVE",
"52 -27 LINE"
);
}
);
width = 682;
}
);
unicode = 00DF;
},
{
color = 7;
glyphname = t;
lastChange = "2019-09-02 02:57:51 +0000";
layers = (
{
anchors = (
{
name = bottom;
position = "{333, 3}";
},
{
name = caron;
position = "{376, 616}";
},
{
name = center;
position = "{242, 341}";
},
{
name = circumflexbelowcomb;
position = "{331, 0}";
},
{
name = curl;
position = "{447, 584}";
},
{
name = top;
position = "{266, 708}";
},
{
name = top_hook;
position = "{252, 639}";
},
{
name = topright;
position = "{541, 500}";
}
);
layerId = "BA196CD0-EE58-4274-B8DF-4393D3617A29";
paths = (
{
closed = 1;
nodes = (
"80 548 LINE",
"486 548 LINE",
"468 615 LINE",
"109 615 LINE"
);
},
{
closed = 1;
nodes = (
"434 151 OFFCURVE",
"333 151 OFFCURVE",
"282 151 CURVE",
"316 737 LINE",
"222 737 LINE",
"197 499 OFFCURVE",
"162 74 OFFCURVE",
"162 50 CURVE SMOOTH",
"162 43 OFFCURVE",
"166 0 OFFCURVE",
"200 0 CURVE SMOOTH",
"247 0 OFFCURVE",
"423 0 OFFCURVE",
"460 2 CURVE",
"452 150 LINE"
);
}
);
width = 566;
},
{
anchors = (
{
name = bottom;
position = "{333, -59}";
},
{
name = caron;
position = "{376, 616}";
},
{
name = center;
position = "{242, 341}";
},
{
name = circumflexbelowcomb;
position = "{331, 0}";
},
{
name = curl;
position = "{447, 584}";
},
{
name = top;
position = "{266, 770}";
},
{
name = top_hook;
position = "{252, 692}";
},
{
name = topright;
position = "{541, 500}";
}
);
layerId = "BBDB329E-CE83-4304-A6B1-53EA5ACC004E";
paths = (
{
closed = 1;
nodes = (
"39 521 LINE",
"521 521 LINE",
"489 642 LINE",
"91 642 LINE"
);
},
{
closed = 1;
nodes = (
"438 178 OFFCURVE",
"364 178 OFFCURVE",
"311 178 CURVE",
"345 764 LINE",
"198 764 LINE",
"173 532 OFFCURVE",
"135 76 OFFCURVE",
"135 50 CURVE SMOOTH",
"135 9 OFFCURVE",
"161 -27 OFFCURVE",
"200 -27 CURVE",
"162 -27 OFFCURVE",
"210 -27 OFFCURVE",
"489 -28 CURVE",
"478 176 LINE"
);
}
);
width = 566;
}
);
unicode = 0074;
},
{
glyphname = tesh;
lastChange = "2019-09-02 02:16:03 +0000";
layers = (
{
components = (
{
name = t;
transform = "{1, 0, 0.03492, 1, -19, 0}";
},
{
name = esh;
transform = "{0.97435, 0.22503, -0.22503, 0.97435, 233, -67}";
}
);
layerId = "BA196CD0-EE58-4274-B8DF-4393D3617A29";
paths = (
{
closed = 1;
nodes = (
"396 549 LINE",
"546 549 LINE",
"546 615 LINE",
"396 615 LINE"
);
}
);
width = 921;
},
{
components = (
{
name = t;
transform = "{1, 0, 0.03492, 1, -19, 0}";
},
{
name = esh;
transform = "{0.97435, 0.22503, -0.22503, 0.97435, 233, -67}";
}
);
layerId = "BBDB329E-CE83-4304-A6B1-53EA5ACC004E";
paths = (
{
closed = 1;
nodes = (
"369 522 LINE",
"573 522 LINE",
"573 642 LINE",
"369 642 LINE"
);
}
);
width = 921;
}
);
unicode = 02A7;
},
{
glyphname = tretroflexhook;
lastChange = "2019-09-02 02:16:03 +0000";
layers = (
{
anchors = (
{
name = bottom;
position = "{338, 0}";
},
{
name = caron;
position = "{376, 616}";
},
{
name = center;
position = "{242, 341}";
},
{
name = circumflexbelowcomb;
position = "{347, -25}";
},
{
name = curl;
position = "{447, 584}";
},
{
name = top;
position = "{254, 661}";
},
{
name = top_hook;
position = "{252, 639}";
},
{
name = topright;
position = "{541, 500}";
}
);
layerId = "BA196CD0-EE58-4274-B8DF-4393D3617A29";
paths = (
{
closed = 1;
nodes = (
"80 548 LINE",
"486 548 LINE",
"468 615 LINE",
"109 615 LINE"
);
},
{
closed = 1;
nodes = (
"404 11 OFFCURVE",
"333 11 OFFCURVE",
"282 11 CURVE",
"316 737 LINE",
"222 737 LINE",
"197 499 OFFCURVE",
"162 -66 OFFCURVE",
"162 -90 CURVE SMOOTH",
"162 -97 OFFCURVE",
"166 -140 OFFCURVE",
"200 -140 CURVE SMOOTH",
"247 -140 OFFCURVE",
"393 -140 OFFCURVE",
"430 -138 CURVE",
"422 10 LINE"
);
}
);
width = 566;
},
{
anchors = (
{
name = bottom;
position = "{338, 0}";
},
{
name = caron;
position = "{376, 616}";
},
{
name = center;
position = "{242, 341}";
},
{
name = circumflexbelowcomb;
position = "{347, -25}";
},
{
name = curl;
position = "{447, 584}";
},
{
name = top;
position = "{254, 661}";
},
{
name = top_hook;
position = "{252, 639}";
},
{
name = topright;
position = "{541, 500}";
}
);
layerId = "BBDB329E-CE83-4304-A6B1-53EA5ACC004E";
paths = (
{
closed = 1;
nodes = (
"39 521 LINE",
"521 521 LINE",
"489 642 LINE",
"91 642 LINE"
);
},
{
closed = 1;
nodes = (
"408 38 OFFCURVE",
"356 38 OFFCURVE",
"310 38 CURVE",
"344 764 LINE",
"198 764 LINE",
"173 542 OFFCURVE",
"135 -64 OFFCURVE",
"135 -90 CURVE SMOOTH",
"135 -131 OFFCURVE",
"161 -167 OFFCURVE",
"200 -167 CURVE",
"158 -167 OFFCURVE",
"195 -167 OFFCURVE",
"459 -168 CURVE",
"448 36 LINE"
);
}
);
width = 566;
}
);
unicode = 0288;
},
{
glyphname = ts;
lastChange = "2019-09-02 02:16:03 +0000";
layers = (
{
components = (
{
alignment = -1;
name = s;
transform = "{1, 0, 0, 1.05709, 357, 15}";
},
{
alignment = -1;
name = t;
transform = "{0.93149, 0, 0, 1, 5, 0}";
}
);
layerId = "BA196CD0-EE58-4274-B8DF-4393D3617A29";
paths = (
{
closed = 1;
nodes = (
"335 549 LINE",
"693 549 LINE",
"693 612 LINE",
"335 615 LINE"
);
}
);
width = 986;
},
{
components = (
{
alignment = -1;
name = s;
transform = "{1, 0, 0, 1.05709, 357, 15}";
},
{
alignment = -1;
name = t;
transform = "{0.93149, 0, 0, 1, 5, 0}";
}
);
layerId = "BBDB329E-CE83-4304-A6B1-53EA5ACC004E";
paths = (
{
closed = 1;
nodes = (
"308 522 LINE",
"720 522 LINE",
"720 639 LINE",
"308 642 LINE"
);
}
);
width = 986;
}
);
unicode = 02A6;
},
{
color = 7;
glyphname = u;
lastChange = "2019-09-02 02:58:06 +0000";
layers = (
{
anchors = (
{
name = bottom;
position = "{327, 0}";
},
{
name = horn;
position = "{571, 456}";
},
{
name = ogonek;
position = "{512, 5}";
},
{
name = top;
position = "{314, 630}";
},
{
name = topright;
position = "{629, 500}";
}
);
layerId = "BA196CD0-EE58-4274-B8DF-4393D3617A29";
paths = (
{
closed = 1;
nodes = (
"113 27 OFFCURVE",
"170 -16 OFFCURVE",
"293 -16 CURVE SMOOTH",
"372 -16 OFFCURVE",
"434 -7 OFFCURVE",
"469 84 CURVE",
"465 0 LINE",
"574 0 LINE",
"554 547 LINE",
"465 547 LINE",
"455 315 LINE",
"447 225 OFFCURVE",
"411 140 OFFCURVE",
"314 140 CURVE SMOOTH",
"233 140 OFFCURVE",
"189 140 OFFCURVE",
"176 297 CURVE SMOOTH",
"155 547 LINE",
"80 547 LINE",
"101 216 LINE SMOOTH"
);
}
);
width = 654;
},
{
anchors = (
{
name = bottom;
position = "{327, 0}";
},
{
name = horn;
position = "{571, 456}";
},
{
name = ogonek;
position = "{512, 5}";
},
{
name = top;
position = "{314, 666}";
},
{
name = topright;
position = "{629, 500}";
}
);
layerId = "BBDB329E-CE83-4304-A6B1-53EA5ACC004E";
paths = (
{
closed = 1;
nodes = (
"86 25 OFFCURVE",
"143 -43 OFFCURVE",
"293 -43 CURVE SMOOTH",
"358 -43 OFFCURVE",
"404 -33 OFFCURVE",
"438 -8 CURVE",
"437 -27 LINE",
"602 -27 LINE",
"580 574 LINE",
"439 574 LINE",
"428 317 LINE",
"419 217 OFFCURVE",
"380 167 OFFCURVE",
"314 167 CURVE SMOOTH",
"233 167 OFFCURVE",
"214 167 OFFCURVE",
"203 299 CURVE SMOOTH",
"180 574 LINE",
"51 574 LINE",
"74 214 LINE SMOOTH"
);
}
);
width = 654;
}
);
unicode = 0075;
},
{
color = 7;
glyphname = v;
lastChange = "2019-09-02 02:59:25 +0000";
layers = (
{
anchors = (
{
name = bottom;
position = "{377, 0}";
},
{
name = top;
position = "{377, 500}";
}
);
layerId = "BA196CD0-EE58-4274-B8DF-4393D3617A29";
paths = (
{
closed = 1;
nodes = (
"474 0 LINE",
"494 144 LINE",
"674 547 LINE",
"579 547 LINE",
"387 146 LINE",
"175 547 LINE",
"80 547 LINE",
"262 144 LINE",
"290 0 LINE"
);
}
);
width = 754;
},
{
anchors = (
{
name = bottom;
position = "{377, 0}";
},
{
name = top;
position = "{377, 570}";
}
);
layerId = "BBDB329E-CE83-4304-A6B1-53EA5ACC004E";
paths = (
{
closed = 1;
nodes = (
"498 -27 LINE",
"520 136 LINE",
"716 574 LINE",
"562 574 LINE",
"386 206 LINE",
"191 574 LINE",
"38 574 LINE",
"236 136 LINE",
"268 -27 LINE"
);
}
);
width = 754;
}
);
unicode = 0076;
},
{
glyphname = vhook;
lastChange = "2019-09-02 02:16:03 +0000";
layers = (
{
anchors = (
{
name = _vhook;
position = "{410, 456}";
},
{
name = bottom;
position = "{356, 0}";
},
{
name = horn;
position = "{520, 446}";
},
{
name = ogonek;
position = "{349, -48}";
},
{
name = top;
position = "{343, 506}";
},
{
name = topright;
position = "{608, 500}";
}
);
layerId = "BA196CD0-EE58-4274-B8DF-4393D3617A29";
paths = (
{
closed = 1;
nodes = (
"80 27 OFFCURVE",
"170 -16 OFFCURVE",
"293 -16 CURVE SMOOTH",
"499 -16 OFFCURVE",
"480 161 OFFCURVE",
"480 258 CURVE SMOOTH",
"480 469 OFFCURVE",
"498 570 OFFCURVE",
"309 570 CURVE",
"309 495 LINE",
"402 495 OFFCURVE",
"391 410 OFFCURVE",
"391 354 CURVE SMOOTH",
"391 197 OFFCURVE",
"390 140 OFFCURVE",
"293 140 CURVE SMOOTH",
"212 140 OFFCURVE",
"165 140 OFFCURVE",
"165 297 CURVE SMOOTH",
"165 547 LINE",
"80 547 LINE",
"80 216 LINE SMOOTH"
);
}
);
width = 560;
},
{
anchors = (
{
name = _vhook;
position = "{410, 456}";
},
{
name = bottom;
position = "{356, 0}";
},
{
name = horn;
position = "{520, 446}";
},
{
name = ogonek;
position = "{349, -48}";
},
{
name = top;
position = "{343, 506}";
},
{
name = topright;
position = "{608, 500}";
}
);
layerId = "BBDB329E-CE83-4304-A6B1-53EA5ACC004E";
paths = (
{
closed = 1;
nodes = (
"53 38 OFFCURVE",
"129 -43 OFFCURVE",
"293 -43 CURVE SMOOTH",
"529 -43 OFFCURVE",
"507 162 OFFCURVE",
"507 258 CURVE SMOOTH",
"507 475 OFFCURVE",
"532 607 OFFCURVE",
"282 596 CURVE",
"282 467 LINE",
"357 471 OFFCURVE",
"364 466 OFFCURVE",
"364 354 CURVE SMOOTH",
"364 183 OFFCURVE",
"357 167 OFFCURVE",
"293 167 CURVE SMOOTH",
"212 167 OFFCURVE",
"192 167 OFFCURVE",
"192 297 CURVE SMOOTH",
"192 574 LINE",
"53 574 LINE",
"53 216 LINE SMOOTH"
);
}
);
width = 560;
}
);
unicode = 028B;
},
{
color = 7;
glyphname = w;
lastChange = "2019-09-02 02:16:03 +0000";
layers = (
{
anchors = (
{
name = bottom;
position = "{447, 0}";
},
{
name = top;
position = "{447, 627}";
},
{
name = top_hook;
position = "{879, 311}";
}
);
layerId = "BA196CD0-EE58-4274-B8DF-4393D3617A29";
paths = (
{
closed = 1;
nodes = (
"344 0 LINE",
"447 189 LINE",
"546 0 LINE",
"671 0 LINE",
"814 547 LINE",
"724 547 LINE",
"612 198 LINE",
"478 423 LINE",
"416 423 LINE",
"282 198 LINE",
"170 547 LINE",
"80 547 LINE",
"223 0 LINE"
);
}
);
width = 894;
},
{
anchors = (
{
name = bottom;
position = "{447, 0}";
},
{
name = top;
position = "{447, 627}";
},
{
name = top_hook;
position = "{879, 311}";
}
);
layerId = "BBDB329E-CE83-4304-A6B1-53EA5ACC004E";
paths = (
{
closed = 1;
nodes = (
"360 -27 LINE",
"447 132 LINE",
"530 -27 LINE",
"692 -27 LINE",
"849 574 LINE",
"704 574 LINE",
"605 263 LINE",
"493 450 LINE",
"401 450 LINE",
"289 263 LINE",
"190 574 LINE",
"45 574 LINE",
"202 -27 LINE"
);
}
);
width = 894;
}
);
unicode = 0077;
},
{
color = 7;
glyphname = x;
lastChange = "2019-09-02 02:16:03 +0000";
layers = (
{
anchors = (
{
name = bottom;
position = "{395, 0}";
},
{
name = top;
position = "{395, 500}";
}
);
layerId = "BA196CD0-EE58-4274-B8DF-4393D3617A29";
paths = (
{
closed = 1;
nodes = (
"514 -7 LINE",
"654 -10 LINE",
"176 528 LINE",
"80 528 LINE"
);
},
{
closed = 1;
nodes = (
"109 0 LINE",
"248 0 LINE",
"709 528 LINE",
"618 528 LINE"
);
}
);
width = 789;
},
{
anchors = (
{
name = bottom;
position = "{395, 0}";
},
{
name = top;
position = "{395, 500}";
}
);
layerId = "BBDB329E-CE83-4304-A6B1-53EA5ACC004E";
paths = (
{
closed = 1;
nodes = (
"501 -34 LINE",
"715 -38 LINE",
"188 555 LINE",
"23 555 LINE"
);
},
{
closed = 1;
nodes = (
"45 -27 LINE",
"260 -27 LINE",
"768 555 LINE",
"607 555 LINE"
);
}
);
width = 789;
}
);
leftKerningGroup = Round;
unicode = 0078;
},
{
color = 7;
glyphname = y;
lastChange = "2019-09-02 02:16:03 +0000";
layers = (
{
anchors = (
{
name = bottom;
position = "{346, 0}";
},
{
name = top;
position = "{357, 630}";
},
{
name = top_hook;
position = "{673, 319}";
}
);
layerId = "BA196CD0-EE58-4274-B8DF-4393D3617A29";
paths = (
{
closed = 1;
nodes = (
"517 547 LINE",
"399 209 LINE",
"175 547 LINE",
"80 547 LINE",
"357 108 LINE",
"319 -39 OFFCURVE",
"264 -99 OFFCURVE",
"173 -99 CURVE SMOOTH",
"110 -99 LINE",
"110 -218 LINE",
"192 -218 LINE SMOOTH",
"272 -218 OFFCURVE",
"344 -206 OFFCURVE",
"408 -63 CURVE",
"612 547 LINE"
);
}
);
width = 692;
},
{
anchors = (
{
name = bottom;
position = "{346, 0}";
},
{
name = top;
position = "{357, 630}";
},
{
name = top_hook;
position = "{673, 319}";
}
);
layerId = "BBDB329E-CE83-4304-A6B1-53EA5ACC004E";
paths = (
{
closed = 1;
nodes = (
"498 574 LINE",
"391 269 LINE",
"189 574 LINE",
"31 574 LINE",
"328 104 LINE",
"293 -23 OFFCURVE",
"248 -72 OFFCURVE",
"173 -72 CURVE SMOOTH",
"83 -72 LINE",
"83 -245 LINE",
"192 -245 LINE SMOOTH",
"313 -245 OFFCURVE",
"377 -200 OFFCURVE",
"433 -73 CURVE",
"649 574 LINE"
);
}
);
width = 692;
}
);
unicode = 0079;
},
{
color = 7;
glyphname = z;
lastChange = "2019-09-02 03:02:33 +0000";
layers = (
{
anchors = (
{
name = _right_el;
position = "{183, 539}";
},
{
name = bottom;
position = "{336, 0}";
},
{
name = bottomhook;
position = "{472, 27}";
},
{
name = center;
position = "{336, 288}";
},
{
name = top;
position = "{349, 547}";
}
);
layerId = "BA196CD0-EE58-4274-B8DF-4393D3617A29";
paths = (
{
closed = 1;
nodes = (
"482 482 LINE",
"104 131 LINE",
"80 0 LINE",
"581 0 LINE",
"524 121 LINE",
"239 121 LINE",
"591 482 LINE",
"578 549 LINE",
"169 549 LINE",
"169 482 LINE"
);
}
);
width = 671;
},
{
anchors = (
{
name = _right_el;
position = "{183, 539}";
},
{
name = bottom;
position = "{336, 0}";
},
{
name = bottomhook;
position = "{472, 27}";
},
{
name = center;
position = "{336, 288}";
},
{
name = top;
position = "{373, 582}";
}
);
layerId = "BBDB329E-CE83-4304-A6B1-53EA5ACC004E";
paths = (
{
closed = 1;
nodes = (
"413 455 LINE",
"79 145 LINE",
"48 -27 LINE",
"624 -27 LINE",
"541 148 LINE",
"303 148 LINE",
"620 473 LINE",
"600 576 LINE",
"142 576 LINE",
"142 455 LINE"
);
}
);
width = 671;
}
);
unicode = 007A;
},
{
glyphname = zcurl;
lastChange = "2019-09-02 02:16:03 +0000";
layers = (
{
anchors = (
{
name = _right_el;
position = "{204, 514}";
},
{
name = bottom;
position = "{336, 0}";
},
{
name = center;
position = "{336, 288}";
},
{
name = top;
position = "{349, 547}";
}
);
layerId = "BA196CD0-EE58-4274-B8DF-4393D3617A29";
paths = (
{
closed = 1;
nodes = (
"482 482 LINE",
"104 131 LINE",
"80 0 LINE",
"509 0 LINE SMOOTH",
"641 0 OFFCURVE",
"707 219 OFFCURVE",
"569 255 CURVE SMOOTH",
"433 291 OFFCURVE",
"383 181 OFFCURVE",
"383 -193 CURVE",
"482 -193 LINE",
"482 175 OFFCURVE",
"517 192 OFFCURVE",
"545 169 CURVE SMOOTH",
"557 159 OFFCURVE",
"572 121 OFFCURVE",
"479 121 CURVE SMOOTH",
"239 121 LINE",
"591 482 LINE",
"578 549 LINE",
"169 549 LINE",
"169 482 LINE"
);
}
);
width = 726;
},
{
anchors = (
{
name = _right_el;
position = "{204, 514}";
},
{
name = bottom;
position = "{336, 0}";
},
{
name = center;
position = "{336, 288}";
},
{
name = top;
position = "{349, 547}";
}
);
layerId = "BBDB329E-CE83-4304-A6B1-53EA5ACC004E";
paths = (
{
closed = 1;
nodes = (
"413 455 LINE",
"79 145 LINE",
"48 -27 LINE",
"509 -27 LINE SMOOTH",
"679 -27 OFFCURVE",
"739 239 OFFCURVE",
"576 281 CURVE SMOOTH",
"410 325 OFFCURVE",
"353 186 OFFCURVE",
"356 -220 CURVE",
"509 -220 LINE",
"507 -24 OFFCURVE",
"527 149 OFFCURVE",
"528 148 CURVE",
"527 149 OFFCURVE",
"482 148 OFFCURVE",
"479 148 CURVE SMOOTH",
"303 148 LINE",
"620 473 LINE",
"600 576 LINE",
"142 576 LINE",
"142 455 LINE"
);
}
);
width = 726;
}
);
unicode = 0291;
},
{
glyphname = zretroflexhook;
lastChange = "2019-09-02 02:16:03 +0000";
layers = (
{
components = (
{
name = z;
},
{
name = od_hook;
transform = "{1, 0, 0, 1, 243, -335}";
}
);
layerId = "BA196CD0-EE58-4274-B8DF-4393D3617A29";
paths = (
{
closed = 1;
nodes = (
"524 0 LINE",
"599 0 LINE",
"599 121 LINE",
"485 121 LINE"
);
}
);
width = 679;
},
{
components = (
{
name = z;
},
{
name = od_hook;
transform = "{1, 0, 0, 1, 243, -335}";
}
);
layerId = "BBDB329E-CE83-4304-A6B1-53EA5ACC004E";
paths = (
{
closed = 1;
nodes = (
"504 -27 LINE",
"626 -27 LINE",
"626 148 LINE",
"448 148 LINE"
);
}
);
width = 679;
}
);
unicode = 0290;
},
{
color = 7;
glyphname = a.ss001;
lastChange = "2019-09-02 03:02:19 +0000";
layers = (
{
anchors = (
{
name = bottom;
position = "{382, 0}";
},
{
name = ogonek;
position = "{543, 29}";
},
{
name = top;
position = "{371, 577}";
}
);
background = {
components = (
{
alignment = -1;
name = "";
transform = "{1, 0, 0, 1, 49, 150}";
},
{
alignment = -1;
name = "";
transform = "{1, 0, 0, 1, 49, 200}";
},
{
alignment = -1;
name = "";
transform = "{1, 0, 0, 1, 99, 50}";
},
{
alignment = -1;
name = "";
transform = "{1, 0, 0, 1, 99, 100}";
},
{
alignment = -1;
name = "";
transform = "{1, 0, 0, 1, 99, 150}";
},
{
alignment = -1;
name = "";
transform = "{1, 0, 0, 1, 99, 200}";
},
{
alignment = -1;
name = "";
transform = "{1, 0, 0, 1, 99, 250}";
},
{
alignment = -1;
name = "";
transform = "{1, 0, 0, 1, 99, 300}";
},
{
alignment = -1;
name = "";
transform = "{1, 0, 0, 1, 99, 350}";
},
{
alignment = -1;
name = "";
transform = "{1, 0, 0, 1, 149, 0}";
},
{
alignment = -1;
name = "";
transform = "{1, 0, 0, 1, 149, 50}";
},
{
alignment = -1;
name = "";
transform = "{1, 0, 0, 1, 149, 100}";
},
{
alignment = -1;
name = "";
transform = "{1, 0, 0, 1, 149, 400}";
},
{
alignment = -1;
name = "";
transform = "{1, 0, 0, 1, 199, 0}";
},
{
alignment = -1;
name = "";
transform = "{1, 0, 0, 1, 199, 50}";
},
{
alignment = -1;
name = "";
transform = "{1, 0, 0, 1, 199, 100}";
},
{
alignment = -1;
name = "";
transform = "{1, 0, 0, 1, 199, 450}";
},
{
alignment = -1;
name = "";
transform = "{1, 0, 0, 1, 249, 0}";
},
{
alignment = -1;
name = "";
transform = "{1, 0, 0, 1, 249, 50}";
},
{
alignment = -1;
name = "";
transform = "{1, 0, 0, 1, 249, 100}";
},
{
alignment = -1;
name = "";
transform = "{1, 0, 0, 1, 249, 450}";
},
{
alignment = -1;
name = "";
transform = "{1, 0, 0, 1, 299, 0}";
},
{
alignment = -1;
name = "";
transform = "{1, 0, 0, 1, 299, 50}";
},
{
alignment = -1;
name = "";
transform = "{1, 0, 0, 1, 299, 100}";
},
{
alignment = -1;
name = "";
transform = "{1, 0, 0, 1, 299, 450}";
},
{
alignment = -1;
name = "";
transform = "{1, 0, 0, 1, 349, 0}";
},
{
alignment = -1;
name = "";
transform = "{1, 0, 0, 1, 349, 50}";
},
{
alignment = -1;
name = "";
transform = "{1, 0, 0, 1, 349, 100}";
},
{
alignment = -1;
name = "";
transform = "{1, 0, 0, 1, 349, 450}";
},
{
alignment = -1;
name = "";
transform = "{1, 0, 0, 1, 399, 0}";
},
{
alignment = -1;
name = "";
transform = "{1, 0, 0, 1, 399, 50}";
},
{
alignment = -1;
name = "";
transform = "{1, 0, 0, 1, 399, 100}";
},
{
alignment = -1;
name = "";
transform = "{1, 0, 0, 1, 399, 450}";
},
{
alignment = -1;
name = "";
transform = "{1, 0, 0, 1, 449, 50}";
},
{
alignment = -1;
name = "";
transform = "{1, 0, 0, 1, 449, 100}";
},
{
alignment = -1;
name = "";
transform = "{1, 0, 0, 1, 449, 150}";
},
{
alignment = -1;
name = "";
transform = "{1, 0, 0, 1, 449, 200}";
},
{
alignment = -1;
name = "";
transform = "{1, 0, 0, 1, 449, 250}";
},
{
alignment = -1;
name = "";
transform = "{1, 0, 0, 1, 449, 300}";
},
{
alignment = -1;
name = "";
transform = "{1, 0, 0, 1, 449, 350}";
},
{
alignment = -1;
name = "";
transform = "{1, 0, 0, 1, 449, 400}";
},
{
alignment = -1;
name = "";
transform = "{1, 0, 0, 1, 449, 450}";
},
{
alignment = -1;
name = "";
transform = "{1, 0, 0, 1, 449, 500}";
},
{
alignment = -1;
name = "";
transform = "{1, 0, 0, 1, 499, 0}";
},
{
alignment = -1;
name = "";
transform = "{1, 0, 0, 1, 499, 50}";
},
{
alignment = -1;
name = "";
transform = "{1, 0, 0, 1, 499, 100}";
},
{
alignment = -1;
name = "";
transform = "{1, 0, 0, 1, 499, 150}";
},
{
alignment = -1;
name = "";
transform = "{1, 0, 0, 1, 499, 200}";
},
{
alignment = -1;
name = "";
transform = "{1, 0, 0, 1, 499, 250}";
},
{
alignment = -1;
name = "";
transform = "{1, 0, 0, 1, 499, 300}";
},
{
alignment = -1;
name = "";
transform = "{1, 0, 0, 1, 499, 350}";
}
);
paths = (
{
closed = 1;
nodes = (
"458 525 LINE",
"509 525 LINE",
"576 0 LINE",
"486 0 LINE",
"486 82 LINE",
"448 17 OFFCURVE",
"376 -14 OFFCURVE",
"296 -14 CURVE SMOOTH",
"134 -14 OFFCURVE",
"34 105 OFFCURVE",
"79 273 CURVE SMOOTH",
"118 419 OFFCURVE",
"205 525 OFFCURVE",
"296 525 CURVE SMOOTH",
"367 525 OFFCURVE",
"434 504 OFFCURVE",
"470 446 CURVE"
);
},
{
closed = 1;
nodes = (
"111 175 OFFCURVE",
"134 136 OFFCURVE",
"284 138 CURVE SMOOTH",
"465 140 OFFCURVE",
"469 170 OFFCURVE",
"469 299 CURVE SMOOTH",
"469 448 OFFCURVE",
"362 476 OFFCURVE",
"295 476 CURVE",
"234 476 OFFCURVE",
"175 434 OFFCURVE",
"141 296 CURVE SMOOTH"
);
}
);
};
layerId = "BA196CD0-EE58-4274-B8DF-4393D3617A29";
paths = (
{
closed = 1;
nodes = (
"337 276 LINE SMOOTH",
"227 276 OFFCURVE",
"193 252 OFFCURVE",
"188 196 CURVE SMOOTH",
"187 186 OFFCURVE",
"187 178 OFFCURVE",
"191 167 CURVE SMOOTH",
"204 126 OFFCURVE",
"244 122 OFFCURVE",
"297 122 CURVE SMOOTH",
"378 122 OFFCURVE",
"410 141 OFFCURVE",
"410 256 CURVE SMOOTH",
"410 252 LINE SMOOTH",
"410 268 OFFCURVE",
"401 276 OFFCURVE",
"388 276 CURVE SMOOTH"
);
},
{
closed = 1;
nodes = (
"536 24 LINE SMOOTH",
"536 9 OFFCURVE",
"536 21 OFFCURVE",
"536 0 CURVE",
"455 0 LINE",
"455 13 OFFCURVE",
"455 8 OFFCURVE",
"455 24 CURVE SMOOTH",
"455 35 LINE SMOOTH",
"455 56 OFFCURVE",
"445 60 OFFCURVE",
"430 45 CURVE SMOOTH",
"395 6 OFFCURVE",
"348 -14 OFFCURVE",
"284 -14 CURVE SMOOTH",
"185 -14 OFFCURVE",
"120 53 OFFCURVE",
"120 157 CURVE SMOOTH",
"120 279 OFFCURVE",
"194 342 OFFCURVE",
"341 342 CURVE SMOOTH",
"433 342 LINE SMOOTH",
"447 342 OFFCURVE",
"455 345 OFFCURVE",
"455 350 CURVE SMOOTH",
"455 433 OFFCURVE",
"410 482 OFFCURVE",
"315 489 CURVE",
"268 489 OFFCURVE",
"223 478 OFFCURVE",
"182 458 CURVE SMOOTH",
"167 450 OFFCURVE",
"169 452 OFFCURVE",
"156 441 CURVE",
"156 516 LINE",
"159 517 OFFCURVE",
"162 519 OFFCURVE",
"174 524 CURVE SMOOTH",
"226 545 OFFCURVE",
"276 554 OFFCURVE",
"323 554 CURVE SMOOTH",
"466 554 OFFCURVE",
"536 474 OFFCURVE",
"536 309 CURVE SMOOTH"
);
}
);
width = 656;
},
{
anchors = (
{
name = bottom;
position = "{382, 0}";
},
{
name = ogonek;
position = "{543, 29}";
},
{
name = top;
position = "{371, 577}";
}
);
background = {
components = (
{
alignment = -1;
name = "";
transform = "{1, 0, 0, 1, 49, 150}";
},
{
alignment = -1;
name = "";
transform = "{1, 0, 0, 1, 49, 200}";
},
{
alignment = -1;
name = "";
transform = "{1, 0, 0, 1, 99, 50}";
},
{
alignment = -1;
name = "";
transform = "{1, 0, 0, 1, 99, 100}";
},
{
alignment = -1;
name = "";
transform = "{1, 0, 0, 1, 99, 150}";
},
{
alignment = -1;
name = "";
transform = "{1, 0, 0, 1, 99, 200}";
},
{
alignment = -1;
name = "";
transform = "{1, 0, 0, 1, 99, 250}";
},
{
alignment = -1;
name = "";
transform = "{1, 0, 0, 1, 99, 300}";
},
{
alignment = -1;
name = "";
transform = "{1, 0, 0, 1, 99, 350}";
},
{
alignment = -1;
name = "";
transform = "{1, 0, 0, 1, 149, 0}";
},
{
alignment = -1;
name = "";
transform = "{1, 0, 0, 1, 149, 50}";
},
{
alignment = -1;
name = "";
transform = "{1, 0, 0, 1, 149, 100}";
},
{
alignment = -1;
name = "";
transform = "{1, 0, 0, 1, 149, 400}";
},
{
alignment = -1;
name = "";
transform = "{1, 0, 0, 1, 199, 0}";
},
{
alignment = -1;
name = "";
transform = "{1, 0, 0, 1, 199, 50}";
},
{
alignment = -1;
name = "";
transform = "{1, 0, 0, 1, 199, 100}";
},
{
alignment = -1;
name = "";
transform = "{1, 0, 0, 1, 199, 450}";
},
{
alignment = -1;
name = "";
transform = "{1, 0, 0, 1, 249, 0}";
},
{
alignment = -1;
name = "";
transform = "{1, 0, 0, 1, 249, 50}";
},
{
alignment = -1;
name = "";
transform = "{1, 0, 0, 1, 249, 100}";
},
{
alignment = -1;
name = "";
transform = "{1, 0, 0, 1, 249, 450}";
},
{
alignment = -1;
name = "";
transform = "{1, 0, 0, 1, 299, 0}";
},
{
alignment = -1;
name = "";
transform = "{1, 0, 0, 1, 299, 50}";
},
{
alignment = -1;
name = "";
transform = "{1, 0, 0, 1, 299, 100}";
},
{
alignment = -1;
name = "";
transform = "{1, 0, 0, 1, 299, 450}";
},
{
alignment = -1;
name = "";
transform = "{1, 0, 0, 1, 349, 0}";
},
{
alignment = -1;
name = "";
transform = "{1, 0, 0, 1, 349, 50}";
},
{
alignment = -1;
name = "";
transform = "{1, 0, 0, 1, 349, 100}";
},
{
alignment = -1;
name = "";
transform = "{1, 0, 0, 1, 349, 450}";
},
{
alignment = -1;
name = "";
transform = "{1, 0, 0, 1, 399, 0}";
},
{
alignment = -1;
name = "";
transform = "{1, 0, 0, 1, 399, 50}";
},
{
alignment = -1;
name = "";
transform = "{1, 0, 0, 1, 399, 100}";
},
{
alignment = -1;
name = "";
transform = "{1, 0, 0, 1, 399, 450}";
},
{
alignment = -1;
name = "";
transform = "{1, 0, 0, 1, 449, 50}";
},
{
alignment = -1;
name = "";
transform = "{1, 0, 0, 1, 449, 100}";
},
{
alignment = -1;
name = "";
transform = "{1, 0, 0, 1, 449, 150}";
},
{
alignment = -1;
name = "";
transform = "{1, 0, 0, 1, 449, 200}";
},
{
alignment = -1;
name = "";
transform = "{1, 0, 0, 1, 449, 250}";
},
{
alignment = -1;
name = "";
transform = "{1, 0, 0, 1, 449, 300}";
},
{
alignment = -1;
name = "";
transform = "{1, 0, 0, 1, 449, 350}";
},
{
alignment = -1;
name = "";
transform = "{1, 0, 0, 1, 449, 400}";
},
{
alignment = -1;
name = "";
transform = "{1, 0, 0, 1, 449, 450}";
},
{
alignment = -1;
name = "";
transform = "{1, 0, 0, 1, 449, 500}";
},
{
alignment = -1;
name = "";
transform = "{1, 0, 0, 1, 499, 0}";
},
{
alignment = -1;
name = "";
transform = "{1, 0, 0, 1, 499, 50}";
},
{
alignment = -1;
name = "";
transform = "{1, 0, 0, 1, 499, 100}";
},
{
alignment = -1;
name = "";
transform = "{1, 0, 0, 1, 499, 150}";
},
{
alignment = -1;
name = "";
transform = "{1, 0, 0, 1, 499, 200}";
},
{
alignment = -1;
name = "";
transform = "{1, 0, 0, 1, 499, 250}";
},
{
alignment = -1;
name = "";
transform = "{1, 0, 0, 1, 499, 300}";
},
{
alignment = -1;
name = "";
transform = "{1, 0, 0, 1, 499, 350}";
}
);
paths = (
{
closed = 1;
nodes = (
"458 525 LINE",
"509 525 LINE",
"576 0 LINE",
"486 0 LINE",
"486 82 LINE",
"448 17 OFFCURVE",
"376 -14 OFFCURVE",
"296 -14 CURVE SMOOTH",
"134 -14 OFFCURVE",
"34 105 OFFCURVE",
"79 273 CURVE SMOOTH",
"118 419 OFFCURVE",
"205 525 OFFCURVE",
"296 525 CURVE SMOOTH",
"367 525 OFFCURVE",
"434 504 OFFCURVE",
"470 446 CURVE"
);
},
{
closed = 1;
nodes = (
"111 175 OFFCURVE",
"134 136 OFFCURVE",
"284 138 CURVE SMOOTH",
"465 140 OFFCURVE",
"469 170 OFFCURVE",
"469 299 CURVE SMOOTH",
"469 448 OFFCURVE",
"362 476 OFFCURVE",
"295 476 CURVE",
"234 476 OFFCURVE",
"175 434 OFFCURVE",
"141 296 CURVE SMOOTH"
);
}
);
};
layerId = "BBDB329E-CE83-4304-A6B1-53EA5ACC004E";
paths = (
{
closed = 1;
nodes = (
"388 249 OFFCURVE",
"383 254 OFFCURVE",
"383 252 CURVE",
"437 252 LINE",
"432 207 LINE",
"388 143 OFFCURVE",
"369 149 OFFCURVE",
"297 149 CURVE SMOOTH",
"231 149 OFFCURVE",
"219 157 OFFCURVE",
"214 185 CURVE",
"214 187 OFFCURVE",
"215 190 OFFCURVE",
"215 193 CURVE",
"219 235 OFFCURVE",
"244 249 OFFCURVE",
"337 249 CURVE SMOOTH",
"388 249 LINE"
);
},
{
closed = 1;
nodes = (
"536 466 OFFCURVE",
"466 554 OFFCURVE",
"323 554 CURVE SMOOTH",
"276 554 OFFCURVE",
"226 549 OFFCURVE",
"174 527 CURVE SMOOTH",
"162 522 OFFCURVE",
"159 520 OFFCURVE",
"156 519 CURVE",
"156 433 LINE",
"169 444 OFFCURVE",
"167 442 OFFCURVE",
"182 450 CURVE",
"223 470 OFFCURVE",
"259 481 OFFCURVE",
"306 481 CURVE",
"401 474 OFFCURVE",
"435 425 OFFCURVE",
"435 350 CURVE SMOOTH",
"435 345 OFFCURVE",
"418 342 OFFCURVE",
"404 342 CURVE SMOOTH",
"312 342 LINE SMOOTH",
"165 342 OFFCURVE",
"120 279 OFFCURVE",
"120 157 CURVE SMOOTH",
"120 53 OFFCURVE",
"185 -14 OFFCURVE",
"284 -14 CURVE SMOOTH",
"348 -14 OFFCURVE",
"395 6 OFFCURVE",
"430 45 CURVE",
"445 60 OFFCURVE",
"455 56 OFFCURVE",
"455 35 CURVE SMOOTH",
"455 24 LINE SMOOTH",
"455 8 OFFCURVE",
"455 13 OFFCURVE",
"455 0 CURVE",
"536 0 LINE",
"536 21 OFFCURVE",
"536 9 OFFCURVE",
"536 24 CURVE SMOOTH",
"536 309 LINE SMOOTH"
);
}
);
width = 656;
}
);
leftKerningGroup = Round;
},
{
glyphname = longs_t;
lastChange = "2019-09-02 02:16:03 +0000";
layers = (
{
anchors = (
{
name = bottom;
position = "{242, 0}";
},
{
name = center;
position = "{212, 265}";
},
{
name = top;
position = "{242, 800}";
}
);
components = (
{
name = t;
transform = "{1, 0, 0, 1, 283, 8}";
}
);
layerId = "BA196CD0-EE58-4274-B8DF-4393D3617A29";
paths = (
{
closed = 1;
nodes = (
"212 795 OFFCURVE",
"161 761 OFFCURVE",
"161 547 CURVE",
"80 547 LINE",
"80 458 LINE",
"161 458 LINE",
"146 0 LINE",
"276 0 LINE",
"261 458 LINE",
"249 545 LINE",
"240 584 OFFCURVE",
"225 720 OFFCURVE",
"314 720 CURVE",
"395 720 LINE",
"395 795 LINE",
"315 795 LINE"
);
}
);
width = 849;
},
{
anchors = (
{
name = bottom;
position = "{242, 0}";
},
{
name = center;
position = "{212, 265}";
},
{
name = top;
position = "{242, 800}";
}
);
components = (
{
name = t;
transform = "{1, 0, 0, 1, 283, 8}";
}
);
layerId = "BBDB329E-CE83-4304-A6B1-53EA5ACC004E";
paths = (
{
closed = 1;
nodes = (
"185 822 OFFCURVE",
"138 758 OFFCURVE",
"134 574 CURVE",
"53 574 LINE",
"53 431 LINE",
"133 431 LINE",
"118 -27 LINE",
"304 -27 LINE",
"288 460 LINE",
"276 550 LINE",
"267 586 OFFCURVE",
"255 693 OFFCURVE",
"314 693 CURVE SMOOTH",
"422 693 LINE",
"422 822 LINE",
"315 822 LINE SMOOTH"
);
}
);
width = 849;
}
);
rightMetricsKey = t;
},
{
glyphname = "Be-cy";
lastChange = "2019-09-02 03:09:26 +0000";
layers = (
{
layerId = "BA196CD0-EE58-4274-B8DF-4393D3617A29";
paths = (
{
closed = 1;
nodes = (
"408 141 OFFCURVE",
"451 172 QCURVE SMOOTH",
"491 200 OFFCURVE",
"491 242 QCURVE SMOOTH",
"491 308 OFFCURVE",
"451 344 QCURVE SMOOTH",
"411 380 OFFCURVE",
"337 380 QCURVE SMOOTH",
"207 376 LINE",
"213 142 LINE",
"337 141 LINE SMOOTH"
);
},
{
closed = 1;
nodes = (
"541 660 LINE",
"196 660 LINE",
"204 447 LINE",
"327 446 LINE SMOOTH",
"449 446 OFFCURVE",
"513 386 QCURVE SMOOTH",
"575 327 OFFCURVE",
"575 218 QCURVE SMOOTH",
"575 0 OFFCURVE",
"327 0 QCURVE SMOOTH",
"110 0 LINE",
"80 729 LINE",
"574 729 LINE"
);
}
);
width = 655;
},
{
layerId = "BBDB329E-CE83-4304-A6B1-53EA5ACC004E";
paths = (
{
closed = 1;
nodes = (
"393 171 OFFCURVE",
"426 194 QCURVE SMOOTH",
"456 215 OFFCURVE",
"456 247 QCURVE SMOOTH",
"456 296 OFFCURVE",
"426 323 QCURVE SMOOTH",
"396 350 OFFCURVE",
"340 350 QCURVE SMOOTH",
"242 347 LINE",
"247 171 LINE",
"340 171 LINE SMOOTH"
);
},
{
closed = 1;
nodes = (
"498 626 LINE",
"239 626 LINE",
"245 466 LINE",
"337 465 LINE SMOOTH",
"421 451 OFFCURVE",
"477 420 QCURVE SMOOTH",
"575 366 OFFCURVE",
"575 218 QCURVE SMOOTH",
"575 1 OFFCURVE",
"327 0 QCURVE SMOOTH",
"110 0 LINE",
"80 729 LINE",
"574 729 LINE"
);
}
);
width = 655;
}
);
note = uni0411;
unicode = 0411;
},
{
glyphname = "Ve-cy";
lastChange = "2019-09-02 03:11:35 +0000";
layers = (
{
layerId = "BA196CD0-EE58-4274-B8DF-4393D3617A29";
paths = (
{
closed = 1;
nodes = (
"466 0 OFFCURVE",
"536 53 QCURVE SMOOTH",
"607 107 OFFCURVE",
"607 204 QCURVE SMOOTH",
"607 363 OFFCURVE",
"420 393 QCURVE",
"543 413 OFFCURVE",
"543 549 QCURVE SMOOTH",
"543 635 OFFCURVE",
"482 682 QCURVE SMOOTH",
"421 729 OFFCURVE",
"308 729 QCURVE SMOOTH",
"80 729 LINE",
"80 0 LINE",
"342 0 LINE SMOOTH"
);
},
{
closed = 1;
nodes = (
"395 663 OFFCURVE",
"433 628 QCURVE SMOOTH",
"468 595 OFFCURVE",
"468 538 QCURVE SMOOTH",
"468 428 OFFCURVE",
"325 428 QCURVE SMOOTH",
"179 428 LINE",
"179 663 LINE",
"325 663 LINE SMOOTH"
);
},
{
closed = 1;
nodes = (
"415 348 OFFCURVE",
"455 316 QCURVE SMOOTH",
"493 284 OFFCURVE",
"493 259 QCURVE SMOOTH",
"493 193 OFFCURVE",
"455 168 QCURVE SMOOTH",
"420 145 OFFCURVE",
"337 145 QCURVE SMOOTH",
"179 145 LINE",
"179 348 LINE",
"337 348 LINE SMOOTH"
);
}
);
width = 687;
},
{
layerId = "BBDB329E-CE83-4304-A6B1-53EA5ACC004E";
paths = (
{
closed = 1;
nodes = (
"486 -15 OFFCURVE",
"554 41 QCURVE SMOOTH",
"616 92 OFFCURVE",
"611 201 QCURVE SMOOTH",
"604 364 OFFCURVE",
"420 393 QCURVE",
"565 413 OFFCURVE",
"565 549 QCURVE SMOOTH",
"578 641 OFFCURVE",
"495 688 QCURVE SMOOTH",
"434 735 OFFCURVE",
"308 729 QCURVE SMOOTH",
"80 729 LINE",
"80 0 LINE",
"342 0 LINE SMOOTH"
);
},
{
closed = 1;
nodes = (
"389 652 OFFCURVE",
"423 621 QCURVE SMOOTH",
"455 591 OFFCURVE",
"455 539 QCURVE SMOOTH",
"455 469 OFFCURVE",
"325 469 QCURVE SMOOTH",
"192 469 LINE",
"192 652 LINE",
"325 652 LINE SMOOTH"
);
},
{
closed = 1;
nodes = (
"408 332 OFFCURVE",
"444 303 QCURVE SMOOTH",
"479 274 OFFCURVE",
"479 258 QCURVE SMOOTH",
"479 198 OFFCURVE",
"444 175 QCURVE SMOOTH",
"412 154 OFFCURVE",
"337 154 QCURVE SMOOTH",
"193 154 LINE",
"193 332 LINE",
"337 332 LINE SMOOTH"
);
}
);
width = 687;
}
);
note = uni0412;
unicode = 0412;
},
{
glyphname = "Ge-cy";
lastChange = "2019-09-02 02:16:03 +0000";
layers = (
{
layerId = "BA196CD0-EE58-4274-B8DF-4393D3617A29";
paths = (
{
closed = 1;
nodes = (
"565 729 LINE",
"94 729 LINE",
"80 0 LINE",
"232 0 LINE",
"198 648 LINE",
"575 648 LINE"
);
}
);
width = 655;
},
{
layerId = "BBDB329E-CE83-4304-A6B1-53EA5ACC004E";
paths = (
{
closed = 1;
nodes = (
"589 756 LINE",
"68 756 LINE",
"52 -27 LINE",
"260 -27 LINE",
"226 621 LINE",
"606 621 LINE"
);
}
);
width = 655;
}
);
note = uni0413;
unicode = 0413;
},
{
glyphname = "Gheupturn-cy";
lastChange = "2019-09-02 02:16:03 +0000";
layers = (
{
components = (
{
name = "Ge-cy";
}
);
layerId = "BA196CD0-EE58-4274-B8DF-4393D3617A29";
paths = (
{
closed = 1;
nodes = (
"489 648 LINE",
"575 648 LINE",
"575 821 LINE",
"489 821 LINE"
);
}
);
width = 655;
},
{
components = (
{
name = "Ge-cy";
}
);
layerId = "BBDB329E-CE83-4304-A6B1-53EA5ACC004E";
paths = (
{
closed = 1;
nodes = (
"462 621 LINE",
"602 621 LINE",
"602 848 LINE",
"462 848 LINE"
);
}
);
width = 655;
}
);
unicode = 0490;
},
{
glyphname = "De-cy";
lastChange = "2019-09-02 02:16:03 +0000";
layers = (
{
layerId = "BA196CD0-EE58-4274-B8DF-4393D3617A29";
paths = (
{
closed = 1;
nodes = (
"660 726 LINE",
"254 725 LINE",
"230 236 LINE",
"196 192 LINE",
"140 114 LINE",
"80 114 LINE",
"130 -95 LINE",
"235 -95 LINE",
"218 4 LINE",
"627 4 LINE",
"602 -95 LINE",
"712 -95 LINE",
"756 114 LINE",
"681 114 LINE",
"660 638 LINE"
);
},
{
closed = 1;
nodes = (
"324 224 LINE",
"342 638 LINE",
"565 638 LINE",
"558 113 LINE",
"275 114 LINE"
);
}
);
width = 836;
},
{
layerId = "BBDB329E-CE83-4304-A6B1-53EA5ACC004E";
paths = (
{
closed = 1;
nodes = (
"687 753 LINE",
"228 752 LINE",
"203 246 LINE",
"174 208 LINE",
"126 141 LINE",
"46 141 LINE",
"109 -122 LINE",
"267 -122 LINE",
"250 -23 LINE",
"592 -23 LINE",
"567 -122 LINE",
"734 -122 LINE",
"789 141 LINE",
"707 141 LINE",
"687 639 LINE"
);
},
{
closed = 1;
nodes = (
"351 218 LINE",
"368 611 LINE",
"538 611 LINE",
"531 140 LINE",
"317 141 LINE"
);
}
);
width = 836;
}
);
note = uni0414;
unicode = 0414;
},
{
glyphname = "Ie-cy";
lastChange = "2019-09-02 02:16:03 +0000";
layers = (
{
anchors = (
{
name = top;
position = "{319, 768}";
}
);
layerId = "BA196CD0-EE58-4274-B8DF-4393D3617A29";
paths = (
{
closed = 1;
nodes = (
"179 151 LINE",
"179 347 LINE",
"526 347 LINE",
"526 430 LINE",
"179 430 LINE",
"179 646 LINE",
"541 646 LINE",
"541 729 LINE",
"80 729 LINE",
"80 0 LINE",
"550 0 LINE",
"550 151 LINE"
);
}
);
width = 630;
},
{
anchors = (
{
name = top;
position = "{319, 768}";
}
);
layerId = "BBDB329E-CE83-4304-A6B1-53EA5ACC004E";
paths = (
{
closed = 1;
nodes = (
"206 178 LINE",
"206 320 LINE",
"553 320 LINE",
"553 457 LINE",
"206 457 LINE",
"206 619 LINE",
"568 619 LINE",
"568 756 LINE",
"53 756 LINE",
"53 -27 LINE",
"577 -27 LINE",
"577 178 LINE"
);
}
);
width = 630;
}
);
note = uni0415;
unicode = 0415;
},
{
glyphname = "Io-cy";
lastChange = "2019-09-02 03:13:56 +0000";
layers = (
{
layerId = "BA196CD0-EE58-4274-B8DF-4393D3617A29";
paths = (
{
closed = 1;
nodes = (
"410 937 LINE",
"405 833 LINE",
"495 833 LINE",
"490 937 LINE"
);
},
{
closed = 1;
nodes = (
"147 937 LINE",
"142 833 LINE",
"232 833 LINE",
"227 937 LINE"
);
},
{
closed = 1;
nodes = (
"179 151 LINE",
"179 347 LINE",
"526 347 LINE",
"526 430 LINE",
"179 430 LINE",
"179 646 LINE",
"541 646 LINE",
"541 729 LINE",
"80 729 LINE",
"80 0 LINE",
"550 0 LINE",
"550 151 LINE"
);
}
);
width = 630;
},
{
components = (
{
name = E;
},
{
name = dieresis;
transform = "{1, 0, 0, 1, 66, 198}";
}
);
layerId = "BBDB329E-CE83-4304-A6B1-53EA5ACC004E";
width = 643;
}
);
note = uni0401;
unicode = 0401;
},
{
glyphname = "Ze-cy";
lastChange = "2019-09-02 03:15:53 +0000";
layers = (
{
anchors = (
{
name = top;
position = "{304, 800}";
}
);
layerId = "BA196CD0-EE58-4274-B8DF-4393D3617A29";
paths = (
{
closed = 1;
nodes = (
"543 427 OFFCURVE",
"543 553 QCURVE SMOOTH",
"543 640 OFFCURVE",
"478 691 QCURVE SMOOTH",
"412 742 OFFCURVE",
"300 742 QCURVE",
"213 742 OFFCURVE",
"102 711 QCURVE SMOOTH",
"101 634 LINE",
"202 654 OFFCURVE",
"297 654 QCURVE SMOOTH",
"443 654 OFFCURVE",
"443 540 QCURVE SMOOTH",
"443 442 OFFCURVE",
"295 440 QCURVE",
"171 438 LINE",
"179 362 LINE",
"291 359 LINE SMOOTH",
"370 358 OFFCURVE",
"417 322 QCURVE SMOOTH",
"462 288 OFFCURVE",
"462 236 QCURVE SMOOTH",
"462 194 OFFCURVE",
"419 158 QCURVE SMOOTH",
"370 116 OFFCURVE",
"279 116 QCURVE SMOOTH",
"183 116 OFFCURVE",
"80 176 QCURVE",
"80 22 LINE",
"184 -14 OFFCURVE",
"275 -14 QCURVE SMOOTH",
"560 -14 OFFCURVE",
"560 222 QCURVE SMOOTH",
"560 293 OFFCURVE",
"520 340 QCURVE SMOOTH",
"479 388 OFFCURVE",
"410 393 QCURVE"
);
}
);
width = 640;
},
{
anchors = (
{
name = top;
position = "{304, 800}";
}
);
layerId = "BBDB329E-CE83-4304-A6B1-53EA5ACC004E";
paths = (
{
closed = 1;
nodes = (
"543 427 OFFCURVE",
"543 553 QCURVE SMOOTH",
"543 640 OFFCURVE",
"478 691 QCURVE SMOOTH",
"412 742 OFFCURVE",
"300 742 QCURVE",
"189 731 OFFCURVE",
"102 711 QCURVE",
"104 599 LINE",
"205 619 OFFCURVE",
"300 619 QCURVE SMOOTH",
"412 619 OFFCURVE",
"408 540 QCURVE SMOOTH",
"404 462 OFFCURVE",
"295 460 QCURVE",
"171 458 LINE",
"179 342 LINE",
"291 339 LINE SMOOTH",
"352 337 OFFCURVE",
"379 317 QCURVE SMOOTH",
"415 290 OFFCURVE",
"400 226 QCURVE SMOOTH",
"395 195 OFFCURVE",
"362 178 QCURVE SMOOTH",
"335 164 OFFCURVE",
"279 160 QCURVE SMOOTH",
"182 153 OFFCURVE",
"80 220 QCURVE",
"80 22 LINE",
"184 -14 OFFCURVE",
"275 -14 QCURVE SMOOTH",
"560 -14 OFFCURVE",
"560 222 QCURVE SMOOTH",
"560 293 OFFCURVE",
"520 340 QCURVE SMOOTH",
"479 388 OFFCURVE",
"410 393 QCURVE"
);
}
);
width = 640;
}
);
note = uni0417;
unicode = 0417;
},
{
glyphname = "El-cy";
lastChange = "2019-09-02 02:16:03 +0000";
layers = (
{
layerId = "BA196CD0-EE58-4274-B8DF-4393D3617A29";
paths = (
{
closed = 1;
nodes = (
"748 0 LINE",
"464 729 LINE",
"361 729 LINE",
"80 0 LINE",
"243 0 LINE",
"414 604 LINE",
"597 0 LINE"
);
}
);
width = 828;
},
{
layerId = "BBDB329E-CE83-4304-A6B1-53EA5ACC004E";
paths = (
{
closed = 1;
nodes = (
"787 -27 LINE",
"482 756 LINE",
"342 756 LINE",
"41 -27 LINE",
"263 -27 LINE",
"415 508 LINE",
"577 -27 LINE"
);
}
);
width = 828;
}
);
note = uni041B;
unicode = 041B;
},
{
glyphname = "Em-cy";
lastChange = "2019-09-02 03:16:27 +0000";
layers = (
{
layerId = "BA196CD0-EE58-4274-B8DF-4393D3617A29";
paths = (
{
closed = 1;
nodes = (
"364 116 LINE",
"483 116 LINE",
"661 640 LINE",
"641 0 LINE",
"767 0 LINE",
"752 729 LINE",
"615 729 LINE",
"423 296 LINE",
"242 729 LINE",
"95 729 LINE",
"80 0 LINE",
"205 0 LINE",
"186 640 LINE"
);
}
);
width = 847;
},
{
layerId = "BBDB329E-CE83-4304-A6B1-53EA5ACC004E";
paths = (
{
closed = 1;
nodes = (
"160 631 LINE",
"345 89 LINE",
"502 89 LINE",
"687 631 LINE",
"634 641 LINE",
"613 -27 LINE",
"795 -27 LINE",
"778 756 LINE",
"597 756 LINE",
"424 364 LINE",
"260 756 LINE",
"69 756 LINE",
"52 -27 LINE",
"233 -27 LINE",
"213 641 LINE"
);
}
);
width = 847;
}
);
note = uni041C;
unicode = 041C;
},
{
glyphname = "Pe-cy";
lastChange = "2019-09-02 02:16:03 +0000";
layers = (
{
layerId = "BA196CD0-EE58-4274-B8DF-4393D3617A29";
paths = (
{
closed = 1;
nodes = (
"587 726 LINE",
"84 729 LINE",
"80 0 LINE",
"200 0 LINE",
"188 642 LINE",
"491 642 LINE",
"480 0 LINE",
"600 0 LINE",
"587 642 LINE"
);
}
);
width = 680;
},
{
layerId = "BBDB329E-CE83-4304-A6B1-53EA5ACC004E";
paths = (
{
closed = 1;
nodes = (
"614 753 LINE",
"57 756 LINE",
"53 -27 LINE",
"228 -27 LINE",
"216 615 LINE",
"464 615 LINE",
"453 -27 LINE",
"628 -27 LINE",
"614 642 LINE"
);
}
);
width = 680;
}
);
note = uni041F;
unicode = 041F;
},
{
glyphname = "Ef-cy";
lastChange = "2019-09-02 03:20:47 +0000";
layers = (
{
layerId = "BA196CD0-EE58-4274-B8DF-4393D3617A29";
paths = (
{
closed = 1;
nodes = (
"498 0 LINE",
"489 280 LINE",
"544 280 LINE SMOOTH",
"666 280 OFFCURVE",
"730 340 QCURVE SMOOTH",
"792 399 OFFCURVE",
"792 508 QCURVE SMOOTH",
"792 729 OFFCURVE",
"547 728 QCURVE SMOOTH",
"328 726 LINE SMOOTH",
"80 726 OFFCURVE",
"80 508 QCURVE SMOOTH",
"80 399 OFFCURVE",
"143 340 QCURVE SMOOTH",
"206 280 OFFCURVE",
"328 280 QCURVE SMOOTH",
"371 280 LINE",
"362 0 LINE"
);
},
{
closed = 1;
nodes = (
"345 407 OFFCURVE",
"308 410 QCURVE",
"230 411 OFFCURVE",
"186 451 QCURVE SMOOTH",
"147 487 OFFCURVE",
"149 539 QCURVE SMOOTH",
"150 590 OFFCURVE",
"190 625 QCURVE SMOOTH",
"233 664 OFFCURVE",
"303 673 QCURVE",
"375 672 LINE",
"371 409 LINE"
);
},
{
closed = 1;
nodes = (
"485 672 LINE",
"554 672 LINE",
"708 662 OFFCURVE",
"708 547 QCURVE SMOOTH",
"708 410 OFFCURVE",
"554 410 QCURVE SMOOTH",
"489 410 LINE"
);
}
);
width = 872;
},
{
layerId = "BBDB329E-CE83-4304-A6B1-53EA5ACC004E";
paths = (
{
closed = 1;
nodes = (
"533 0 LINE",
"524 280 LINE",
"579 280 LINE SMOOTH",
"701 280 OFFCURVE",
"730 340 QCURVE SMOOTH",
"792 399 OFFCURVE",
"792 508 QCURVE SMOOTH",
"792 729 OFFCURVE",
"547 728 QCURVE SMOOTH",
"328 726 LINE SMOOTH",
"80 726 OFFCURVE",
"80 508 QCURVE SMOOTH",
"80 399 OFFCURVE",
"143 340 QCURVE SMOOTH",
"172 280 OFFCURVE",
"294 280 QCURVE SMOOTH",
"337 280 LINE",
"328 0 LINE"
);
},
{
closed = 1;
nodes = (
"324 440 OFFCURVE",
"297 442 QCURVE",
"238 443 OFFCURVE",
"205 473 QCURVE SMOOTH",
"176 500 OFFCURVE",
"177 539 QCURVE SMOOTH",
"178 578 OFFCURVE",
"208 604 QCURVE SMOOTH",
"240 633 OFFCURVE",
"293 640 QCURVE",
"347 639 LINE",
"344 442 LINE"
);
},
{
closed = 1;
nodes = (
"513 639 LINE",
"565 639 LINE",
"680 632 OFFCURVE",
"680 546 QCURVE SMOOTH",
"680 443 OFFCURVE",
"565 443 QCURVE SMOOTH",
"516 443 LINE"
);
}
);
width = 872;
}
);
note = uni0424;
unicode = 0424;
},
{
glyphname = "Che-cy";
lastChange = "2019-09-02 02:26:13 +0000";
layers = (
{
anchors = (
{
name = top;
position = "{334, 812}";
}
);
layerId = "BA196CD0-EE58-4274-B8DF-4393D3617A29";
paths = (
{
closed = 1;
nodes = (
"80 317 OFFCURVE",
"132 256 QCURVE SMOOTH",
"184 196 OFFCURVE",
"279 196 QCURVE SMOOTH",
"412 196 OFFCURVE",
"465 278 QCURVE",
"458 0 LINE",
"583 0 LINE",
"563 730 LINE",
"480 730 LINE",
"468 477 LINE SMOOTH",
"467 398 OFFCURVE",
"423 354 QCURVE SMOOTH",
"381 312 OFFCURVE",
"309 312 QCURVE SMOOTH",
"245 312 OFFCURVE",
"212 339 QCURVE SMOOTH",
"171 373 OFFCURVE",
"170 459 QCURVE SMOOTH",
"165 730 LINE",
"85 730 LINE",
"80 430 LINE SMOOTH"
);
}
);
width = 663;
},
{
layerId = "BBDB329E-CE83-4304-A6B1-53EA5ACC004E";
paths = (
{
closed = 1;
nodes = (
"70 317 OFFCURVE",
"132 256 QCURVE SMOOTH",
"184 196 OFFCURVE",
"279 196 QCURVE SMOOTH",
"412 196 OFFCURVE",
"465 278 QCURVE",
"458 0 LINE",
"596 0 LINE",
"576 730 LINE",
"455 730 LINE",
"444 500 LINE SMOOTH",
"441 428 OFFCURVE",
"403 388 QCURVE SMOOTH",
"366 349 OFFCURVE",
"310 350 QCURVE SMOOTH",
"252 351 OFFCURVE",
"222 375 QCURVE SMOOTH",
"170 405 OFFCURVE",
"184 484 QCURVE SMOOTH",
"226 727 LINE",
"106 734 LINE",
"80 430 LINE SMOOTH"
);
}
);
width = 663;
}
);
note = uni0427;
unicode = 0427;
},
{
glyphname = "Tse-cy";
lastChange = "2019-09-02 02:16:03 +0000";
layers = (
{
layerId = "BA196CD0-EE58-4274-B8DF-4393D3617A29";
paths = (
{
closed = 1;
nodes = (
"80 0 LINE",
"532 0 LINE",
"492 -144 LINE",
"602 -144 LINE",
"640 118 LINE",
"568 116 LINE",
"553 729 LINE",
"477 729 LINE",
"455 113 LINE",
"191 111 LINE",
"178 728 LINE",
"90 728 LINE"
);
}
);
width = 720;
},
{
layerId = "BBDB329E-CE83-4304-A6B1-53EA5ACC004E";
paths = (
{
closed = 1;
nodes = (
"53 -27 LINE",
"496 -27 LINE",
"456 -171 LINE",
"625 -171 LINE",
"671 146 LINE",
"594 144 LINE",
"579 756 LINE",
"451 756 LINE",
"429 140 LINE",
"217 138 LINE",
"204 755 LINE",
"63 755 LINE"
);
}
);
width = 720;
}
);
note = uni0426;
unicode = 0426;
},
{
glyphname = "Sha-cy";
lastChange = "2019-09-02 02:16:03 +0000";
layers = (
{
layerId = "BA196CD0-EE58-4274-B8DF-4393D3617A29";
paths = (
{
closed = 1;
nodes = (
"80 726 LINE",
"85 0 LINE",
"730 0 LINE",
"725 726 LINE",
"629 726 LINE",
"647 109 LINE",
"468 110 LINE",
"475 702 LINE",
"367 702 LINE",
"385 110 LINE",
"183 110 LINE",
"192 726 LINE"
);
}
);
width = 810;
},
{
layerId = "BBDB329E-CE83-4304-A6B1-53EA5ACC004E";
paths = (
{
closed = 1;
nodes = (
"53 753 LINE",
"58 -27 LINE",
"757 -27 LINE",
"752 753 LINE",
"601 753 LINE",
"619 136 LINE",
"495 137 LINE",
"502 729 LINE",
"339 729 LINE",
"357 137 LINE",
"210 137 LINE",
"219 753 LINE"
);
}
);
width = 810;
}
);
note = uni0428;
unicode = 0428;
},
{
glyphname = "Shcha-cy";
lastChange = "2019-09-02 02:16:03 +0000";
layers = (
{
layerId = "BA196CD0-EE58-4274-B8DF-4393D3617A29";
paths = (
{
closed = 1;
nodes = (
"80 726 LINE",
"85 0 LINE",
"704 0 LINE",
"667 -152 LINE",
"777 -152 LINE",
"825 104 LINE",
"729 122 LINE",
"725 726 LINE",
"629 726 LINE",
"645 121 LINE",
"468 120 LINE",
"475 702 LINE",
"367 702 LINE",
"385 120 LINE",
"172 121 LINE",
"192 726 LINE"
);
}
);
width = 905;
},
{
layerId = "BBDB329E-CE83-4304-A6B1-53EA5ACC004E";
paths = (
{
closed = 1;
nodes = (
"53 753 LINE",
"58 -27 LINE",
"670 -27 LINE",
"633 -179 LINE",
"799 -179 LINE",
"857 126 LINE",
"756 144 LINE",
"752 753 LINE",
"601 753 LINE",
"617 148 LINE",
"495 147 LINE",
"502 729 LINE",
"339 729 LINE",
"357 147 LINE",
"200 148 LINE",
"220 753 LINE"
);
}
);
width = 905;
}
);
note = uni0429;
unicode = 0429;
},
{
glyphname = "Dzhe-cy";
lastChange = "2019-09-02 03:21:28 +0000";
layers = (
{
layerId = "BA196CD0-EE58-4274-B8DF-4393D3617A29";
paths = (
{
closed = 1;
nodes = (
"27 0 LINE",
"574 0 LINE",
"574 700 LINE",
"27 700 LINE"
);
},
{
closed = 1;
nodes = (
"471 700 LINE",
"471 98 LINE",
"133 98 LINE",
"133 700 LINE"
);
},
{
closed = 1;
nodes = (
"259 -188 LINE",
"342 -188 LINE",
"342 0 LINE",
"259 0 LINE"
);
}
);
width = 600;
},
{
layerId = "BBDB329E-CE83-4304-A6B1-53EA5ACC004E";
paths = (
{
closed = 1;
nodes = (
"0 -27 LINE",
"601 -27 LINE",
"601 727 LINE",
"0 727 LINE"
);
},
{
closed = 1;
nodes = (
"444 727 LINE",
"444 125 LINE",
"160 125 LINE",
"160 727 LINE"
);
},
{
closed = 1;
nodes = (
"232 -215 LINE",
"369 -215 LINE",
"369 27 LINE",
"232 27 LINE"
);
}
);
width = 600;
}
);
unicode = 040F;
},
{
glyphname = "Softsign-cy";
lastChange = "2019-09-02 03:25:08 +0000";
layers = (
{
layerId = "BA196CD0-EE58-4274-B8DF-4393D3617A29";
paths = (
{
closed = 1;
nodes = (
"297 0 LINE SMOOTH",
"545 0 OFFCURVE",
"545 218 QCURVE SMOOTH",
"545 327 OFFCURVE",
"483 386 QCURVE SMOOTH",
"419 446 OFFCURVE",
"297 446 QCURVE SMOOTH",
"178 446 LINE",
"168 729 LINE",
"90 729 LINE",
"80 0 LINE"
);
},
{
closed = 1;
nodes = (
"177 378 LINE",
"311 378 LINE SMOOTH",
"383 378 OFFCURVE",
"422 336 QCURVE SMOOTH",
"459 296 OFFCURVE",
"459 228 QCURVE SMOOTH",
"459 191 OFFCURVE",
"419 162 QCURVE SMOOTH",
"374 130 OFFCURVE",
"305 130 QCURVE SMOOTH",
"181 130 LINE"
);
}
);
width = 625;
},
{
layerId = "BBDB329E-CE83-4304-A6B1-53EA5ACC004E";
paths = (
{
closed = 1;
nodes = (
"297 0 LINE SMOOTH",
"545 0 OFFCURVE",
"545 218 QCURVE SMOOTH",
"545 327 OFFCURVE",
"483 386 QCURVE SMOOTH",
"419 446 OFFCURVE",
"297 446 QCURVE SMOOTH",
"178 446 LINE",
"168 729 LINE",
"60 729 LINE",
"50 0 LINE"
);
},
{
closed = 1;
nodes = (
"182 327 LINE",
"283 327 LINE SMOOTH",
"337 327 OFFCURVE",
"366 296 QCURVE SMOOTH",
"394 266 OFFCURVE",
"394 214 QCURVE SMOOTH",
"394 187 OFFCURVE",
"364 165 QCURVE SMOOTH",
"330 141 OFFCURVE",
"278 141 QCURVE SMOOTH",
"185 141 LINE"
);
}
);
width = 625;
}
);
note = uni042C;
unicode = 042C;
},
{
glyphname = "Lje-cy";
lastChange = "2019-09-02 02:16:03 +0000";
layers = (
{
anchors = (
{
name = _bottom_hook;
position = "{2, 584}";
},
{
name = center;
position = "{194, 349}";
}
);
components = (
{
name = "Softsign-cy";
transform = "{1, 0, 0, 1, 216, 0}";
}
);
layerId = "BA196CD0-EE58-4274-B8DF-4393D3617A29";
paths = (
{
closed = 1;
nodes = (
"-39 653 LINE",
"384 653 LINE",
"384 729 LINE",
"-39 729 LINE"
);
},
{
closed = 1;
nodes = (
"-35 -18 OFFCURVE",
"4 -20 OFFCURVE",
"11 101 CURVE SMOOTH",
"25 339 OFFCURVE",
"29 412 OFFCURVE",
"42 653 CURVE",
"35 664 OFFCURVE",
"15 669 OFFCURVE",
"3 669 CURVE SMOOTH",
"-9 669 OFFCURVE",
"-30 663 OFFCURVE",
"-38 653 CURVE",
"-35 432 OFFCURVE",
"-63 175 OFFCURVE",
"-72 120 CURVE SMOOTH",
"-78 83 OFFCURVE",
"-75 69 OFFCURVE",
"-143 69 CURVE",
"-161 -17 LINE"
);
}
);
width = 600;
},
{
anchors = (
{
name = _bottom_hook;
position = "{2, 584}";
},
{
name = center;
position = "{194, 349}";
}
);
components = (
{
name = "Softsign-cy";
transform = "{1, 0, 0, 1, 216, 0}";
}
);
layerId = "BBDB329E-CE83-4304-A6B1-53EA5ACC004E";
paths = (
{
closed = 1;
nodes = (
"-66 626 LINE",
"411 626 LINE",
"411 756 LINE",
"-66 756 LINE"
);
},
{
closed = 1;
nodes = (
"-47 -43 OFFCURVE",
"29 -61 OFFCURVE",
"38 99 CURVE SMOOTH",
"52 337 OFFCURVE",
"56 411 OFFCURVE",
"69 652 CURVE",
"65 667 LINE",
"53 685 OFFCURVE",
"27 696 OFFCURVE",
"3 696 CURVE SMOOTH",
"-28 696 OFFCURVE",
"-70 675 OFFCURVE",
"-65 650 CURVE",
"-62 431 OFFCURVE",
"-90 178 OFFCURVE",
"-99 124 CURVE SMOOTH",
"-107 75 OFFCURVE",
"-108 102 OFFCURVE",
"-165 94 CURVE",
"-194 -44 LINE"
);
}
);
width = 600;
}
);
unicode = 0409;
},
{
glyphname = "Nje-cy";
lastChange = "2019-09-02 02:16:03 +0000";
layers = (
{
anchors = (
{
name = _bottom_hook;
position = "{-21, 584}";
},
{
name = center;
position = "{172, 349}";
}
);
components = (
{
name = "Softsign-cy";
transform = "{1, 0, 0, 1, 194, 0}";
}
);
layerId = "BA196CD0-EE58-4274-B8DF-4393D3617A29";
paths = (
{
closed = 1;
nodes = (
"-62 368 LINE",
"362 368 LINE",
"362 444 LINE",
"-62 444 LINE"
);
},
{
closed = 1;
nodes = (
"-139 0 LINE",
"-53 0 LINE",
"-53 735 LINE",
"-139 735 LINE"
);
}
);
width = 600;
},
{
anchors = (
{
name = _bottom_hook;
position = "{-21, 584}";
},
{
name = center;
position = "{172, 349}";
}
);
components = (
{
name = "Softsign-cy";
transform = "{1, 0, 0, 1, 194, 0}";
}
);
layerId = "BBDB329E-CE83-4304-A6B1-53EA5ACC004E";
paths = (
{
closed = 1;
nodes = (
"-89 341 LINE",
"389 341 LINE",
"389 471 LINE",
"-89 471 LINE"
);
},
{
closed = 1;
nodes = (
"-166 -27 LINE",
"-26 -27 LINE",
"-26 762 LINE",
"-166 762 LINE"
);
}
);
width = 600;
}
);
unicode = 040A;
},
{
glyphname = "E-cy";
lastChange = "2019-09-02 02:16:03 +0000";
layers = (
{
anchors = (
{
name = bottom;
position = "{423, -54}";
},
{
name = center;
position = "{423, 387}";
},
{
name = horn;
position = "{694, 547}";
},
{
name = ogonek;
position = "{753, 10}";
},
{
name = top;
position = "{419, 842}";
},
{
name = topleft;
position = "{30, 700}";
},
{
name = topright;
position = "{815, 700}";
}
);
components = (
{
name = hyphen;
transform = "{1, 0, 0, 1, 12, 91}";
}
);
layerId = "BA196CD0-EE58-4274-B8DF-4393D3617A29";
paths = (
{
closed = 1;
nodes = (
"603 219 LINE",
"562 185 OFFCURVE",
"500 173 OFFCURVE",
"423 173 CURVE SMOOTH",
"280 173 OFFCURVE",
"189 213 OFFCURVE",
"189 364 CURVE SMOOTH",
"189 548 OFFCURVE",
"280 672 OFFCURVE",
"423 672 CURVE SMOOTH",
"520 672 OFFCURVE",
"593 615 OFFCURVE",
"629 521 CURVE",
"736 521 LINE",
"689 659 OFFCURVE",
"576 742 OFFCURVE",
"423 742 CURVE SMOOTH",
"218 742 OFFCURVE",
"85 594 OFFCURVE",
"85 364 CURVE SMOOTH",
"85 54 OFFCURVE",
"190 -12 OFFCURVE",
"423 -14 CURVE SMOOTH",
"632 -16 OFFCURVE",
"725 31 OFFCURVE",
"751 219 CURVE"
);
}
);
width = 835;
},
{
anchors = (
{
name = bottom;
position = "{423, -54}";
},
{
name = center;
position = "{423, 387}";
},
{
name = horn;
position = "{694, 547}";
},
{
name = ogonek;
position = "{753, 10}";
},
{
name = top;
position = "{419, 842}";
},
{
name = topleft;
position = "{30, 700}";
},
{
name = topright;
position = "{815, 700}";
}
);
components = (
{
name = hyphen;
transform = "{1, 0, 0, 1, 12, 91}";
}
);
layerId = "BBDB329E-CE83-4304-A6B1-53EA5ACC004E";
paths = (
{
closed = 1;
nodes = (
"593 246 LINE",
"560 214 OFFCURVE",
"508 200 OFFCURVE",
"423 200 CURVE SMOOTH",
"273 200 OFFCURVE",
"216 246 OFFCURVE",
"216 364 CURVE SMOOTH",
"216 536 OFFCURVE",
"298 645 OFFCURVE",
"423 645 CURVE SMOOTH",
"512 645 OFFCURVE",
"579 591 OFFCURVE",
"610 494 CURVE",
"772 494 LINE",
"729 667 OFFCURVE",
"597 769 OFFCURVE",
"423 769 CURVE SMOOTH",
"202 769 OFFCURVE",
"58 608 OFFCURVE",
"58 364 CURVE SMOOTH",
"58 64 OFFCURVE",
"151 -39 OFFCURVE",
"423 -41 CURVE SMOOTH",
"670 -43 OFFCURVE",
"760 30 OFFCURVE",
"781 246 CURVE"
);
}
);
width = 835;
}
);
unicode = 0404;
},
{
glyphname = "Iu-cy";
lastChange = "2019-09-02 03:30:29 +0000";
layers = (
{
layerId = "BA196CD0-EE58-4274-B8DF-4393D3617A29";
paths = (
{
closed = 1;
nodes = (
"841 -2 OFFCURVE",
"841 364 QCURVE SMOOTH",
"841 733 OFFCURVE",
"560 733 QCURVE SMOOTH",
"291 733 OFFCURVE",
"267 343 QCURVE",
"185 360 LINE",
"191 729 LINE",
"80 729 LINE",
"88 0 LINE",
"173 0 LINE",
"179 266 LINE",
"267 275 LINE",
"275 -2 OFFCURVE",
"560 -2 QCURVE SMOOTH"
);
},
{
closed = 1;
nodes = (
"477 146 OFFCURVE",
"423 200 QCURVE SMOOTH",
"365 259 OFFCURVE",
"365 364 QCURVE SMOOTH",
"365 504 OFFCURVE",
"415 582 QCURVE SMOOTH",
"467 662 OFFCURVE",
"560 662 QCURVE SMOOTH",
"746 662 OFFCURVE",
"746 364 QCURVE SMOOTH",
"746 256 OFFCURVE",
"695 200 QCURVE SMOOTH",
"646 146 OFFCURVE",
"559 146 QCURVE SMOOTH"
);
}
);
width = 921;
},
{
layerId = "BBDB329E-CE83-4304-A6B1-53EA5ACC004E";
paths = (
{
closed = 1;
nodes = (
"841 -2 OFFCURVE",
"841 364 QCURVE SMOOTH",
"841 754 OFFCURVE",
"560 754 QCURVE SMOOTH",
"302 754 OFFCURVE",
"267 461 QCURVE",
"200 478 LINE",
"206 729 LINE",
"80 729 LINE",
"88 0 LINE",
"188 0 LINE",
"194 266 LINE",
"267 275 LINE",
"275 -2 OFFCURVE",
"560 -2 QCURVE SMOOTH"
);
},
{
closed = 1;
nodes = (
"491 191 OFFCURVE",
"446 235 QCURVE SMOOTH",
"398 284 OFFCURVE",
"398 371 QCURVE SMOOTH",
"398 487 OFFCURVE",
"439 551 QCURVE SMOOTH",
"482 617 OFFCURVE",
"559 617 QCURVE",
"713 617 OFFCURVE",
"713 371 QCURVE SMOOTH",
"713 282 OFFCURVE",
"671 235 QCURVE SMOOTH",
"630 191 OFFCURVE",
"558 191 QCURVE SMOOTH"
);
}
);
width = 921;
}
);
note = uni042E;
unicode = 042E;
},
{
glyphname = "Yat-cy";
lastChange = "2019-09-02 02:16:03 +0000";
layers = (
{
components = (
{
name = hyphen;
transform = "{1, 0, 0, 1, 9, 310}";
}
);
layerId = "BA196CD0-EE58-4274-B8DF-4393D3617A29";
paths = (
{
closed = 1;
nodes = (
"587 174 OFFCURVE",
"562 152 OFFCURVE",
"482 146 CURVE",
"352 146 OFFCURVE",
"321 144 OFFCURVE",
"321 219 CURVE SMOOTH",
"321 336 OFFCURVE",
"321 336 OFFCURVE",
"473 339 CURVE SMOOTH",
"569 341 OFFCURVE",
"588 252 OFFCURVE",
"588 227 CURVE"
);
},
{
closed = 1;
nodes = (
"309 -25 OFFCURVE",
"318 -14 OFFCURVE",
"461 -14 CURVE SMOOTH",
"628 -14 OFFCURVE",
"656 0 OFFCURVE",
"656 226 CURVE SMOOTH",
"656 297 OFFCURVE",
"611 395 OFFCURVE",
"452 395 CURVE SMOOTH",
"304 395 OFFCURVE",
"287 410 OFFCURVE",
"293 558 CURVE SMOOTH",
"299 708 LINE",
"205 708 LINE",
"205 265 OFFCURVE",
"193 104 OFFCURVE",
"245 46 CURVE SMOOTH"
);
}
);
width = 745;
},
{
components = (
{
name = hyphen;
transform = "{1, 0, 0, 1, 9, 310}";
}
);
layerId = "BBDB329E-CE83-4304-A6B1-53EA5ACC004E";
paths = (
{
closed = 1;
nodes = (
"560 190 OFFCURVE",
"546 178 OFFCURVE",
"481 173 CURVE",
"349 173 OFFCURVE",
"348 173 OFFCURVE",
"348 219 CURVE SMOOTH",
"348 313 OFFCURVE",
"330 309 OFFCURVE",
"474 312 CURVE SMOOTH",
"547 314 OFFCURVE",
"561 249 OFFCURVE",
"561 227 CURVE SMOOTH"
);
},
{
closed = 1;
nodes = (
"303 -59 OFFCURVE",
"340 -41 OFFCURVE",
"461 -41 CURVE SMOOTH",
"653 -41 OFFCURVE",
"683 -5 OFFCURVE",
"683 226 CURVE SMOOTH",
"683 345 OFFCURVE",
"592 422 OFFCURVE",
"452 422 CURVE SMOOTH",
"320 422 OFFCURVE",
"315 426 OFFCURVE",
"320 557 CURVE SMOOTH",
"327 735 LINE",
"178 735 LINE",
"179 273 OFFCURVE",
"164 96 OFFCURVE",
"225 28 CURVE SMOOTH"
);
}
);
width = 745;
}
);
unicode = 0462;
},
{
glyphname = "Yusbig-cy";
lastChange = "2019-09-02 02:16:03 +0000";
layers = (
{
layerId = "BA196CD0-EE58-4274-B8DF-4393D3617A29";
paths = (
{
closed = 1;
nodes = (
"791 715 LINE",
"91 715 LINE",
"91 616 LINE",
"791 616 LINE"
);
},
{
closed = 1;
nodes = (
"483 333 LINE",
"193 715 LINE",
"91 616 LINE",
"377 333 LINE"
);
},
{
closed = 1;
nodes = (
"483 330 LINE",
"791 616 LINE",
"682 715 LINE",
"377 330 LINE"
);
},
{
closed = 1;
nodes = (
"377 123 OFFCURVE",
"397 36 OFFCURVE",
"363 -2 CURVE",
"415 -2 OFFCURVE",
"478 -2 OFFCURVE",
"502 -2 CURVE",
"468 36 OFFCURVE",
"495 123 OFFCURVE",
"481 394 CURVE",
"377 394 LINE"
);
},
{
closed = 1;
nodes = (
"592 340 OFFCURVE",
"646 257 OFFCURVE",
"688 -2 CURVE",
"816 -2 LINE",
"738 97 OFFCURVE",
"764 377 OFFCURVE",
"528 377 CURVE",
"505 435 OFFCURVE",
"487 368 OFFCURVE",
"487 330 CURVE"
);
},
{
closed = 1;
nodes = (
"215 257 OFFCURVE",
"269 340 OFFCURVE",
"374 330 CURVE",
"374 368 OFFCURVE",
"356 435 OFFCURVE",
"333 377 CURVE",
"97 377 OFFCURVE",
"122 97 OFFCURVE",
"45 -2 CURVE",
"173 -2 LINE"
);
}
);
width = 860;
},
{
layerId = "BBDB329E-CE83-4304-A6B1-53EA5ACC004E";
paths = (
{
closed = 1;
nodes = (
"818 742 LINE",
"64 742 LINE",
"64 589 LINE",
"818 589 LINE"
);
},
{
closed = 1;
nodes = (
"537 306 LINE",
"196 756 LINE",
"52 616 LINE",
"366 306 LINE"
);
},
{
closed = 1;
nodes = (
"494 303 LINE",
"831 616 LINE",
"679 754 LINE",
"321 303 LINE"
);
},
{
closed = 1;
nodes = (
"348 25 OFFCURVE",
"383 12 OFFCURVE",
"303 -29 CURVE",
"343 -29 OFFCURVE",
"466 -29 OFFCURVE",
"502 -29 CURVE",
"522 16 LINE",
"498 43 OFFCURVE",
"524 125 OFFCURVE",
"507 421 CURVE",
"350 421 LINE"
);
},
{
closed = 1;
nodes = (
"490 303 LINE",
"580 312 OFFCURVE",
"625 231 OFFCURVE",
"665 -29 CURVE",
"872 -29 LINE",
"773 96 OFFCURVE",
"784 390 OFFCURVE",
"545 404 CURVE",
"512 459 OFFCURVE",
"460 415 OFFCURVE",
"460 330 CURVE"
);
},
{
closed = 1;
nodes = (
"236 231 OFFCURVE",
"281 312 OFFCURVE",
"371 303 CURVE",
"401 330 LINE",
"401 415 OFFCURVE",
"349 459 OFFCURVE",
"316 404 CURVE",
"77 390 OFFCURVE",
"88 97 OFFCURVE",
"-10 -29 CURVE",
"196 -29 LINE"
);
}
);
width = 860;
}
);
unicode = 046A;
},
{
glyphname = "Zhedescender-cy";
lastChange = "2019-09-02 02:16:03 +0000";
layers = (
{
components = (
{
alignment = -1;
name = K;
transform = "{-1, 0, 0, 1, 897, 0}";
},
{
name = K;
transform = "{1, 0, 0, 1, 556, 0}";
}
);
layerId = "BA196CD0-EE58-4274-B8DF-4393D3617A29";
paths = (
{
closed = 1;
nodes = (
"1142 -133 LINE",
"1213 -133 LINE",
"1213 65 LINE",
"1142 65 LINE"
);
}
);
width = 1460;
},
{
components = (
{
alignment = -1;
name = K;
transform = "{-1, 0, 0, 1, 897, 0}";
},
{
name = K;
transform = "{1, 0, 0, 1, 556, 0}";
}
);
layerId = "BBDB329E-CE83-4304-A6B1-53EA5ACC004E";
paths = (
{
closed = 1;
nodes = (
"1115 -160 LINE",
"1240 -160 LINE",
"1240 92 LINE",
"1115 92 LINE"
);
}
);
width = 1460;
}
);
unicode = 0496;
},
{
glyphname = "Zedescender-cy";
lastChange = "2019-09-02 02:16:03 +0000";
layers = (
{
components = (
{
name = "Ze-cy";
}
);
layerId = "BA196CD0-EE58-4274-B8DF-4393D3617A29";
paths = (
{
closed = 1;
nodes = (
"247 -124 LINE",
"328 -124 LINE",
"328 10 LINE",
"247 10 LINE"
);
}
);
width = 640;
},
{
components = (
{
name = "Ze-cy";
}
);
layerId = "BBDB329E-CE83-4304-A6B1-53EA5ACC004E";
paths = (
{
closed = 1;
nodes = (
"220 -151 LINE",
"355 -151 LINE",
"355 37 LINE",
"220 37 LINE"
);
}
);
width = 640;
}
);
unicode = 0498;
},
{
glyphname = "Kadescender-cy";
lastChange = "2019-09-02 02:16:03 +0000";
layers = (
{
components = (
{
name = K;
transform = "{1, 0, 0, 1, -11, 0}";
}
);
layerId = "BA196CD0-EE58-4274-B8DF-4393D3617A29";
paths = (
{
closed = 1;
nodes = (
"592 -118 LINE",
"661 -118 LINE",
"661 43 LINE",
"592 43 LINE"
);
}
);
width = 730;
},
{
components = (
{
name = K;
transform = "{1, 0, 0, 1, -11, 0}";
}
);
layerId = "BBDB329E-CE83-4304-A6B1-53EA5ACC004E";
paths = (
{
closed = 1;
nodes = (
"565 -145 LINE",
"688 -145 LINE",
"688 70 LINE",
"565 70 LINE"
);
}
);
width = 730;
}
);
unicode = 049A;
},
{
glyphname = "Kaverticalstroke-cy";
lastChange = "2019-09-02 02:16:03 +0000";
layers = (
{
anchors = (
{
name = bottom;
position = "{297, 0}";
},
{
name = top;
position = "{355, 729}";
},
{
name = top_hook;
position = "{572, 515}";
}
);
components = (
{
name = verticallinemod;
transform = "{0.86338, 0, 0, 1.10693, 441, -368}";
}
);
layerId = "BA196CD0-EE58-4274-B8DF-4393D3617A29";
paths = (
{
closed = 1;
nodes = (
"284 276 LINE",
"472 0 LINE",
"705 0 LINE",
"367 327 LINE",
"610 729 LINE",
"483 729 LINE",
"284 375 LINE"
);
},
{
closed = 1;
nodes = (
"284 375 LINE",
"165 359 LINE",
"178 729 LINE",
"90 729 LINE",
"25 0 LINE",
"153 0 LINE",
"165 289 LINE",
"284 272 LINE"
);
}
);
width = 730;
},
{
anchors = (
{
name = bottom;
position = "{297, 0}";
},
{
name = top;
position = "{355, 729}";
},
{
name = top_hook;
position = "{572, 515}";
}
);
components = (
{
name = verticallinemod;
transform = "{0.86338, 0, 0, 1.10693, 441, -368}";
}
);
layerId = "BBDB329E-CE83-4304-A6B1-53EA5ACC004E";
paths = (
{
closed = 1;
nodes = (
"257 268 LINE",
"458 -27 LINE",
"772 -27 LINE",
"401 331 LINE",
"658 756 LINE",
"467 756 LINE",
"257 382 LINE"
);
},
{
closed = 1;
nodes = (
"311 406 LINE",
"193 390 LINE",
"206 756 LINE",
"65 756 LINE",
"-5 -27 LINE",
"179 -27 LINE",
"191 258 LINE",
"311 241 LINE"
);
}
);
width = 730;
}
);
unicode = 049C;
},
{
glyphname = "Endescender-cy";
lastChange = "2019-09-02 02:16:03 +0000";
layers = (
{
components = (
{
name = H;
transform = "{1, 0, 0, 1, -33, 0}";
}
);
layerId = "BA196CD0-EE58-4274-B8DF-4393D3617A29";
paths = (
{
closed = 1;
nodes = (
"646 -127 LINE",
"724 -127 LINE",
"724 39 LINE",
"646 39 LINE"
);
}
);
width = 771;
},
{
components = (
{
name = H;
transform = "{1, 0, 0, 1, -33, 0}";
}
);
layerId = "BBDB329E-CE83-4304-A6B1-53EA5ACC004E";
paths = (
{
closed = 1;
nodes = (
"619 -154 LINE",
"751 -154 LINE",
"751 66 LINE",
"619 66 LINE"
);
}
);
width = 771;
}
);
unicode = 04A2;
},
{
glyphname = "Pedescender-cy";
lastChange = "2019-09-02 02:16:03 +0000";
layers = (
{
components = (
{
name = "Pe-cy";
transform = "{1, 0, 0, 1, -32, 0}";
}
);
layerId = "BA196CD0-EE58-4274-B8DF-4393D3617A29";
paths = (
{
closed = 1;
nodes = (
"548 -126 LINE",
"632 -126 LINE",
"632 91 LINE",
"548 91 LINE"
);
}
);
width = 680;
},
{
components = (
{
name = "Pe-cy";
transform = "{1, 0, 0, 1, -32, 0}";
}
);
layerId = "BBDB329E-CE83-4304-A6B1-53EA5ACC004E";
paths = (
{
closed = 1;
nodes = (
"521 -153 LINE",
"659 -153 LINE",
"659 118 LINE",
"521 118 LINE"
);
}
);
width = 680;
}
);
unicode = 0524;
},
{
glyphname = "Haabkhasian-cy";
lastChange = "2019-09-02 02:16:03 +0000";
layers = (
{
layerId = "BA196CD0-EE58-4274-B8DF-4393D3617A29";
paths = (
{
closed = 1;
nodes = (
"22 704 OFFCURVE",
"-99 494 OFFCURVE",
"-99 300 CURVE SMOOTH",
"-99 163 OFFCURVE",
"-39 35 OFFCURVE",
"80 -1 CURVE SMOOTH",
"137 -18 OFFCURVE",
"190 -26 OFFCURVE",
"240 -26 CURVE SMOOTH",
"553 -26 OFFCURVE",
"733 275 OFFCURVE",
"733 443 CURVE SMOOTH",
"733 523 OFFCURVE",
"700 623 OFFCURVE",
"532 623 CURVE SMOOTH",
"337 623 OFFCURVE",
"243 463 OFFCURVE",
"243 305 CURVE SMOOTH",
"243 151 OFFCURVE",
"332 -1 OFFCURVE",
"503 -1 CURVE SMOOTH",
"627 -1 OFFCURVE",
"658 12 OFFCURVE",
"785 86 CURVE",
"733 197 LINE",
"652 141 OFFCURVE",
"583 119 OFFCURVE",
"527 119 CURVE SMOOTH",
"401 119 OFFCURVE",
"338 232 OFFCURVE",
"338 343 CURVE SMOOTH",
"338 448 OFFCURVE",
"395 550 OFFCURVE",
"510 550 CURVE SMOOTH",
"517 550 OFFCURVE",
"524 550 OFFCURVE",
"532 549 CURVE SMOOTH",
"620 539 OFFCURVE",
"654 500 OFFCURVE",
"654 449 CURVE SMOOTH",
"654 334 OFFCURVE",
"482 158 OFFCURVE",
"368 118 CURVE SMOOTH",
"317 100 OFFCURVE",
"271 92 OFFCURVE",
"231 92 CURVE SMOOTH",
"80 92 OFFCURVE",
"8 204 OFFCURVE",
"8 321 CURVE SMOOTH",
"8 451 OFFCURVE",
"98 587 OFFCURVE",
"270 577 CURVE",
"270 695 LINE"
);
}
);
width = 686;
},
{
layerId = "BBDB329E-CE83-4304-A6B1-53EA5ACC004E";
paths = (
{
closed = 1;
nodes = (
"54 744 OFFCURVE",
"-126 560 OFFCURVE",
"-126 300 CURVE SMOOTH",
"-126 138 OFFCURVE",
"-49 10 OFFCURVE",
"72 -27 CURVE SMOOTH",
"131 -44 OFFCURVE",
"186 -53 OFFCURVE",
"240 -53 CURVE SMOOTH",
"568 -53 OFFCURVE",
"760 268 OFFCURVE",
"760 443 CURVE SMOOTH",
"760 576 OFFCURVE",
"678 650 OFFCURVE",
"532 650 CURVE SMOOTH",
"346 650 OFFCURVE",
"216 506 OFFCURVE",
"216 305 CURVE SMOOTH",
"216 113 OFFCURVE",
"336 -28 OFFCURVE",
"503 -28 CURVE SMOOTH",
"639 -28 OFFCURVE",
"674 -10 OFFCURVE",
"820 75 CURVE",
"744 238 LINE",
"662 177 OFFCURVE",
"590 146 OFFCURVE",
"527 146 CURVE SMOOTH",
"431 146 OFFCURVE",
"365 228 OFFCURVE",
"365 343 CURVE SMOOTH",
"365 450 OFFCURVE",
"423 523 OFFCURVE",
"510 523 CURVE SMOOTH",
"517 523 OFFCURVE",
"522 523 OFFCURVE",
"529 522 CURVE SMOOTH",
"597 514 OFFCURVE",
"627 490 OFFCURVE",
"627 449 CURVE SMOOTH",
"627 356 OFFCURVE",
"476 184 OFFCURVE",
"359 143 CURVE SMOOTH",
"313 127 OFFCURVE",
"270 119 OFFCURVE",
"231 119 CURVE SMOOTH",
"112 119 OFFCURVE",
"35 200 OFFCURVE",
"35 321 CURVE SMOOTH",
"35 469 OFFCURVE",
"148 571 OFFCURVE",
"297 547 CURVE",
"297 720 LINE"
);
}
);
width = 686;
}
);
unicode = 04A8;
},
{
glyphname = "Tedescender-cy";
lastChange = "2019-09-02 02:16:03 +0000";
layers = (
{
components = (
{
name = T;
}
);
layerId = "BA196CD0-EE58-4274-B8DF-4393D3617A29";
paths = (
{
closed = 1;
nodes = (
"439 -100 LINE",
"515 -100 LINE",
"515 63 LINE",
"439 63 LINE"
);
}
);
width = 777;
},
{
components = (
{
name = T;
}
);
layerId = "BBDB329E-CE83-4304-A6B1-53EA5ACC004E";
paths = (
{
closed = 1;
nodes = (
"412 -127 LINE",
"542 -127 LINE",
"542 90 LINE",
"412 90 LINE"
);
}
);
width = 777;
}
);
unicode = 04AC;
},
{
glyphname = "Hadescender-cy";
lastChange = "2019-09-02 02:16:03 +0000";
layers = (
{
components = (
{
name = X;
transform = "{1, 0, 0, 1, -15, 0}";
}
);
layerId = "BA196CD0-EE58-4274-B8DF-4393D3617A29";
paths = (
{
closed = 1;
nodes = (
"654 -116 LINE",
"724 -116 LINE",
"724 59 LINE",
"654 59 LINE"
);
}
);
width = 789;
},
{
components = (
{
name = X;
transform = "{1, 0, 0, 1, -15, 0}";
}
);
layerId = "BBDB329E-CE83-4304-A6B1-53EA5ACC004E";
paths = (
{
closed = 1;
nodes = (
"627 -143 LINE",
"751 -143 LINE",
"751 86 LINE",
"627 86 LINE"
);
}
);
width = 789;
}
);
unicode = 04B2;
},
{
glyphname = "Tetse-cy";
lastChange = "2019-09-02 02:16:03 +0000";
layers = (
{
layerId = "BA196CD0-EE58-4274-B8DF-4393D3617A29";
paths = (
{
closed = 1;
nodes = (
"-112 623 LINE",
"367 623 LINE",
"367 700 LINE",
"-112 700 LINE"
);
},
{
closed = 1;
nodes = (
"93 0 LINE",
"199 0 LINE",
"199 639 LINE",
"93 639 LINE"
);
},
{
closed = 1;
nodes = (
"93 0 LINE",
"611 0 LINE",
"611 133 LINE",
"93 133 LINE"
);
},
{
closed = 1;
nodes = (
"506 133 LINE",
"591 133 LINE",
"591 688 LINE",
"506 688 LINE"
);
},
{
closed = 1;
nodes = (
"608 -172 LINE",
"712 -172 LINE",
"712 133 LINE",
"608 133 LINE"
);
}
);
width = 600;
},
{
layerId = "BBDB329E-CE83-4304-A6B1-53EA5ACC004E";
paths = (
{
closed = 1;
nodes = (
"-139 596 LINE",
"394 596 LINE",
"394 727 LINE",
"-139 727 LINE"
);
},
{
closed = 1;
nodes = (
"66 -27 LINE",
"226 -27 LINE",
"226 666 LINE",
"66 666 LINE"
);
},
{
closed = 1;
nodes = (
"66 -27 LINE",
"638 -27 LINE",
"638 160 LINE",
"66 160 LINE"
);
},
{
closed = 1;
nodes = (
"479 106 LINE",
"618 106 LINE",
"618 715 LINE",
"479 715 LINE"
);
},
{
closed = 1;
nodes = (
"581 -199 LINE",
"739 -199 LINE",
"739 160 LINE",
"581 160 LINE"
);
}
);
width = 600;
}
);
unicode = 04B4;
},
{
glyphname = "Chedescender-cy";
lastChange = "2019-09-02 02:16:03 +0000";
layers = (
{
components = (
{
name = "Shha-cy";
transform = "{-1, 0, 0, -1, 638, 700}";
}
);
layerId = "BA196CD0-EE58-4274-B8DF-4393D3617A29";
paths = (
{
closed = 1;
nodes = (
"541 -220 LINE",
"635 -220 LINE",
"635 -10 LINE",
"541 -10 LINE"
);
}
);
width = 676;
},
{
components = (
{
name = "Shha-cy";
transform = "{-1, 0, 0, -1, 638, 700}";
}
);
layerId = "BBDB329E-CE83-4304-A6B1-53EA5ACC004E";
paths = (
{
closed = 1;
nodes = (
"514 -247 LINE",
"662 -247 LINE",
"662 17 LINE",
"514 17 LINE"
);
}
);
width = 676;
}
);
unicode = 04B6;
},
{
glyphname = "Cheverticalstroke-cy";
lastChange = "2019-09-02 02:16:03 +0000";
layers = (
{
components = (
{
name = "Che-cy";
}
);
layerId = "BA196CD0-EE58-4274-B8DF-4393D3617A29";
paths = (
{
closed = 1;
nodes = (
"259 85 LINE",
"338 85 LINE",
"338 411 LINE",
"259 411 LINE"
);
}
);
width = 663;
},
{
components = (
{
name = "Che-cy";
}
);
layerId = "BBDB329E-CE83-4304-A6B1-53EA5ACC004E";
paths = (
{
closed = 1;
nodes = (
"232 58 LINE",
"365 58 LINE",
"365 438 LINE",
"232 438 LINE"
);
}
);
width = 663;
}
);
unicode = 04B8;
},
{
glyphname = "Shha-cy";
lastChange = "2019-09-02 02:16:03 +0000";
layers = (
{
anchors = (
{
name = bottom;
position = "{338, 0}";
},
{
name = bottom_hook;
position = "{518, 0}";
},
{
name = center;
position = "{302, 273}";
},
{
name = top;
position = "{302, 547}";
},
{
name = top_hook;
position = "{181, 482}";
}
);
layerId = "BA196CD0-EE58-4274-B8DF-4393D3617A29";
paths = (
{
closed = 1;
nodes = (
"558 434 OFFCURVE",
"500 460 OFFCURVE",
"384 460 CURVE SMOOTH",
"309 460 OFFCURVE",
"264 451 OFFCURVE",
"205 434 CURVE",
"183 800 LINE",
"93 800 LINE",
"80 0 LINE",
"203 0 LINE",
"161 334 OFFCURVE",
"205 388 OFFCURVE",
"364 388 CURVE SMOOTH",
"520 388 OFFCURVE",
"496 290 OFFCURVE",
"473 0 CURVE",
"596 0 LINE",
"575 242 LINE SMOOTH"
);
}
);
width = 676;
},
{
anchors = (
{
name = bottom;
position = "{338, 0}";
},
{
name = bottom_hook;
position = "{518, 0}";
},
{
name = center;
position = "{302, 273}";
},
{
name = top;
position = "{302, 547}";
},
{
name = top_hook;
position = "{181, 482}";
}
);
layerId = "BBDB329E-CE83-4304-A6B1-53EA5ACC004E";
paths = (
{
closed = 1;
nodes = (
"586 429 OFFCURVE",
"533 487 OFFCURVE",
"384 487 CURVE SMOOTH",
"321 487 OFFCURVE",
"277 481 OFFCURVE",
"230 469 CURVE",
"208 827 LINE",
"66 827 LINE",
"53 -27 LINE",
"234 -27 LINE",
"190 302 OFFCURVE",
"211 361 OFFCURVE",
"364 361 CURVE SMOOTH",
"490 361 OFFCURVE",
"468 290 OFFCURVE",
"444 -27 CURVE",
"625 -27 LINE",
"602 244 LINE SMOOTH"
);
}
);
width = 676;
}
);
unicode = 04BA;
},
{
glyphname = "Shhadescender-cy";
lastChange = "2019-09-02 02:16:03 +0000";
layers = (
{
components = (
{
name = "Shha-cy";
transform = "{1, 0, 0, 1, -18, 0}";
}
);
layerId = "BA196CD0-EE58-4274-B8DF-4393D3617A29";
paths = (
{
closed = 1;
nodes = (
"549 -75 LINE",
"614 -75 LINE",
"614 84 LINE",
"549 84 LINE"
);
}
);
width = 676;
},
{
components = (
{
name = "Shha-cy";
transform = "{1, 0, 0, 1, -18, 0}";
}
);
layerId = "BBDB329E-CE83-4304-A6B1-53EA5ACC004E";
paths = (
{
closed = 1;
nodes = (
"522 -102 LINE",
"641 -102 LINE",
"641 111 LINE",
"522 111 LINE"
);
}
);
width = 676;
}
);
unicode = 0526;
},
{
glyphname = "Chedescenderabkhasian-cy";
lastChange = "2019-09-02 02:16:03 +0000";
layers = (
{
components = (
{
name = "Cheabkhasian-cy";
transform = "{1, 0, 0, 1, 52, 0}";
}
);
layerId = "BA196CD0-EE58-4274-B8DF-4393D3617A29";
paths = (
{
closed = 1;
nodes = (
"431 -154 LINE",
"502 -154 LINE",
"502 -8 LINE",
"431 -8 LINE"
);
}
);
width = 896;
},
{
components = (
{
name = "Cheabkhasian-cy";
transform = "{1, 0, 0, 1, 52, 0}";
}
);
layerId = "BBDB329E-CE83-4304-A6B1-53EA5ACC004E";
paths = (
{
closed = 1;
nodes = (
"404 -181 LINE",
"529 -181 LINE",
"529 19 LINE",
"404 19 LINE"
);
}
);
width = 896;
}
);
unicode = 04BE;
},
{
glyphname = "Kahook-cy";
lastChange = "2019-09-02 02:16:03 +0000";
layers = (
{
anchors = (
{
name = bottom;
position = "{325, 0}";
},
{
name = top;
position = "{383, 729}";
},
{
name = top_hook;
position = "{600, 515}";
}
);
layerId = "BA196CD0-EE58-4274-B8DF-4393D3617A29";
paths = (
{
closed = 1;
nodes = (
"221 0 LINE",
"233 281 LINE SMOOTH",
"233 284 OFFCURVE",
"235 282 OFFCURVE",
"238 282 CURVE SMOOTH",
"378 272 OFFCURVE",
"520 215 OFFCURVE",
"520 83 CURVE SMOOTH",
"520 -17 OFFCURVE",
"513 -99 OFFCURVE",
"355 -107 CURVE",
"355 -225 LINE",
"632 -225 OFFCURVE",
"637 19 OFFCURVE",
"637 69 CURVE SMOOTH",
"637 191 OFFCURVE",
"542 330 OFFCURVE",
"327 330 CURVE",
"568 729 LINE",
"441 729 LINE",
"233 359 LINE",
"246 729 LINE",
"158 729 LINE",
"93 0 LINE"
);
}
);
width = 730;
},
{
anchors = (
{
name = bottom;
position = "{325, 0}";
},
{
name = top;
position = "{383, 729}";
},
{
name = top_hook;
position = "{600, 515}";
}
);
layerId = "BBDB329E-CE83-4304-A6B1-53EA5ACC004E";
paths = (
{
closed = 1;
nodes = (
"247 -27 LINE",
"260 280 LINE",
"260 280 OFFCURVE",
"238 254 OFFCURVE",
"237 255 CURVE",
"397 243 OFFCURVE",
"493 179 OFFCURVE",
"493 83 CURVE SMOOTH",
"493 -22 OFFCURVE",
"487 -80 OFFCURVE",
"328 -81 CURVE",
"328 -251 LINE",
"658 -268 OFFCURVE",
"664 17 OFFCURVE",
"664 69 CURVE SMOOTH",
"664 223 OFFCURVE",
"545 337 OFFCURVE",
"373 355 CURVE",
"616 756 LINE",
"425 756 LINE",
"264 469 LINE",
"274 756 LINE",
"133 756 LINE",
"63 -27 LINE"
);
}
);
width = 730;
}
);
unicode = 04C3;
},
{
glyphname = "Chekhakassian-cy";
lastChange = "2019-09-02 02:16:03 +0000";
layers = (
{
components = (
{
name = "Shha-cy";
transform = "{-1, 0, 0, -1, 676, 700}";
}
);
layerId = "BA196CD0-EE58-4274-B8DF-4393D3617A29";
paths = (
{
closed = 1;
nodes = (
"437 -189 LINE",
"513 -189 LINE",
"513 -39 LINE",
"437 -39 LINE"
);
}
);
width = 676;
},
{
components = (
{
name = "Shha-cy";
transform = "{-1, 0, 0, -1, 676, 700}";
}
);
layerId = "BBDB329E-CE83-4304-A6B1-53EA5ACC004E";
paths = (
{
closed = 1;
nodes = (
"410 -216 LINE",
"540 -216 LINE",
"540 -12 LINE",
"410 -12 LINE"
);
}
);
width = 676;
}
);
unicode = 04CB;
},
{
glyphname = "Gedescender-cy";
lastChange = "2019-09-02 02:16:03 +0000";
layers = (
{
components = (
{
name = "Ge-cy";
}
);
layerId = "BA196CD0-EE58-4274-B8DF-4393D3617A29";
paths = (
{
closed = 1;
nodes = (
"212 -124 LINE",
"277 -124 LINE",
"277 48 LINE",
"212 48 LINE"
);
}
);
width = 655;
},
{
components = (
{
name = "Ge-cy";
}
);
layerId = "BBDB329E-CE83-4304-A6B1-53EA5ACC004E";
paths = (
{
closed = 1;
nodes = (
"185 -151 LINE",
"304 -151 LINE",
"304 75 LINE",
"185 75 LINE"
);
}
);
width = 655;
}
);
unicode = 04F6;
},
{
glyphname = "Elhook-cy";
lastChange = "2019-09-02 02:16:03 +0000";
layers = (
{
components = (
{
name = "El-cy.loclBGR";
transform = "{1, 0, 0, 1, 62, 0}";
}
);
layerId = "BA196CD0-EE58-4274-B8DF-4393D3617A29";
paths = (
{
closed = 1;
nodes = (
"460 -161 OFFCURVE",
"564 -144 OFFCURVE",
"571 -23 CURVE SMOOTH",
"585 215 OFFCURVE",
"517 249 OFFCURVE",
"536 490 CURVE SMOOTH",
"537 503 OFFCURVE",
"530 506 OFFCURVE",
"518 506 CURVE SMOOTH",
"506 506 OFFCURVE",
"465 500 OFFCURVE",
"457 490 CURVE",
"459 269 OFFCURVE",
"449 48 OFFCURVE",
"440 -7 CURVE SMOOTH",
"434 -44 OFFCURVE",
"435 -62 OFFCURVE",
"352 -74 CURVE",
"334 -160 LINE"
);
}
);
width = 600;
},
{
components = (
{
name = "El-cy.loclBGR";
transform = "{1, 0, 0, 1, 62, 0}";
}
);
layerId = "BBDB329E-CE83-4304-A6B1-53EA5ACC004E";
paths = (
{
closed = 1;
nodes = (
"502 -194 OFFCURVE",
"591 -149 OFFCURVE",
"598 -25 CURVE SMOOTH",
"613 237 OFFCURVE",
"545 258 OFFCURVE",
"563 488 CURVE SMOOTH",
"565 516 OFFCURVE",
"547 533 OFFCURVE",
"518 533 CURVE SMOOTH",
"487 533 OFFCURVE",
"436 521 OFFCURVE",
"430 499 CURVE",
"432 276 OFFCURVE",
"422 52 OFFCURVE",
"413 -3 CURVE SMOOTH",
"407 -43 OFFCURVE",
"404 -39 OFFCURVE",
"329 -50 CURVE",
"301 -186 LINE"
);
}
);
width = 600;
}
);
unicode = 0512;
},
